<?xml version="1.0" encoding="UTF-8" standalone="no"?>
<svg
   xmlns:dc="http://purl.org/dc/elements/1.1/"
   xmlns:cc="http://creativecommons.org/ns#"
   xmlns:rdf="http://www.w3.org/1999/02/22-rdf-syntax-ns#"
   xmlns:svg="http://www.w3.org/2000/svg"
   xmlns="http://www.w3.org/2000/svg"
   xmlns:sodipodi="http://sodipodi.sourceforge.net/DTD/sodipodi-0.dtd"
   xmlns:inkscape="http://www.inkscape.org/namespaces/inkscape"
   width="457.88239"
   height="710.88702"
   viewBox="0 0 457.88239 710.88702"
   version="1.1"
   id="svg226"
   sodipodi:docname="BoundSchematic.svg"
   inkscape:version="0.92.2 (5c3e80d, 2017-08-06)">
  <metadata
     id="metadata230">
    <rdf:RDF>
      <cc:Work
         rdf:about="">
        <dc:format>image/svg+xml</dc:format>
        <dc:type
           rdf:resource="http://purl.org/dc/dcmitype/StillImage" />
        <dc:title></dc:title>
      </cc:Work>
    </rdf:RDF>
  </metadata>
  <sodipodi:namedview
     pagecolor="#ffffff"
     bordercolor="#666666"
     borderopacity="1"
     objecttolerance="10"
     gridtolerance="10"
     guidetolerance="10"
     inkscape:pageopacity="0"
     inkscape:pageshadow="2"
     inkscape:window-width="1920"
     inkscape:window-height="1016"
     id="namedview228"
     showgrid="false"
     inkscape:zoom="0.953584"
     inkscape:cx="269.98001"
     inkscape:cy="321.81427"
     inkscape:window-x="0"
     inkscape:window-y="27"
     inkscape:window-maximized="1"
     inkscape:current-layer="svg226"
     fit-margin-top="0"
     fit-margin-left="0"
     fit-margin-right="0"
     fit-margin-bottom="0" />
  <defs
     id="defs5">
    <clipPath
       id="clip7400">
      <rect
         x="0"
         y="0"
         width="450"
         height="700"
         id="rect2" />
    </clipPath>
  </defs>
  <defs
     id="defs12">
    <clipPath
       id="clip7401">
      <rect
         x="140"
         y="70"
         width="450"
         height="491"
         id="rect9" />
    </clipPath>
  </defs>
  <defs
     id="defs19">
    <clipPath
       id="clip7402">
      <rect
         x="30"
         y="11"
         width="401"
         height="311"
         id="rect16" />
    </clipPath>
  </defs>
  <path
     style="fill:none;stroke:#000000;stroke-width:0.5;stroke-opacity:0.1"
     clip-path="url(#clip7402)"
     d="M 30.8018,321.677 V 11.811"
     id="polyline21"
     inkscape:connector-curvature="0"
     transform="translate(21.36232,-11.738005)" />
  <path
     style="fill:none;stroke:#000000;stroke-width:0.5;stroke-opacity:0.1"
     clip-path="url(#clip7402)"
     d="M 130.68,321.677 V 11.811"
     id="polyline23"
     inkscape:connector-curvature="0"
     transform="translate(21.36232,-11.738005)" />
  <path
     style="fill:none;stroke:#000000;stroke-width:0.5;stroke-opacity:0.1"
     clip-path="url(#clip7402)"
     d="M 230.558,321.677 V 11.811"
     id="polyline25"
     inkscape:connector-curvature="0"
     transform="translate(21.36232,-11.738005)" />
  <path
     style="fill:none;stroke:#000000;stroke-width:0.5;stroke-opacity:0.1"
     clip-path="url(#clip7402)"
     d="M 330.437,321.677 V 11.811"
     id="polyline27"
     inkscape:connector-curvature="0"
     transform="translate(21.36232,-11.738005)" />
  <path
     style="fill:none;stroke:#000000;stroke-width:0.5;stroke-opacity:0.1"
     clip-path="url(#clip7402)"
     d="M 430.315,321.677 V 11.811"
     id="polyline29"
     inkscape:connector-curvature="0"
     transform="translate(21.36232,-11.738005)" />
  <path
     style="fill:none;stroke:#000000;stroke-width:0.5;stroke-opacity:0.1"
     clip-path="url(#clip7402)"
     d="M 30.8018,302.641 H 430.315"
     id="polyline31"
     inkscape:connector-curvature="0"
     transform="translate(21.36232,-11.738005)" />
  <path
     style="fill:none;stroke:#000000;stroke-width:0.5;stroke-opacity:0.1"
     clip-path="url(#clip7402)"
     d="M 30.8018,241.882 H 430.315"
     id="polyline33"
     inkscape:connector-curvature="0"
     transform="translate(21.36232,-11.738005)" />
  <path
     style="fill:none;stroke:#000000;stroke-width:0.5;stroke-opacity:0.1"
     clip-path="url(#clip7402)"
     d="M 30.8018,181.123 H 430.315"
     id="polyline35"
     inkscape:connector-curvature="0"
     transform="translate(21.36232,-11.738005)" />
  <path
     style="fill:none;stroke:#000000;stroke-width:0.5;stroke-opacity:0.1"
     clip-path="url(#clip7402)"
     d="M 30.8018,120.365 H 430.315"
     id="polyline37"
     inkscape:connector-curvature="0"
     transform="translate(21.36232,-11.738005)" />
  <path
     style="fill:none;stroke:#000000;stroke-width:0.5;stroke-opacity:0.1"
     clip-path="url(#clip7402)"
     d="M 30.8018,59.606 H 430.315"
     id="polyline39"
     inkscape:connector-curvature="0"
     transform="translate(21.36232,-11.738005)" />
  <path
     style="fill:none;stroke:#000000;stroke-width:1;stroke-opacity:1"
     clip-path="url(#clip7400)"
     d="M 30.8018,321.677 H 430.315"
     id="polyline41"
     inkscape:connector-curvature="0"
     transform="translate(21.36232,-11.738005)" />
  <path
     style="fill:none;stroke:#000000;stroke-width:1;stroke-opacity:1"
     clip-path="url(#clip7400)"
     d="M 30.8018,321.677 V 11.811"
     id="polyline43"
     inkscape:connector-curvature="0"
     transform="translate(21.36232,-11.738005)" />
  <path
     style="fill:none;stroke:#000000;stroke-width:1;stroke-opacity:1"
     clip-path="url(#clip7400)"
     d="m 30.8018,321.677 v -4.648"
     id="polyline45"
     inkscape:connector-curvature="0"
     transform="translate(21.36232,-11.738005)" />
  <path
     style="fill:none;stroke:#000000;stroke-width:1;stroke-opacity:1"
     clip-path="url(#clip7400)"
     d="m 130.68,321.677 v -4.648"
     id="polyline47"
     inkscape:connector-curvature="0"
     transform="translate(21.36232,-11.738005)" />
  <path
     style="fill:none;stroke:#000000;stroke-width:1;stroke-opacity:1"
     clip-path="url(#clip7400)"
     d="m 230.558,321.677 v -4.648"
     id="polyline49"
     inkscape:connector-curvature="0"
     transform="translate(21.36232,-11.738005)" />
  <path
     style="fill:none;stroke:#000000;stroke-width:1;stroke-opacity:1"
     clip-path="url(#clip7400)"
     d="m 330.437,321.677 v -4.648"
     id="polyline51"
     inkscape:connector-curvature="0"
     transform="translate(21.36232,-11.738005)" />
  <path
     style="fill:none;stroke:#000000;stroke-width:1;stroke-opacity:1"
     clip-path="url(#clip7400)"
     d="m 430.315,321.677 v -4.648"
     id="polyline53"
     inkscape:connector-curvature="0"
     transform="translate(21.36232,-11.738005)" />
  <path
     style="fill:none;stroke:#000000;stroke-width:1;stroke-opacity:1"
     clip-path="url(#clip7400)"
     d="m 30.8018,302.641 h 5.9927"
     id="polyline55"
     inkscape:connector-curvature="0"
     transform="translate(21.36232,-11.738005)" />
  <path
     style="fill:none;stroke:#000000;stroke-width:1;stroke-opacity:1"
     clip-path="url(#clip7400)"
     d="m 30.8018,241.882 h 5.9927"
     id="polyline57"
     inkscape:connector-curvature="0"
     transform="translate(21.36232,-11.738005)" />
  <path
     style="fill:none;stroke:#000000;stroke-width:1;stroke-opacity:1"
     clip-path="url(#clip7400)"
     d="m 30.8018,181.123 h 5.9927"
     id="polyline59"
     inkscape:connector-curvature="0"
     transform="translate(21.36232,-11.738005)" />
  <path
     style="fill:none;stroke:#000000;stroke-width:1;stroke-opacity:1"
     clip-path="url(#clip7400)"
     d="m 30.8018,120.365 h 5.9927"
     id="polyline61"
     inkscape:connector-curvature="0"
     transform="translate(21.36232,-11.738005)" />
  <path
     style="fill:none;stroke:#000000;stroke-width:1;stroke-opacity:1"
     clip-path="url(#clip7400)"
     d="m 30.8018,59.606 h 5.9927"
     id="polyline63"
     inkscape:connector-curvature="0"
     transform="translate(21.36232,-11.738005)" />
  <g
     clip-path="url(#clip7400)"
     id="g67"
     transform="translate(21.36232,-11.738005)">
    <g
       aria-label="-2"
       style="font-size:12px;font-family:Arial, 'Helvetica Neue', Helvetica, sans-serif;text-anchor:middle;fill:#000000;fill-opacity:1"
       id="text65">
      <path
         d="m 25.991253,333.25824 v -0.9375 h 2.929687 v 0.9375 z"
         style="font-size:12px;font-family:Arial, 'Helvetica Neue', Helvetica, sans-serif;text-anchor:middle;fill:#000000;fill-opacity:1"
         id="path1208"
         inkscape:connector-curvature="0" />
      <path
         d="m 30.069378,335.97699 v -0.74414 q 0.298828,-0.68555 0.726562,-1.20703 0.433594,-0.52735 0.908204,-0.94922 0.474609,-0.42774 0.9375,-0.79102 0.46875,-0.36328 0.84375,-0.72656 0.375,-0.36328 0.603515,-0.76172 0.234375,-0.39844 0.234375,-0.90234 0,-0.35156 -0.105469,-0.61524 -0.105468,-0.26953 -0.304687,-0.45117 -0.199219,-0.18164 -0.480469,-0.26953 -0.27539,-0.0937 -0.615234,-0.0937 -0.316406,0 -0.597656,0.0879 -0.275391,0.0879 -0.492188,0.26367 -0.216797,0.17578 -0.357422,0.43946 -0.134765,0.25781 -0.175781,0.60351 l -1.078125,-0.0996 q 0.05273,-0.44531 0.246094,-0.83789 0.193359,-0.39258 0.533203,-0.68554 0.339844,-0.29883 0.814453,-0.46875 0.480469,-0.16993 1.107422,-0.16993 0.615234,0 1.095703,0.14649 0.480469,0.14648 0.808594,0.43359 0.333984,0.28711 0.509765,0.70899 0.175782,0.42187 0.175782,0.97265 0,0.41602 -0.152344,0.79102 -0.146485,0.375 -0.398438,0.71484 -0.246093,0.33985 -0.574218,0.65625 -0.328125,0.31641 -0.685547,0.6211 -0.357422,0.29882 -0.720703,0.59765 -0.363282,0.29297 -0.685547,0.5918 -0.316407,0.29883 -0.56836,0.60937 -0.251953,0.30469 -0.392578,0.63868 h 4.306641 v 0.89648 z"
         style="font-size:12px;font-family:Arial, 'Helvetica Neue', Helvetica, sans-serif;text-anchor:middle;fill:#000000;fill-opacity:1"
         id="path1210"
         inkscape:connector-curvature="0" />
    </g>
  </g>
  <g
     clip-path="url(#clip7400)"
     id="g71"
     transform="translate(21.36232,-11.738005)">
    <g
       aria-label="-1"
       style="font-size:12px;font-family:Arial, 'Helvetica Neue', Helvetica, sans-serif;text-anchor:middle;fill:#000000;fill-opacity:1"
       id="text69">
      <path
         d="m 125.86945,333.25824 v -0.9375 h 2.92968 v 0.9375 z"
         style="font-size:12px;font-family:Arial, 'Helvetica Neue', Helvetica, sans-serif;text-anchor:middle;fill:#000000;fill-opacity:1"
         id="path1203"
         inkscape:connector-curvature="0" />
      <path
         d="m 130.25812,335.97699 v -0.89648 h 2.10351 v -6.35157 l -1.86328,1.33008 v -0.99609 l 1.95117,-1.3418 h 0.97266 v 7.35938 h 2.00977 v 0.89648 z"
         style="font-size:12px;font-family:Arial, 'Helvetica Neue', Helvetica, sans-serif;text-anchor:middle;fill:#000000;fill-opacity:1"
         id="path1205"
         inkscape:connector-curvature="0" />
    </g>
  </g>
  <g
     clip-path="url(#clip7400)"
     id="g75"
     transform="translate(21.36232,-11.738005)">
    <g
       aria-label="0"
       style="font-size:12px;font-family:Arial, 'Helvetica Neue', Helvetica, sans-serif;text-anchor:middle;fill:#000000;fill-opacity:1"
       id="text73">
      <path
         d="m 233.42323,331.84613 q 0,1.18945 -0.22851,2.00391 -0.22266,0.80859 -0.61524,1.3125 -0.38672,0.49804 -0.91406,0.71484 -0.52734,0.2168 -1.125,0.2168 -0.60352,0 -1.125,-0.2168 -0.52148,-0.2168 -0.9082,-0.71484 -0.38086,-0.49805 -0.60352,-1.30664 -0.2168,-0.81446 -0.2168,-2.00977 0,-1.24805 0.2168,-2.0625 0.22266,-0.82031 0.60938,-1.30664 0.38672,-0.48633 0.91406,-0.67969 0.52734,-0.19922 1.14844,-0.19922 0.59179,0 1.10742,0.19922 0.52148,0.19336 0.9082,0.67969 0.38672,0.48633 0.60938,1.30664 0.22265,0.81445 0.22265,2.0625 z m -1.07226,0 q 0,-0.98437 -0.11719,-1.63477 -0.11719,-0.65625 -0.3457,-1.04296 -0.22852,-0.39258 -0.5625,-0.55079 -0.32813,-0.16406 -0.75,-0.16406 -0.44532,0 -0.78516,0.16406 -0.33984,0.16407 -0.57422,0.55665 -0.22851,0.38671 -0.3457,1.04296 -0.11719,0.65039 -0.11719,1.62891 0,0.94922 0.11719,1.59961 0.12305,0.65039 0.35156,1.04883 0.23438,0.39258 0.56836,0.56836 0.33398,0.16992 0.76172,0.16992 0.41601,0 0.75,-0.16992 0.33398,-0.17578 0.5625,-0.56836 0.23437,-0.39844 0.35742,-1.04883 0.12891,-0.65039 0.12891,-1.59961 z"
         style="font-size:12px;font-family:Arial, 'Helvetica Neue', Helvetica, sans-serif;text-anchor:middle;fill:#000000;fill-opacity:1"
         id="path1200"
         inkscape:connector-curvature="0" />
    </g>
  </g>
  <g
     clip-path="url(#clip7400)"
     id="g79"
     transform="translate(21.36232,-11.738005)">
    <g
       aria-label="1"
       style="font-size:12px;font-family:Arial, 'Helvetica Neue', Helvetica, sans-serif;text-anchor:middle;fill:#000000;fill-opacity:1"
       id="text77">
      <path
         d="m 328.01123,335.97699 v -0.89648 h 2.10352 v -6.35157 l -1.86329,1.33008 v -0.99609 l 1.95118,-1.3418 h 0.97265 v 7.35938 h 2.00977 v 0.89648 z"
         style="font-size:12px;font-family:Arial, 'Helvetica Neue', Helvetica, sans-serif;text-anchor:middle;fill:#000000;fill-opacity:1"
         id="path1197"
         inkscape:connector-curvature="0" />
    </g>
  </g>
  <g
     clip-path="url(#clip7400)"
     id="g83"
     transform="translate(21.36232,-11.738005)">
    <g
       aria-label="2"
       style="font-size:12px;font-family:Arial, 'Helvetica Neue', Helvetica, sans-serif;text-anchor:middle;fill:#000000;fill-opacity:1"
       id="text81">
      <path
         d="m 427.57867,335.97699 v -0.74414 q 0.29883,-0.68555 0.72657,-1.20703 0.43359,-0.52735 0.9082,-0.94922 0.47461,-0.42774 0.9375,-0.79102 0.46875,-0.36328 0.84375,-0.72656 0.375,-0.36328 0.60352,-0.76172 0.23437,-0.39844 0.23437,-0.90234 0,-0.35156 -0.10547,-0.61524 -0.10547,-0.26953 -0.30469,-0.45117 -0.19921,-0.18164 -0.48046,-0.26953 -0.2754,-0.0937 -0.61524,-0.0937 -0.31641,0 -0.59766,0.0879 -0.27539,0.0879 -0.49218,0.26367 -0.2168,0.17578 -0.35742,0.43946 -0.13477,0.25781 -0.17579,0.60351 l -1.07812,-0.0996 q 0.0527,-0.44531 0.24609,-0.83789 0.19336,-0.39258 0.53321,-0.68554 0.33984,-0.29883 0.81445,-0.46875 0.48047,-0.16993 1.10742,-0.16993 0.61524,0 1.0957,0.14649 0.48047,0.14648 0.8086,0.43359 0.33398,0.28711 0.50976,0.70899 0.17578,0.42187 0.17578,0.97265 0,0.41602 -0.15234,0.79102 -0.14648,0.375 -0.39844,0.71484 -0.24609,0.33985 -0.57422,0.65625 -0.32812,0.31641 -0.68554,0.6211 -0.35742,0.29882 -0.72071,0.59765 -0.36328,0.29297 -0.68554,0.5918 -0.31641,0.29883 -0.56836,0.60937 -0.25195,0.30469 -0.39258,0.63868 h 4.30664 v 0.89648 z"
         style="font-size:12px;font-family:Arial, 'Helvetica Neue', Helvetica, sans-serif;text-anchor:middle;fill:#000000;fill-opacity:1"
         id="path1194"
         inkscape:connector-curvature="0" />
    </g>
  </g>
  <g
     clip-path="url(#clip7400)"
     id="g87"
     transform="translate(21.36232,-11.738005)">
    <g
       aria-label="0.0"
       style="font-size:12px;font-family:Arial, 'Helvetica Neue', Helvetica, sans-serif;text-anchor:end;fill:#000000;fill-opacity:1"
       id="text85">
      <path
         d="m 13.319378,303.01013 q 0,1.18945 -0.228516,2.00391 -0.222656,0.80859 -0.615234,1.3125 -0.386719,0.49804 -0.914063,0.71484 -0.527343,0.2168 -1.125,0.2168 -0.6035152,0 -1.1249996,-0.2168 -0.5214844,-0.2168 -0.9082031,-0.71484 -0.3808594,-0.49805 -0.6035157,-1.30664 -0.2167968,-0.81446 -0.2167968,-2.00977 0,-1.24805 0.2167968,-2.0625 0.2226563,-0.82031 0.609375,-1.30664 0.3867188,-0.48633 0.9140625,-0.67969 0.5273438,-0.19922 1.1484379,-0.19922 0.591797,0 1.107422,0.19922 0.521484,0.19336 0.908203,0.67969 0.386718,0.48633 0.609375,1.30664 0.222656,0.81445 0.222656,2.0625 z m -1.072266,0 q 0,-0.98437 -0.117187,-1.63476 -0.117188,-0.65625 -0.345703,-1.04297 -0.228516,-0.39258 -0.5625,-0.55078 -0.328125,-0.16407 -0.75,-0.16407 -0.445313,0 -0.7851566,0.16407 -0.3398438,0.16406 -0.5742188,0.55664 -0.2285156,0.38672 -0.3457031,1.04297 -0.1171875,0.65039 -0.1171875,1.6289 0,0.94922 0.1171875,1.59961 0.1230469,0.65039 0.3515625,1.04883 0.234375,0.39258 0.5683594,0.56836 0.3339846,0.16992 0.7617186,0.16992 0.416016,0 0.75,-0.16992 0.333985,-0.17578 0.5625,-0.56836 0.234375,-0.39844 0.357422,-1.04883 0.128906,-0.65039 0.128906,-1.59961 z"
         style="font-size:12px;font-family:Arial, 'Helvetica Neue', Helvetica, sans-serif;text-anchor:end;fill:#000000;fill-opacity:1"
         id="path1187"
         inkscape:connector-curvature="0" />
      <path
         d="m 14.88969,307.14099 v -1.2832 h 1.142579 v 1.2832 z"
         style="font-size:12px;font-family:Arial, 'Helvetica Neue', Helvetica, sans-serif;text-anchor:end;fill:#000000;fill-opacity:1"
         id="path1189"
         inkscape:connector-curvature="0" />
      <path
         d="m 23.32719,303.01013 q 0,1.18945 -0.228515,2.00391 -0.222656,0.80859 -0.615235,1.3125 -0.386718,0.49804 -0.914062,0.71484 -0.527344,0.2168 -1.125,0.2168 -0.603516,0 -1.125,-0.2168 -0.521484,-0.2168 -0.908203,-0.71484 -0.38086,-0.49805 -0.603516,-1.30664 -0.216797,-0.81446 -0.216797,-2.00977 0,-1.24805 0.216797,-2.0625 0.222656,-0.82031 0.609375,-1.30664 0.386719,-0.48633 0.914063,-0.67969 0.527343,-0.19922 1.148437,-0.19922 0.591797,0 1.107422,0.19922 0.521484,0.19336 0.908203,0.67969 0.386719,0.48633 0.609375,1.30664 0.222656,0.81445 0.222656,2.0625 z m -1.072265,0 q 0,-0.98437 -0.117188,-1.63476 -0.117187,-0.65625 -0.345703,-1.04297 -0.228515,-0.39258 -0.5625,-0.55078 -0.328125,-0.16407 -0.75,-0.16407 -0.445312,0 -0.785156,0.16407 -0.339844,0.16406 -0.574219,0.55664 -0.228515,0.38672 -0.345703,1.04297 -0.117187,0.65039 -0.117187,1.6289 0,0.94922 0.117187,1.59961 0.123047,0.65039 0.351563,1.04883 0.234375,0.39258 0.568359,0.56836 0.333984,0.16992 0.761719,0.16992 0.416015,0 0.75,-0.16992 0.333984,-0.17578 0.5625,-0.56836 0.234375,-0.39844 0.357422,-1.04883 0.128906,-0.65039 0.128906,-1.59961 z"
         style="font-size:12px;font-family:Arial, 'Helvetica Neue', Helvetica, sans-serif;text-anchor:end;fill:#000000;fill-opacity:1"
         id="path1191"
         inkscape:connector-curvature="0" />
    </g>
  </g>
  <g
     clip-path="url(#clip7400)"
     id="g91"
     transform="translate(21.36232,-11.738005)">
    <g
       aria-label="0.5"
       style="font-size:12px;font-family:Arial, 'Helvetica Neue', Helvetica, sans-serif;text-anchor:end;fill:#000000;fill-opacity:1"
       id="text89">
      <path
         d="m 13.319378,242.25114 q 0,1.18946 -0.228516,2.00391 -0.222656,0.80859 -0.615234,1.3125 -0.386719,0.49805 -0.914063,0.71484 -0.527343,0.2168 -1.125,0.2168 -0.6035152,0 -1.1249996,-0.2168 -0.5214844,-0.21679 -0.9082031,-0.71484 -0.3808594,-0.49805 -0.6035157,-1.30664 -0.2167968,-0.81445 -0.2167968,-2.00977 0,-1.24804 0.2167968,-2.0625 0.2226563,-0.82031 0.609375,-1.30664 0.3867188,-0.48632 0.9140625,-0.67968 0.5273438,-0.19922 1.1484379,-0.19922 0.591797,0 1.107422,0.19922 0.521484,0.19336 0.908203,0.67968 0.386718,0.48633 0.609375,1.30664 0.222656,0.81446 0.222656,2.0625 z m -1.072266,0 q 0,-0.98437 -0.117187,-1.63476 -0.117188,-0.65625 -0.345703,-1.04297 -0.228516,-0.39258 -0.5625,-0.55078 -0.328125,-0.16406 -0.75,-0.16406 -0.445313,0 -0.7851566,0.16406 -0.3398438,0.16406 -0.5742188,0.55664 -0.2285156,0.38672 -0.3457031,1.04297 -0.1171875,0.65039 -0.1171875,1.6289 0,0.94922 0.1171875,1.59961 0.1230469,0.65039 0.3515625,1.04883 0.234375,0.39258 0.5683594,0.56836 0.3339846,0.16992 0.7617186,0.16992 0.416016,0 0.75,-0.16992 0.333985,-0.17578 0.5625,-0.56836 0.234375,-0.39844 0.357422,-1.04883 0.128906,-0.65039 0.128906,-1.59961 z"
         style="font-size:12px;font-family:Arial, 'Helvetica Neue', Helvetica, sans-serif;text-anchor:end;fill:#000000;fill-opacity:1"
         id="path1180"
         inkscape:connector-curvature="0" />
      <path
         d="m 14.88969,246.382 v -1.2832 h 1.142579 v 1.2832 z"
         style="font-size:12px;font-family:Arial, 'Helvetica Neue', Helvetica, sans-serif;text-anchor:end;fill:#000000;fill-opacity:1"
         id="path1182"
         inkscape:connector-curvature="0" />
      <path
         d="m 23.292034,243.69255 q 0,0.62109 -0.1875,1.13672 -0.1875,0.51562 -0.55664,0.89062 -0.369141,0.36915 -0.919922,0.57422 -0.544922,0.20508 -1.265625,0.20508 -0.650391,0 -1.136719,-0.15234 -0.480469,-0.15235 -0.814453,-0.41602 -0.333985,-0.26953 -0.533203,-0.62695 -0.19336,-0.35742 -0.275391,-0.76758 l 1.066406,-0.12305 q 0.06445,0.23438 0.181641,0.45704 0.117187,0.21679 0.316406,0.39257 0.205078,0.16993 0.498047,0.27539 0.298828,0.0996 0.720703,0.0996 0.410156,0 0.744141,-0.12304 0.333984,-0.12891 0.568359,-0.375 0.240235,-0.2461 0.369141,-0.60352 0.128906,-0.35742 0.128906,-0.82031 0,-0.38086 -0.123047,-0.69727 -0.123047,-0.32226 -0.351562,-0.55078 -0.228516,-0.23437 -0.5625,-0.36328 -0.328125,-0.12891 -0.75,-0.12891 -0.263672,0 -0.486328,0.0469 -0.222657,0.0469 -0.416016,0.12891 -0.1875,0.082 -0.345703,0.19335 -0.152344,0.10547 -0.28711,0.22266 h -1.03125 l 0.275391,-4.44141 h 4.693359 v 0.89649 h -3.732421 l -0.158204,2.61914 q 0.28125,-0.2168 0.703125,-0.36914 0.421875,-0.1582 1.001954,-0.1582 0.615234,0 1.107421,0.1875 0.492188,0.1875 0.837891,0.5332 0.345703,0.33984 0.533203,0.81445 0.1875,0.47461 0.1875,1.04297 z"
         style="font-size:12px;font-family:Arial, 'Helvetica Neue', Helvetica, sans-serif;text-anchor:end;fill:#000000;fill-opacity:1"
         id="path1184"
         inkscape:connector-curvature="0" />
    </g>
  </g>
  <g
     clip-path="url(#clip7400)"
     id="g95"
     transform="translate(21.36232,-11.738005)">
    <g
       aria-label="1.0"
       style="font-size:12px;font-family:Arial, 'Helvetica Neue', Helvetica, sans-serif;text-anchor:end;fill:#000000;fill-opacity:1"
       id="text93">
      <path
         d="m 8.0283623,185.623 v -0.89648 h 2.1035157 v -6.35157 l -1.8632814,1.33008 v -0.99609 l 1.9511724,-1.3418 h 0.972656 v 7.35938 h 2.009765 v 0.89648 z"
         style="font-size:12px;font-family:Arial, 'Helvetica Neue', Helvetica, sans-serif;text-anchor:end;fill:#000000;fill-opacity:1"
         id="path1173"
         inkscape:connector-curvature="0" />
      <path
         d="m 14.88969,185.623 v -1.2832 h 1.142579 v 1.2832 z"
         style="font-size:12px;font-family:Arial, 'Helvetica Neue', Helvetica, sans-serif;text-anchor:end;fill:#000000;fill-opacity:1"
         id="path1175"
         inkscape:connector-curvature="0" />
      <path
         d="m 23.32719,181.49214 q 0,1.18945 -0.228515,2.00391 -0.222656,0.80859 -0.615235,1.3125 -0.386718,0.49804 -0.914062,0.71484 -0.527344,0.2168 -1.125,0.2168 -0.603516,0 -1.125,-0.2168 -0.521484,-0.2168 -0.908203,-0.71484 -0.38086,-0.49805 -0.603516,-1.30664 -0.216797,-0.81446 -0.216797,-2.00977 0,-1.24805 0.216797,-2.0625 0.222656,-0.82031 0.609375,-1.30664 0.386719,-0.48633 0.914063,-0.67969 0.527343,-0.19922 1.148437,-0.19922 0.591797,0 1.107422,0.19922 0.521484,0.19336 0.908203,0.67969 0.386719,0.48633 0.609375,1.30664 0.222656,0.81445 0.222656,2.0625 z m -1.072265,0 q 0,-0.98437 -0.117188,-1.63476 -0.117187,-0.65625 -0.345703,-1.04297 -0.228515,-0.39258 -0.5625,-0.55078 -0.328125,-0.16407 -0.75,-0.16407 -0.445312,0 -0.785156,0.16407 -0.339844,0.16406 -0.574219,0.55664 -0.228515,0.38672 -0.345703,1.04297 -0.117187,0.65039 -0.117187,1.6289 0,0.94922 0.117187,1.59961 0.123047,0.65039 0.351563,1.04883 0.234375,0.39258 0.568359,0.56836 0.333984,0.16992 0.761719,0.16992 0.416015,0 0.75,-0.16992 0.333984,-0.17578 0.5625,-0.56836 0.234375,-0.39844 0.357422,-1.04883 0.128906,-0.65039 0.128906,-1.59961 z"
         style="font-size:12px;font-family:Arial, 'Helvetica Neue', Helvetica, sans-serif;text-anchor:end;fill:#000000;fill-opacity:1"
         id="path1177"
         inkscape:connector-curvature="0" />
    </g>
  </g>
  <g
     clip-path="url(#clip7400)"
     id="g99"
     transform="translate(21.36232,-11.738005)">
    <g
       aria-label="1.5"
       style="font-size:12px;font-family:Arial, 'Helvetica Neue', Helvetica, sans-serif;text-anchor:end;fill:#000000;fill-opacity:1"
       id="text97">
      <path
         d="m 8.0283623,124.865 v -0.89649 h 2.1035157 v -6.35156 l -1.8632814,1.33008 v -0.99609 l 1.9511724,-1.3418 h 0.972656 v 7.35937 h 2.009765 v 0.89649 z"
         style="font-size:12px;font-family:Arial, 'Helvetica Neue', Helvetica, sans-serif;text-anchor:end;fill:#000000;fill-opacity:1"
         id="path1166"
         inkscape:connector-curvature="0" />
      <path
         d="m 14.88969,124.865 v -1.28321 h 1.142579 v 1.28321 z"
         style="font-size:12px;font-family:Arial, 'Helvetica Neue', Helvetica, sans-serif;text-anchor:end;fill:#000000;fill-opacity:1"
         id="path1168"
         inkscape:connector-curvature="0" />
      <path
         d="m 23.292034,122.17554 q 0,0.6211 -0.1875,1.13672 -0.1875,0.51563 -0.55664,0.89063 -0.369141,0.36914 -0.919922,0.57422 -0.544922,0.20508 -1.265625,0.20508 -0.650391,0 -1.136719,-0.15235 -0.480469,-0.15234 -0.814453,-0.41601 -0.333985,-0.26954 -0.533203,-0.62696 -0.19336,-0.35742 -0.275391,-0.76758 l 1.066406,-0.12304 q 0.06445,0.23437 0.181641,0.45703 0.117187,0.2168 0.316406,0.39258 0.205078,0.16992 0.498047,0.27539 0.298828,0.0996 0.720703,0.0996 0.410156,0 0.744141,-0.12305 0.333984,-0.12891 0.568359,-0.375 0.240235,-0.24609 0.369141,-0.60352 0.128906,-0.35742 0.128906,-0.82031 0,-0.38086 -0.123047,-0.69726 -0.123047,-0.32227 -0.351562,-0.55078 -0.228516,-0.23438 -0.5625,-0.36329 -0.328125,-0.1289 -0.75,-0.1289 -0.263672,0 -0.486328,0.0469 -0.222657,0.0469 -0.416016,0.12891 -0.1875,0.082 -0.345703,0.19336 -0.152344,0.10547 -0.28711,0.22265 h -1.03125 l 0.275391,-4.4414 h 4.693359 v 0.89648 h -3.732421 l -0.158204,2.61914 q 0.28125,-0.21679 0.703125,-0.36914 0.421875,-0.1582 1.001954,-0.1582 0.615234,0 1.107421,0.1875 0.492188,0.1875 0.837891,0.5332 0.345703,0.33985 0.533203,0.81446 0.1875,0.47461 0.1875,1.04296 z"
         style="font-size:12px;font-family:Arial, 'Helvetica Neue', Helvetica, sans-serif;text-anchor:end;fill:#000000;fill-opacity:1"
         id="path1170"
         inkscape:connector-curvature="0" />
    </g>
  </g>
  <g
     clip-path="url(#clip7400)"
     id="g103"
     transform="translate(21.36232,-11.738005)">
    <g
       aria-label="2.0"
       style="font-size:12px;font-family:Arial, 'Helvetica Neue', Helvetica, sans-serif;text-anchor:end;fill:#000000;fill-opacity:1"
       id="text101">
      <path
         d="m 7.7178154,64.106003 v -0.744141 q 0.2988281,-0.685547 0.7265625,-1.207031 0.4335937,-0.527344 0.9082031,-0.949219 0.4746094,-0.427734 0.9375,-0.791015 0.46875,-0.363282 0.84375,-0.726563 0.375,-0.363281 0.603516,-0.761719 0.234375,-0.398437 0.234375,-0.902343 0,-0.351563 -0.105469,-0.615235 -0.105469,-0.269531 -0.304688,-0.451172 -0.199218,-0.18164 -0.480468,-0.269531 -0.275391,-0.09375 -0.615235,-0.09375 -0.316406,0 -0.597656,0.08789 -0.2753906,0.08789 -0.4921875,0.263672 Q 9.1592216,57.121628 9.0185966,57.3853 8.883831,57.643112 8.8428154,57.988815 l -1.078125,-0.09961 q 0.052734,-0.445313 0.2460937,-0.837891 0.1933594,-0.392578 0.5332032,-0.685547 0.3398437,-0.298828 0.8144531,-0.46875 0.4804687,-0.169921 1.1074216,-0.169921 0.615235,0 1.095703,0.146484 0.480469,0.146484 0.808594,0.433594 0.333985,0.287109 0.509766,0.708984 0.175781,0.421875 0.175781,0.972656 0,0.416016 -0.152344,0.791016 -0.146484,0.375 -0.398437,0.714844 -0.246094,0.339843 -0.574219,0.65625 -0.328125,0.316406 -0.685547,0.621093 -0.357422,0.298829 -0.720703,0.597657 -0.363281,0.292968 -0.6855469,0.591797 -0.3164062,0.298828 -0.5683593,0.609375 -0.2519532,0.304687 -0.3925782,0.638671 h 4.3066404 v 0.896485 z"
         style="font-size:12px;font-family:Arial, 'Helvetica Neue', Helvetica, sans-serif;text-anchor:end;fill:#000000;fill-opacity:1"
         id="path1159"
         inkscape:connector-curvature="0" />
      <path
         d="M 14.88969,64.106003 V 62.8228 h 1.142579 v 1.283203 z"
         style="font-size:12px;font-family:Arial, 'Helvetica Neue', Helvetica, sans-serif;text-anchor:end;fill:#000000;fill-opacity:1"
         id="path1161"
         inkscape:connector-curvature="0" />
      <path
         d="m 23.32719,59.975143 q 0,1.189454 -0.228515,2.003907 -0.222656,0.808593 -0.615235,1.3125 -0.386718,0.498047 -0.914062,0.714843 -0.527344,0.216797 -1.125,0.216797 -0.603516,0 -1.125,-0.216797 -0.521484,-0.216796 -0.908203,-0.714843 -0.38086,-0.498047 -0.603516,-1.306641 -0.216797,-0.814453 -0.216797,-2.009766 0,-1.248046 0.216797,-2.0625 0.222656,-0.820312 0.609375,-1.30664 0.386719,-0.486328 0.914063,-0.679688 0.527343,-0.199218 1.148437,-0.199218 0.591797,0 1.107422,0.199218 0.521484,0.19336 0.908203,0.679688 0.386719,0.486328 0.609375,1.30664 0.222656,0.814454 0.222656,2.0625 z m -1.072265,0 q 0,-0.984375 -0.117188,-1.634765 -0.117187,-0.65625 -0.345703,-1.042969 -0.228515,-0.392578 -0.5625,-0.550781 -0.328125,-0.164063 -0.75,-0.164063 -0.445312,0 -0.785156,0.164063 -0.339844,0.164062 -0.574219,0.55664 -0.228515,0.386719 -0.345703,1.042969 -0.117187,0.650391 -0.117187,1.628906 0,0.949219 0.117187,1.59961 0.123047,0.65039 0.351563,1.048828 0.234375,0.392578 0.568359,0.568359 0.333984,0.169922 0.761719,0.169922 0.416015,0 0.75,-0.169922 0.333984,-0.175781 0.5625,-0.568359 0.234375,-0.398438 0.357422,-1.048828 0.128906,-0.650391 0.128906,-1.59961 z"
         style="font-size:12px;font-family:Arial, 'Helvetica Neue', Helvetica, sans-serif;text-anchor:end;fill:#000000;fill-opacity:1"
         id="path1163"
         inkscape:connector-curvature="0" />
    </g>
  </g>
  <path
     style="fill:none;stroke:#009af9;stroke-width:1;stroke-opacity:1"
     clip-path="url(#clip7402)"
     d="m 30.8018,11.811 9.9879,67.6816 9.9878,55.7304 9.9878,45.128 9.9879,35.802 9.9878,27.678 9.9878,20.685 9.9882,14.749 9.987,9.797 9.988,5.757 9.988,2.555 9.988,0.118 9.988,-1.625 9.988,-2.75 9.987,-3.326 9.988,-3.43 9.988,-3.132 9.988,-2.507 9.988,-1.625 9.988,-0.562 9.987,0.61 9.988,1.82 9.988,2.993 9.988,4.055 9.988,4.937 9.988,5.562 9.987,5.861 9.988,5.757 9.988,5.179 9.988,4.056 9.988,2.312 9.988,-0.124 9.987,-3.327 9.988,-7.367 9.988,-12.318 9.988,-18.255 9.988,-25.248 9.987,-33.371 9.988,-42.698 9.988,-53.3 9.988,-65.2513"
     id="polyline105"
     inkscape:connector-curvature="0"
     transform="translate(21.36232,-11.738005)" />
  <defs
     id="defs112">
    <clipPath
       id="clip7403">
      <rect
         x="30"
         y="361"
         width="401"
         height="311"
         id="rect109" />
    </clipPath>
  </defs>
  <path
     style="fill:none;stroke:#000000;stroke-width:0.5;stroke-opacity:0.1"
     clip-path="url(#clip7403)"
     d="M 30.8018,671.677 V 361.811"
     id="polyline114"
     inkscape:connector-curvature="0"
     transform="translate(21.36232,-1.7380046)" />
  <path
     style="fill:none;stroke:#000000;stroke-width:0.5;stroke-opacity:0.1"
     clip-path="url(#clip7403)"
     d="M 130.68,671.677 V 361.811"
     id="polyline116"
     inkscape:connector-curvature="0"
     transform="translate(21.36232,-1.7380046)" />
  <path
     style="fill:none;stroke:#000000;stroke-width:0.5;stroke-opacity:0.1"
     clip-path="url(#clip7403)"
     d="M 230.558,671.677 V 361.811"
     id="polyline118"
     inkscape:connector-curvature="0"
     transform="translate(21.36232,-1.7380046)" />
  <path
     style="fill:none;stroke:#000000;stroke-width:0.5;stroke-opacity:0.1"
     clip-path="url(#clip7403)"
     d="M 330.437,671.677 V 361.811"
     id="polyline120"
     inkscape:connector-curvature="0"
     transform="translate(21.36232,-1.7380046)" />
  <path
     style="fill:none;stroke:#000000;stroke-width:0.5;stroke-opacity:0.1"
     clip-path="url(#clip7403)"
     d="M 430.315,671.677 V 361.811"
     id="polyline122"
     inkscape:connector-curvature="0"
     transform="translate(21.36232,-1.7380046)" />
  <path
     style="fill:none;stroke:#000000;stroke-width:0.5;stroke-opacity:0.1"
     clip-path="url(#clip7403)"
     d="M 30.8018,671.677 H 430.315"
     id="polyline124"
     inkscape:connector-curvature="0"
     transform="translate(21.36232,-1.7380046)" />
  <path
     style="fill:none;stroke:#000000;stroke-width:0.5;stroke-opacity:0.1"
     clip-path="url(#clip7403)"
     d="M 30.8018,617.425 H 430.315"
     id="polyline126"
     inkscape:connector-curvature="0"
     transform="translate(21.36232,-1.7380046)" />
  <path
     style="fill:none;stroke:#000000;stroke-width:0.5;stroke-opacity:0.1"
     clip-path="url(#clip7403)"
     d="M 30.8018,563.174 H 430.315"
     id="polyline128"
     inkscape:connector-curvature="0"
     transform="translate(21.36232,-1.7380046)" />
  <path
     style="fill:none;stroke:#000000;stroke-width:0.5;stroke-opacity:0.1"
     clip-path="url(#clip7403)"
     d="M 30.8018,508.922 H 430.315"
     id="polyline130"
     inkscape:connector-curvature="0"
     transform="translate(21.36232,-1.7380046)" />
  <path
     style="fill:none;stroke:#000000;stroke-width:0.5;stroke-opacity:0.1"
     clip-path="url(#clip7403)"
     d="M 30.8018,454.67 H 430.315"
     id="polyline132"
     inkscape:connector-curvature="0"
     transform="translate(21.36232,-1.7380046)" />
  <path
     style="fill:none;stroke:#000000;stroke-width:0.5;stroke-opacity:0.1"
     clip-path="url(#clip7403)"
     d="M 30.8018,400.419 H 430.315"
     id="polyline134"
     inkscape:connector-curvature="0"
     transform="translate(21.36232,-1.7380046)" />
  <path
     style="fill:none;stroke:#000000;stroke-width:1;stroke-opacity:1"
     clip-path="url(#clip7400)"
     d="M 30.8018,671.677 H 430.315"
     id="polyline136"
     inkscape:connector-curvature="0"
     transform="translate(21.36232,-1.7380046)" />
  <path
     style="fill:none;stroke:#000000;stroke-width:1;stroke-opacity:1"
     clip-path="url(#clip7400)"
     d="M 30.8018,671.677 V 361.811"
     id="polyline138"
     inkscape:connector-curvature="0"
     transform="translate(21.36232,-1.7380046)" />
  <path
     style="fill:none;stroke:#000000;stroke-width:1;stroke-opacity:1"
     clip-path="url(#clip7400)"
     d="m 30.8018,671.677 v -4.648"
     id="polyline140"
     inkscape:connector-curvature="0"
     transform="translate(21.36232,-1.7380046)" />
  <path
     style="fill:none;stroke:#000000;stroke-width:1;stroke-opacity:1"
     clip-path="url(#clip7400)"
     d="m 130.68,671.677 v -4.648"
     id="polyline142"
     inkscape:connector-curvature="0"
     transform="translate(21.36232,-1.7380046)" />
  <path
     style="fill:none;stroke:#000000;stroke-width:1;stroke-opacity:1"
     clip-path="url(#clip7400)"
     d="m 230.558,671.677 v -4.648"
     id="polyline144"
     inkscape:connector-curvature="0"
     transform="translate(21.36232,-1.7380046)" />
  <path
     style="fill:none;stroke:#000000;stroke-width:1;stroke-opacity:1"
     clip-path="url(#clip7400)"
     d="m 330.437,671.677 v -4.648"
     id="polyline146"
     inkscape:connector-curvature="0"
     transform="translate(21.36232,-1.7380046)" />
  <path
     style="fill:none;stroke:#000000;stroke-width:1;stroke-opacity:1"
     clip-path="url(#clip7400)"
     d="m 430.315,671.677 v -4.648"
     id="polyline148"
     inkscape:connector-curvature="0"
     transform="translate(21.36232,-1.7380046)" />
  <path
     style="fill:none;stroke:#000000;stroke-width:1;stroke-opacity:1"
     clip-path="url(#clip7400)"
     d="m 30.8018,671.677 h 5.9927"
     id="polyline150"
     inkscape:connector-curvature="0"
     transform="translate(21.36232,-1.7380046)" />
  <path
     style="fill:none;stroke:#000000;stroke-width:1;stroke-opacity:1"
     clip-path="url(#clip7400)"
     d="m 30.8018,617.425 h 5.9927"
     id="polyline152"
     inkscape:connector-curvature="0"
     transform="translate(21.36232,-1.7380046)" />
  <path
     style="fill:none;stroke:#000000;stroke-width:1;stroke-opacity:1"
     clip-path="url(#clip7400)"
     d="m 30.8018,563.174 h 5.9927"
     id="polyline154"
     inkscape:connector-curvature="0"
     transform="translate(21.36232,-1.7380046)" />
  <path
     style="fill:none;stroke:#000000;stroke-width:1;stroke-opacity:1"
     clip-path="url(#clip7400)"
     d="m 30.8018,508.922 h 5.9927"
     id="polyline156"
     inkscape:connector-curvature="0"
     transform="translate(21.36232,-1.7380046)" />
  <path
     style="fill:none;stroke:#000000;stroke-width:1;stroke-opacity:1"
     clip-path="url(#clip7400)"
     d="m 30.8018,454.67 h 5.9927"
     id="polyline158"
     inkscape:connector-curvature="0"
     transform="translate(21.36232,-1.7380046)" />
  <path
     style="fill:none;stroke:#000000;stroke-width:1;stroke-opacity:1"
     clip-path="url(#clip7400)"
     d="m 30.8018,400.419 h 5.9927"
     id="polyline160"
     inkscape:connector-curvature="0"
     transform="translate(21.36232,-1.7380046)" />
  <g
     clip-path="url(#clip7400)"
     id="g164"
     transform="translate(21.36232,-1.7380046)">
    <g
       aria-label="-50"
       style="font-size:12px;font-family:Arial, 'Helvetica Neue', Helvetica, sans-serif;text-anchor:middle;fill:#000000;fill-opacity:1"
       id="text162">
      <path
         d="m 22.651409,683.25824 v -0.9375 h 2.929688 v 0.9375 z"
         style="font-size:12px;font-family:Arial, 'Helvetica Neue', Helvetica, sans-serif;text-anchor:middle;fill:#000000;fill-opacity:1"
         id="path1127"
         inkscape:connector-curvature="0" />
      <path
         d="m 32.29594,683.28754 q 0,0.62109 -0.1875,1.13672 -0.1875,0.51562 -0.55664,0.89062 -0.369141,0.36914 -0.919922,0.57422 -0.544922,0.20508 -1.265625,0.20508 -0.650391,0 -1.136719,-0.15235 -0.480469,-0.15234 -0.814453,-0.41601 -0.333984,-0.26953 -0.533203,-0.62696 -0.193359,-0.35742 -0.275391,-0.76757 l 1.066407,-0.12305 q 0.06445,0.23437 0.18164,0.45703 0.117188,0.2168 0.316406,0.39258 0.205079,0.16992 0.498047,0.27539 0.298828,0.0996 0.720703,0.0996 0.410157,0 0.744141,-0.12305 0.333984,-0.1289 0.568359,-0.375 0.240235,-0.24609 0.369141,-0.60351 0.128906,-0.35743 0.128906,-0.82032 0,-0.38086 -0.123047,-0.69726 -0.123046,-0.32227 -0.351562,-0.55078 -0.228516,-0.23438 -0.5625,-0.36328 -0.328125,-0.12891 -0.75,-0.12891 -0.263672,0 -0.486328,0.0469 -0.222656,0.0469 -0.416016,0.12891 -0.1875,0.082 -0.345703,0.19336 -0.152344,0.10547 -0.287109,0.22266 h -1.03125 l 0.27539,-4.44141 h 4.69336 v 0.89648 H 28.08305 l -0.158203,2.61915 q 0.28125,-0.2168 0.703125,-0.36915 0.421875,-0.1582 1.001953,-0.1582 0.615234,0 1.107422,0.1875 0.492187,0.1875 0.83789,0.5332 0.345703,0.33985 0.533203,0.81446 0.1875,0.47461 0.1875,1.04297 z"
         style="font-size:12px;font-family:Arial, 'Helvetica Neue', Helvetica, sans-serif;text-anchor:middle;fill:#000000;fill-opacity:1"
         id="path1129"
         inkscape:connector-curvature="0" />
      <path
         d="m 39.010784,681.84613 q 0,1.18945 -0.228515,2.00391 -0.222657,0.80859 -0.615235,1.3125 -0.386719,0.49804 -0.914062,0.71484 -0.527344,0.2168 -1.125,0.2168 -0.603516,0 -1.125,-0.2168 -0.521485,-0.2168 -0.908203,-0.71484 -0.38086,-0.49805 -0.603516,-1.30664 -0.216797,-0.81446 -0.216797,-2.00977 0,-1.24805 0.216797,-2.0625 0.222656,-0.82031 0.609375,-1.30664 0.386719,-0.48633 0.914062,-0.67969 0.527344,-0.19922 1.148438,-0.19922 0.591797,0 1.107422,0.19922 0.521484,0.19336 0.908203,0.67969 0.386719,0.48633 0.609375,1.30664 0.222656,0.81445 0.222656,2.0625 z m -1.072265,0 q 0,-0.98437 -0.117188,-1.63477 -0.117187,-0.65625 -0.345703,-1.04296 -0.228516,-0.39258 -0.5625,-0.55079 -0.328125,-0.16406 -0.75,-0.16406 -0.445313,0 -0.785156,0.16406 -0.339844,0.16407 -0.574219,0.55665 -0.228516,0.38671 -0.345703,1.04296 -0.117188,0.65039 -0.117188,1.62891 0,0.94922 0.117188,1.59961 0.123047,0.65039 0.351562,1.04883 0.234375,0.39258 0.56836,0.56836 0.333984,0.16992 0.761718,0.16992 0.416016,0 0.75,-0.16992 0.333985,-0.17578 0.5625,-0.56836 0.234375,-0.39844 0.357422,-1.04883 0.128907,-0.65039 0.128907,-1.59961 z"
         style="font-size:12px;font-family:Arial, 'Helvetica Neue', Helvetica, sans-serif;text-anchor:middle;fill:#000000;fill-opacity:1"
         id="path1131"
         inkscape:connector-curvature="0" />
    </g>
  </g>
  <g
     clip-path="url(#clip7400)"
     id="g168"
     transform="translate(21.36232,-1.7380046)">
    <g
       aria-label="-25"
       style="font-size:12px;font-family:Arial, 'Helvetica Neue', Helvetica, sans-serif;text-anchor:middle;fill:#000000;fill-opacity:1"
       id="text166">
      <path
         d="m 122.5296,683.25824 v -0.9375 h 2.92969 v 0.9375 z"
         style="font-size:12px;font-family:Arial, 'Helvetica Neue', Helvetica, sans-serif;text-anchor:middle;fill:#000000;fill-opacity:1"
         id="path1120"
         inkscape:connector-curvature="0" />
      <path
         d="m 126.60773,685.97699 v -0.74414 q 0.29883,-0.68555 0.72656,-1.20703 0.43359,-0.52735 0.9082,-0.94922 0.47461,-0.42774 0.9375,-0.79102 0.46875,-0.36328 0.84375,-0.72656 0.375,-0.36328 0.60352,-0.76172 0.23437,-0.39844 0.23437,-0.90234 0,-0.35156 -0.10547,-0.61524 -0.10546,-0.26953 -0.30468,-0.45117 -0.19922,-0.18164 -0.48047,-0.26953 -0.27539,-0.0937 -0.61524,-0.0937 -0.3164,0 -0.59765,0.0879 -0.27539,0.0879 -0.49219,0.26367 -0.2168,0.17578 -0.35742,0.43946 -0.13477,0.25781 -0.17578,0.60351 l -1.07813,-0.0996 q 0.0527,-0.44531 0.2461,-0.83789 0.19336,-0.39258 0.5332,-0.68554 0.33984,-0.29883 0.81445,-0.46875 0.48047,-0.16993 1.10742,-0.16993 0.61524,0 1.09571,0.14649 0.48047,0.14648 0.80859,0.43359 0.33399,0.28711 0.50977,0.70899 0.17578,0.42187 0.17578,0.97265 0,0.41602 -0.15235,0.79102 -0.14648,0.375 -0.39843,0.71484 -0.2461,0.33985 -0.57422,0.65625 -0.32813,0.31641 -0.68555,0.6211 -0.35742,0.29882 -0.7207,0.59765 -0.36328,0.29297 -0.68555,0.5918 -0.31641,0.29883 -0.56836,0.60937 -0.25195,0.30469 -0.39258,0.63868 h 4.30664 v 0.89648 z"
         style="font-size:12px;font-family:Arial, 'Helvetica Neue', Helvetica, sans-serif;text-anchor:middle;fill:#000000;fill-opacity:1"
         id="path1122"
         inkscape:connector-curvature="0" />
      <path
         d="m 138.85382,683.28754 q 0,0.62109 -0.1875,1.13672 -0.1875,0.51562 -0.55664,0.89062 -0.36914,0.36914 -0.91992,0.57422 -0.54492,0.20508 -1.26563,0.20508 -0.65039,0 -1.13672,-0.15235 -0.48046,-0.15234 -0.81445,-0.41601 -0.33398,-0.26953 -0.5332,-0.62696 -0.19336,-0.35742 -0.27539,-0.76757 l 1.0664,-0.12305 q 0.0645,0.23437 0.18164,0.45703 0.11719,0.2168 0.31641,0.39258 0.20508,0.16992 0.49805,0.27539 0.29883,0.0996 0.7207,0.0996 0.41016,0 0.74414,-0.12305 0.33399,-0.1289 0.56836,-0.375 0.24024,-0.24609 0.36914,-0.60351 0.12891,-0.35743 0.12891,-0.82032 0,-0.38086 -0.12305,-0.69726 -0.12305,-0.32227 -0.35156,-0.55078 -0.22852,-0.23438 -0.5625,-0.36328 -0.32813,-0.12891 -0.75,-0.12891 -0.26367,0 -0.48633,0.0469 -0.22266,0.0469 -0.41602,0.12891 -0.1875,0.082 -0.3457,0.19336 -0.15234,0.10547 -0.28711,0.22266 h -1.03125 l 0.27539,-4.44141 h 4.69336 v 0.89648 h -3.73242 l -0.1582,2.61915 q 0.28125,-0.2168 0.70312,-0.36915 0.42188,-0.1582 1.00196,-0.1582 0.61523,0 1.10742,0.1875 0.49218,0.1875 0.83789,0.5332 0.3457,0.33985 0.5332,0.81446 0.1875,0.47461 0.1875,1.04297 z"
         style="font-size:12px;font-family:Arial, 'Helvetica Neue', Helvetica, sans-serif;text-anchor:middle;fill:#000000;fill-opacity:1"
         id="path1124"
         inkscape:connector-curvature="0" />
    </g>
  </g>
  <g
     clip-path="url(#clip7400)"
     id="g172"
     transform="translate(21.36232,-1.7380046)">
    <g
       aria-label="0"
       style="font-size:12px;font-family:Arial, 'Helvetica Neue', Helvetica, sans-serif;text-anchor:middle;fill:#000000;fill-opacity:1"
       id="text170">
      <path
         d="m 233.42323,681.84613 q 0,1.18945 -0.22851,2.00391 -0.22266,0.80859 -0.61524,1.3125 -0.38672,0.49804 -0.91406,0.71484 -0.52734,0.2168 -1.125,0.2168 -0.60352,0 -1.125,-0.2168 -0.52148,-0.2168 -0.9082,-0.71484 -0.38086,-0.49805 -0.60352,-1.30664 -0.2168,-0.81446 -0.2168,-2.00977 0,-1.24805 0.2168,-2.0625 0.22266,-0.82031 0.60938,-1.30664 0.38672,-0.48633 0.91406,-0.67969 0.52734,-0.19922 1.14844,-0.19922 0.59179,0 1.10742,0.19922 0.52148,0.19336 0.9082,0.67969 0.38672,0.48633 0.60938,1.30664 0.22265,0.81445 0.22265,2.0625 z m -1.07226,0 q 0,-0.98437 -0.11719,-1.63477 -0.11719,-0.65625 -0.3457,-1.04296 -0.22852,-0.39258 -0.5625,-0.55079 -0.32813,-0.16406 -0.75,-0.16406 -0.44532,0 -0.78516,0.16406 -0.33984,0.16407 -0.57422,0.55665 -0.22851,0.38671 -0.3457,1.04296 -0.11719,0.65039 -0.11719,1.62891 0,0.94922 0.11719,1.59961 0.12305,0.65039 0.35156,1.04883 0.23438,0.39258 0.56836,0.56836 0.33398,0.16992 0.76172,0.16992 0.41601,0 0.75,-0.16992 0.33398,-0.17578 0.5625,-0.56836 0.23437,-0.39844 0.35742,-1.04883 0.12891,-0.65039 0.12891,-1.59961 z"
         style="font-size:12px;font-family:Arial, 'Helvetica Neue', Helvetica, sans-serif;text-anchor:middle;fill:#000000;fill-opacity:1"
         id="path1117"
         inkscape:connector-curvature="0" />
    </g>
  </g>
  <g
     clip-path="url(#clip7400)"
     id="g176"
     transform="translate(21.36232,-1.7380046)">
    <g
       aria-label="25"
       style="font-size:12px;font-family:Arial, 'Helvetica Neue', Helvetica, sans-serif;text-anchor:middle;fill:#000000;fill-opacity:1"
       id="text174">
      <path
         d="m 324.36084,685.97699 v -0.74414 q 0.29883,-0.68555 0.72656,-1.20703 0.4336,-0.52735 0.90821,-0.94922 0.4746,-0.42774 0.9375,-0.79102 0.46875,-0.36328 0.84375,-0.72656 0.375,-0.36328 0.60351,-0.76172 0.23438,-0.39844 0.23438,-0.90234 0,-0.35156 -0.10547,-0.61524 -0.10547,-0.26953 -0.30469,-0.45117 -0.19922,-0.18164 -0.48047,-0.26953 -0.27539,-0.0937 -0.61523,-0.0937 -0.31641,0 -0.59766,0.0879 -0.27539,0.0879 -0.49219,0.26367 -0.21679,0.17578 -0.35742,0.43946 -0.13476,0.25781 -0.17578,0.60351 l -1.07813,-0.0996 q 0.0527,-0.44531 0.2461,-0.83789 0.19336,-0.39258 0.5332,-0.68554 0.33985,-0.29883 0.81445,-0.46875 0.48047,-0.16993 1.10743,-0.16993 0.61523,0 1.0957,0.14649 0.48047,0.14648 0.80859,0.43359 0.33399,0.28711 0.50977,0.70899 0.17578,0.42187 0.17578,0.97265 0,0.41602 -0.15234,0.79102 -0.14649,0.375 -0.39844,0.71484 -0.24609,0.33985 -0.57422,0.65625 -0.32812,0.31641 -0.68555,0.6211 -0.35742,0.29882 -0.7207,0.59765 -0.36328,0.29297 -0.68555,0.5918 -0.3164,0.29883 -0.56836,0.60937 -0.25195,0.30469 -0.39257,0.63868 h 4.30664 v 0.89648 z"
         style="font-size:12px;font-family:Arial, 'Helvetica Neue', Helvetica, sans-serif;text-anchor:middle;fill:#000000;fill-opacity:1"
         id="path1112"
         inkscape:connector-curvature="0" />
      <path
         d="m 336.60693,683.28754 q 0,0.62109 -0.1875,1.13672 -0.1875,0.51562 -0.55664,0.89062 -0.36914,0.36914 -0.91992,0.57422 -0.54492,0.20508 -1.26562,0.20508 -0.65039,0 -1.13672,-0.15235 -0.48047,-0.15234 -0.81446,-0.41601 -0.33398,-0.26953 -0.5332,-0.62696 -0.19336,-0.35742 -0.27539,-0.76757 l 1.06641,-0.12305 q 0.0645,0.23437 0.18164,0.45703 0.11718,0.2168 0.3164,0.39258 0.20508,0.16992 0.49805,0.27539 0.29883,0.0996 0.7207,0.0996 0.41016,0 0.74414,-0.12305 0.33399,-0.1289 0.56836,-0.375 0.24024,-0.24609 0.36914,-0.60351 0.12891,-0.35743 0.12891,-0.82032 0,-0.38086 -0.12305,-0.69726 -0.12304,-0.32227 -0.35156,-0.55078 -0.22851,-0.23438 -0.5625,-0.36328 -0.32812,-0.12891 -0.75,-0.12891 -0.26367,0 -0.48633,0.0469 -0.22265,0.0469 -0.41601,0.12891 -0.1875,0.082 -0.34571,0.19336 -0.15234,0.10547 -0.28711,0.22266 h -1.03125 l 0.2754,-4.44141 h 4.69335 v 0.89648 h -3.73242 l -0.1582,2.61915 q 0.28125,-0.2168 0.70312,-0.36915 0.42188,-0.1582 1.00196,-0.1582 0.61523,0 1.10742,0.1875 0.49219,0.1875 0.83789,0.5332 0.3457,0.33985 0.5332,0.81446 0.1875,0.47461 0.1875,1.04297 z"
         style="font-size:12px;font-family:Arial, 'Helvetica Neue', Helvetica, sans-serif;text-anchor:middle;fill:#000000;fill-opacity:1"
         id="path1114"
         inkscape:connector-curvature="0" />
    </g>
  </g>
  <g
     clip-path="url(#clip7400)"
     id="g180"
     transform="translate(21.36232,-1.7380046)">
    <g
       aria-label="50"
       style="font-size:12px;font-family:Arial, 'Helvetica Neue', Helvetica, sans-serif;text-anchor:middle;fill:#000000;fill-opacity:1"
       id="text178">
      <path
         d="m 429.80524,683.28754 q 0,0.62109 -0.1875,1.13672 -0.1875,0.51562 -0.55664,0.89062 -0.36914,0.36914 -0.91993,0.57422 -0.54492,0.20508 -1.26562,0.20508 -0.65039,0 -1.13672,-0.15235 -0.48047,-0.15234 -0.81445,-0.41601 -0.33399,-0.26953 -0.53321,-0.62696 -0.19336,-0.35742 -0.27539,-0.76757 l 1.06641,-0.12305 q 0.0645,0.23437 0.18164,0.45703 0.11719,0.2168 0.31641,0.39258 0.20507,0.16992 0.49804,0.27539 0.29883,0.0996 0.72071,0.0996 0.41015,0 0.74414,-0.12305 0.33398,-0.1289 0.56836,-0.375 0.24023,-0.24609 0.36914,-0.60351 0.1289,-0.35743 0.1289,-0.82032 0,-0.38086 -0.12304,-0.69726 -0.12305,-0.32227 -0.35157,-0.55078 -0.22851,-0.23438 -0.5625,-0.36328 -0.32812,-0.12891 -0.75,-0.12891 -0.26367,0 -0.48632,0.0469 -0.22266,0.0469 -0.41602,0.12891 -0.1875,0.082 -0.3457,0.19336 -0.15235,0.10547 -0.28711,0.22266 h -1.03125 l 0.27539,-4.44141 h 4.69336 v 0.89648 h -3.73242 l -0.15821,2.61915 q 0.28125,-0.2168 0.70313,-0.36915 0.42187,-0.1582 1.00195,-0.1582 0.61524,0 1.10742,0.1875 0.49219,0.1875 0.83789,0.5332 0.34571,0.33985 0.53321,0.81446 0.1875,0.47461 0.1875,1.04297 z"
         style="font-size:12px;font-family:Arial, 'Helvetica Neue', Helvetica, sans-serif;text-anchor:middle;fill:#000000;fill-opacity:1"
         id="path1107"
         inkscape:connector-curvature="0" />
      <path
         d="m 436.52008,681.84613 q 0,1.18945 -0.22852,2.00391 -0.22265,0.80859 -0.61523,1.3125 -0.38672,0.49804 -0.91406,0.71484 -0.52735,0.2168 -1.125,0.2168 -0.60352,0 -1.125,-0.2168 -0.52149,-0.2168 -0.90821,-0.71484 -0.38085,-0.49805 -0.60351,-1.30664 -0.2168,-0.81446 -0.2168,-2.00977 0,-1.24805 0.2168,-2.0625 0.22266,-0.82031 0.60937,-1.30664 0.38672,-0.48633 0.91407,-0.67969 0.52734,-0.19922 1.14843,-0.19922 0.5918,0 1.10743,0.19922 0.52148,0.19336 0.9082,0.67969 0.38672,0.48633 0.60937,1.30664 0.22266,0.81445 0.22266,2.0625 z m -1.07227,0 q 0,-0.98437 -0.11718,-1.63477 -0.11719,-0.65625 -0.34571,-1.04296 -0.22851,-0.39258 -0.5625,-0.55079 -0.32812,-0.16406 -0.75,-0.16406 -0.44531,0 -0.78515,0.16406 -0.33985,0.16407 -0.57422,0.55665 -0.22852,0.38671 -0.3457,1.04296 -0.11719,0.65039 -0.11719,1.62891 0,0.94922 0.11719,1.59961 0.12304,0.65039 0.35156,1.04883 0.23437,0.39258 0.56836,0.56836 0.33398,0.16992 0.76172,0.16992 0.41601,0 0.75,-0.16992 0.33398,-0.17578 0.5625,-0.56836 0.23437,-0.39844 0.35742,-1.04883 0.1289,-0.65039 0.1289,-1.59961 z"
         style="font-size:12px;font-family:Arial, 'Helvetica Neue', Helvetica, sans-serif;text-anchor:middle;fill:#000000;fill-opacity:1"
         id="path1109"
         inkscape:connector-curvature="0" />
    </g>
  </g>
  <g
     clip-path="url(#clip7400)"
     id="g184"
     transform="translate(21.36232,-1.7380046)">
    <g
       aria-label="0.0"
       style="font-size:12px;font-family:Arial, 'Helvetica Neue', Helvetica, sans-serif;text-anchor:end;fill:#000000;fill-opacity:1"
       id="text182">
      <path
         d="m 13.319378,672.04614 q 0,1.18946 -0.228516,2.00391 -0.222656,0.80859 -0.615234,1.3125 -0.386719,0.49805 -0.914063,0.71484 -0.527343,0.2168 -1.125,0.2168 -0.6035152,0 -1.1249996,-0.2168 -0.5214844,-0.21679 -0.9082031,-0.71484 -0.3808594,-0.49805 -0.6035157,-1.30664 -0.2167968,-0.81445 -0.2167968,-2.00977 0,-1.24804 0.2167968,-2.0625 0.2226563,-0.82031 0.609375,-1.30664 0.3867188,-0.48633 0.9140625,-0.67969 0.5273438,-0.19921 1.1484379,-0.19921 0.591797,0 1.107422,0.19921 0.521484,0.19336 0.908203,0.67969 0.386718,0.48633 0.609375,1.30664 0.222656,0.81446 0.222656,2.0625 z m -1.072266,0 q 0,-0.98437 -0.117187,-1.63476 -0.117188,-0.65625 -0.345703,-1.04297 -0.228516,-0.39258 -0.5625,-0.55078 -0.328125,-0.16407 -0.75,-0.16407 -0.445313,0 -0.7851566,0.16407 -0.3398438,0.16406 -0.5742188,0.55664 -0.2285156,0.38672 -0.3457031,1.04297 -0.1171875,0.65039 -0.1171875,1.6289 0,0.94922 0.1171875,1.59961 0.1230469,0.65039 0.3515625,1.04883 0.234375,0.39258 0.5683594,0.56836 0.3339846,0.16992 0.7617186,0.16992 0.416016,0 0.75,-0.16992 0.333985,-0.17578 0.5625,-0.56836 0.234375,-0.39844 0.357422,-1.04883 0.128906,-0.65039 0.128906,-1.59961 z"
         style="font-size:12px;font-family:Arial, 'Helvetica Neue', Helvetica, sans-serif;text-anchor:end;fill:#000000;fill-opacity:1"
         id="path1100"
         inkscape:connector-curvature="0" />
      <path
         d="m 14.88969,676.177 v -1.2832 h 1.142579 v 1.2832 z"
         style="font-size:12px;font-family:Arial, 'Helvetica Neue', Helvetica, sans-serif;text-anchor:end;fill:#000000;fill-opacity:1"
         id="path1102"
         inkscape:connector-curvature="0" />
      <path
         d="m 23.32719,672.04614 q 0,1.18946 -0.228515,2.00391 -0.222656,0.80859 -0.615235,1.3125 -0.386718,0.49805 -0.914062,0.71484 -0.527344,0.2168 -1.125,0.2168 -0.603516,0 -1.125,-0.2168 -0.521484,-0.21679 -0.908203,-0.71484 -0.38086,-0.49805 -0.603516,-1.30664 -0.216797,-0.81445 -0.216797,-2.00977 0,-1.24804 0.216797,-2.0625 0.222656,-0.82031 0.609375,-1.30664 0.386719,-0.48633 0.914063,-0.67969 0.527343,-0.19921 1.148437,-0.19921 0.591797,0 1.107422,0.19921 0.521484,0.19336 0.908203,0.67969 0.386719,0.48633 0.609375,1.30664 0.222656,0.81446 0.222656,2.0625 z m -1.072265,0 q 0,-0.98437 -0.117188,-1.63476 -0.117187,-0.65625 -0.345703,-1.04297 -0.228515,-0.39258 -0.5625,-0.55078 -0.328125,-0.16407 -0.75,-0.16407 -0.445312,0 -0.785156,0.16407 -0.339844,0.16406 -0.574219,0.55664 -0.228515,0.38672 -0.345703,1.04297 -0.117187,0.65039 -0.117187,1.6289 0,0.94922 0.117187,1.59961 0.123047,0.65039 0.351563,1.04883 0.234375,0.39258 0.568359,0.56836 0.333984,0.16992 0.761719,0.16992 0.416015,0 0.75,-0.16992 0.333984,-0.17578 0.5625,-0.56836 0.234375,-0.39844 0.357422,-1.04883 0.128906,-0.65039 0.128906,-1.59961 z"
         style="font-size:12px;font-family:Arial, 'Helvetica Neue', Helvetica, sans-serif;text-anchor:end;fill:#000000;fill-opacity:1"
         id="path1104"
         inkscape:connector-curvature="0" />
    </g>
  </g>
  <g
     clip-path="url(#clip7400)"
     id="g188"
     transform="translate(21.36232,-1.7380046)">
    <g
       aria-label="2.5"
       style="font-size:12px;font-family:Arial, 'Helvetica Neue', Helvetica, sans-serif;text-anchor:end;fill:#000000;fill-opacity:1"
       id="text186">
      <path
         d="m 7.7178154,621.92499 v -0.74414 q 0.2988281,-0.68555 0.7265625,-1.20703 0.4335937,-0.52735 0.9082031,-0.94922 0.4746094,-0.42774 0.9375,-0.79102 0.46875,-0.36328 0.84375,-0.72656 0.375,-0.36328 0.603516,-0.76172 0.234375,-0.39844 0.234375,-0.90234 0,-0.35157 -0.105469,-0.61524 -0.105469,-0.26953 -0.304688,-0.45117 -0.199218,-0.18164 -0.480468,-0.26953 -0.275391,-0.0937 -0.615235,-0.0937 -0.316406,0 -0.597656,0.0879 -0.2753906,0.0879 -0.4921875,0.26367 -0.2167969,0.17578 -0.3574219,0.43945 -0.1347656,0.25782 -0.1757812,0.60352 l -1.078125,-0.0996 q 0.052734,-0.44531 0.2460937,-0.83789 0.1933594,-0.39258 0.5332032,-0.68555 0.3398437,-0.29882 0.8144531,-0.46875 0.4804687,-0.16992 1.1074216,-0.16992 0.615235,0 1.095703,0.14649 0.480469,0.14648 0.808594,0.43359 0.333985,0.28711 0.509766,0.70898 0.175781,0.42188 0.175781,0.97266 0,0.41602 -0.152344,0.79102 -0.146484,0.375 -0.398437,0.71484 -0.246094,0.33984 -0.574219,0.65625 -0.328125,0.31641 -0.685547,0.62109 -0.357422,0.29883 -0.720703,0.59766 -0.363281,0.29297 -0.6855469,0.5918 -0.3164062,0.29882 -0.5683593,0.60937 -0.2519532,0.30469 -0.3925782,0.63867 h 4.3066404 v 0.89649 z"
         style="font-size:12px;font-family:Arial, 'Helvetica Neue', Helvetica, sans-serif;text-anchor:end;fill:#000000;fill-opacity:1"
         id="path1093"
         inkscape:connector-curvature="0" />
      <path
         d="m 14.88969,621.92499 v -1.28321 h 1.142579 v 1.28321 z"
         style="font-size:12px;font-family:Arial, 'Helvetica Neue', Helvetica, sans-serif;text-anchor:end;fill:#000000;fill-opacity:1"
         id="path1095"
         inkscape:connector-curvature="0" />
      <path
         d="m 23.292034,619.23553 q 0,0.6211 -0.1875,1.13672 -0.1875,0.51563 -0.55664,0.89063 -0.369141,0.36914 -0.919922,0.57422 -0.544922,0.20508 -1.265625,0.20508 -0.650391,0 -1.136719,-0.15235 -0.480469,-0.15234 -0.814453,-0.41601 -0.333985,-0.26954 -0.533203,-0.62696 -0.19336,-0.35742 -0.275391,-0.76758 l 1.066406,-0.12304 q 0.06445,0.23437 0.181641,0.45703 0.117187,0.2168 0.316406,0.39258 0.205078,0.16992 0.498047,0.27539 0.298828,0.0996 0.720703,0.0996 0.410156,0 0.744141,-0.12305 0.333984,-0.12891 0.568359,-0.375 0.240235,-0.24609 0.369141,-0.60352 0.128906,-0.35742 0.128906,-0.82031 0,-0.38086 -0.123047,-0.69726 -0.123047,-0.32227 -0.351562,-0.55078 -0.228516,-0.23438 -0.5625,-0.36329 -0.328125,-0.1289 -0.75,-0.1289 -0.263672,0 -0.486328,0.0469 -0.222657,0.0469 -0.416016,0.12891 -0.1875,0.082 -0.345703,0.19336 -0.152344,0.10547 -0.28711,0.22265 h -1.03125 l 0.275391,-4.4414 h 4.693359 v 0.89648 h -3.732421 l -0.158204,2.61914 q 0.28125,-0.21679 0.703125,-0.36914 0.421875,-0.1582 1.001954,-0.1582 0.615234,0 1.107421,0.1875 0.492188,0.1875 0.837891,0.5332 0.345703,0.33985 0.533203,0.81446 0.1875,0.47461 0.1875,1.04296 z"
         style="font-size:12px;font-family:Arial, 'Helvetica Neue', Helvetica, sans-serif;text-anchor:end;fill:#000000;fill-opacity:1"
         id="path1097"
         inkscape:connector-curvature="0" />
    </g>
  </g>
  <g
     clip-path="url(#clip7400)"
     id="g192"
     transform="translate(21.36232,-1.7380046)">
    <g
       aria-label="5.0"
       style="font-size:12px;font-family:Arial, 'Helvetica Neue', Helvetica, sans-serif;text-anchor:end;fill:#000000;fill-opacity:1"
       id="text190">
      <path
         d="m 13.284222,564.98456 q 0,0.62109 -0.1875,1.13672 -0.1875,0.51562 -0.556641,0.89062 -0.369141,0.36914 -0.919922,0.57422 -0.544922,0.20508 -1.265625,0.20508 -0.6503905,0 -1.1367186,-0.15235 -0.4804688,-0.15234 -0.8144531,-0.41601 -0.3339844,-0.26953 -0.5332032,-0.62695 -0.1933593,-0.35743 -0.2753906,-0.76758 l 1.0664063,-0.12305 q 0.064453,0.23438 0.1816406,0.45703 0.1171875,0.2168 0.3164062,0.39258 0.2050782,0.16992 0.4980469,0.27539 0.2988281,0.0996 0.7207035,0.0996 0.410156,0 0.74414,-0.12305 0.333985,-0.1289 0.56836,-0.375 0.240234,-0.24609 0.36914,-0.60351 0.128907,-0.35742 0.128907,-0.82031 0,-0.38086 -0.123047,-0.69727 -0.123047,-0.32227 -0.351563,-0.55078 -0.228515,-0.23438 -0.5625,-0.36328 -0.328125,-0.12891 -0.75,-0.12891 -0.263672,0 -0.486328,0.0469 -0.2226562,0.0469 -0.4160156,0.1289 -0.1875,0.082 -0.3457031,0.19336 -0.1523438,0.10547 -0.2871094,0.22266 h -1.03125 l 0.2753906,-4.44141 h 4.6933595 v 0.89649 H 9.071331 l -0.1582031,2.61914 q 0.28125,-0.2168 0.703125,-0.36914 0.4218751,-0.15821 1.0019531,-0.15821 0.615234,0 1.107422,0.1875 0.492187,0.1875 0.837891,0.53321 0.345703,0.33984 0.533203,0.81445 0.1875,0.47461 0.1875,1.04297 z"
         style="font-size:12px;font-family:Arial, 'Helvetica Neue', Helvetica, sans-serif;text-anchor:end;fill:#000000;fill-opacity:1"
         id="path1086"
         inkscape:connector-curvature="0" />
      <path
         d="m 14.88969,567.67401 v -1.2832 h 1.142579 v 1.2832 z"
         style="font-size:12px;font-family:Arial, 'Helvetica Neue', Helvetica, sans-serif;text-anchor:end;fill:#000000;fill-opacity:1"
         id="path1088"
         inkscape:connector-curvature="0" />
      <path
         d="m 23.32719,563.54315 q 0,1.18945 -0.228515,2.00391 -0.222656,0.80859 -0.615235,1.3125 -0.386718,0.49804 -0.914062,0.71484 -0.527344,0.2168 -1.125,0.2168 -0.603516,0 -1.125,-0.2168 -0.521484,-0.2168 -0.908203,-0.71484 -0.38086,-0.49805 -0.603516,-1.30664 -0.216797,-0.81446 -0.216797,-2.00977 0,-1.24805 0.216797,-2.0625 0.222656,-0.82031 0.609375,-1.30664 0.386719,-0.48633 0.914063,-0.67969 0.527343,-0.19922 1.148437,-0.19922 0.591797,0 1.107422,0.19922 0.521484,0.19336 0.908203,0.67969 0.386719,0.48633 0.609375,1.30664 0.222656,0.81445 0.222656,2.0625 z m -1.072265,0 q 0,-0.98437 -0.117188,-1.63476 -0.117187,-0.65625 -0.345703,-1.04297 -0.228515,-0.39258 -0.5625,-0.55078 -0.328125,-0.16407 -0.75,-0.16407 -0.445312,0 -0.785156,0.16407 -0.339844,0.16406 -0.574219,0.55664 -0.228515,0.38672 -0.345703,1.04297 -0.117187,0.65039 -0.117187,1.6289 0,0.94922 0.117187,1.59961 0.123047,0.65039 0.351563,1.04883 0.234375,0.39258 0.568359,0.56836 0.333984,0.16992 0.761719,0.16992 0.416015,0 0.75,-0.16992 0.333984,-0.17578 0.5625,-0.56836 0.234375,-0.39844 0.357422,-1.04883 0.128906,-0.65039 0.128906,-1.59961 z"
         style="font-size:12px;font-family:Arial, 'Helvetica Neue', Helvetica, sans-serif;text-anchor:end;fill:#000000;fill-opacity:1"
         id="path1090"
         inkscape:connector-curvature="0" />
    </g>
  </g>
  <g
     clip-path="url(#clip7400)"
     id="g196"
     transform="translate(21.36232,-1.7380046)">
    <g
       aria-label="7.5"
       style="font-size:12px;font-family:Arial, 'Helvetica Neue', Helvetica, sans-serif;text-anchor:end;fill:#000000;fill-opacity:1"
       id="text194">
      <path
         d="m 13.184612,506.02161 q -0.621093,0.94922 -1.142578,1.82812 -0.521484,0.87305 -0.896484,1.76367 -0.375,0.88477 -0.585938,1.82227 -0.205078,0.93164 -0.205078,1.98633 H 9.2529716 q 0,-0.99024 0.234375,-1.93946 0.234375,-0.95507 0.6328124,-1.86914 0.398438,-0.91992 0.925781,-1.80468 0.527344,-0.88477 1.119141,-1.7461 H 7.7295341 v -0.89648 h 5.4550779 z"
         style="font-size:12px;font-family:Arial, 'Helvetica Neue', Helvetica, sans-serif;text-anchor:end;fill:#000000;fill-opacity:1"
         id="path1079"
         inkscape:connector-curvature="0" />
      <path
         d="m 14.88969,513.422 v -1.28321 h 1.142579 v 1.28321 z"
         style="font-size:12px;font-family:Arial, 'Helvetica Neue', Helvetica, sans-serif;text-anchor:end;fill:#000000;fill-opacity:1"
         id="path1081"
         inkscape:connector-curvature="0" />
      <path
         d="m 23.292034,510.73254 q 0,0.6211 -0.1875,1.13672 -0.1875,0.51563 -0.55664,0.89063 -0.369141,0.36914 -0.919922,0.57422 -0.544922,0.20507 -1.265625,0.20507 -0.650391,0 -1.136719,-0.15234 -0.480469,-0.15234 -0.814453,-0.41601 -0.333985,-0.26954 -0.533203,-0.62696 -0.19336,-0.35742 -0.275391,-0.76758 l 1.066406,-0.12304 q 0.06445,0.23437 0.181641,0.45703 0.117187,0.2168 0.316406,0.39258 0.205078,0.16992 0.498047,0.27539 0.298828,0.0996 0.720703,0.0996 0.410156,0 0.744141,-0.12305 0.333984,-0.12891 0.568359,-0.375 0.240235,-0.24609 0.369141,-0.60352 0.128906,-0.35742 0.128906,-0.82031 0,-0.38086 -0.123047,-0.69726 -0.123047,-0.32227 -0.351562,-0.55079 -0.228516,-0.23437 -0.5625,-0.36328 -0.328125,-0.1289 -0.75,-0.1289 -0.263672,0 -0.486328,0.0469 -0.222657,0.0469 -0.416016,0.12891 -0.1875,0.082 -0.345703,0.19336 -0.152344,0.10547 -0.28711,0.22265 h -1.03125 l 0.275391,-4.4414 h 4.693359 v 0.89648 h -3.732421 l -0.158204,2.61914 q 0.28125,-0.21679 0.703125,-0.36914 0.421875,-0.1582 1.001954,-0.1582 0.615234,0 1.107421,0.1875 0.492188,0.1875 0.837891,0.5332 0.345703,0.33985 0.533203,0.81446 0.1875,0.4746 0.1875,1.04296 z"
         style="font-size:12px;font-family:Arial, 'Helvetica Neue', Helvetica, sans-serif;text-anchor:end;fill:#000000;fill-opacity:1"
         id="path1083"
         inkscape:connector-curvature="0" />
    </g>
  </g>
  <g
     clip-path="url(#clip7400)"
     id="g200"
     transform="translate(21.36232,-1.7380046)">
    <g
       aria-label="10.0"
       style="font-size:12px;font-family:Arial, 'Helvetica Neue', Helvetica, sans-serif;text-anchor:end;fill:#000000;fill-opacity:1"
       id="text198">
      <path
         d="m 1.3486748,459.17001 v -0.89648 h 2.1035156 v -6.35156 l -1.8632813,1.33007 v -0.99609 l 1.9511719,-1.3418 h 0.9726563 v 7.35938 h 2.0097656 v 0.89648 z"
         style="font-size:12px;font-family:Arial, 'Helvetica Neue', Helvetica, sans-serif;text-anchor:end;fill:#000000;fill-opacity:1"
         id="path1070"
         inkscape:connector-curvature="0" />
      <path
         d="m 13.319378,455.03915 q 0,1.18946 -0.228516,2.00391 -0.222656,0.80859 -0.615234,1.3125 -0.386719,0.49805 -0.914063,0.71484 -0.527343,0.2168 -1.125,0.2168 -0.6035152,0 -1.1249996,-0.2168 -0.5214844,-0.21679 -0.9082031,-0.71484 -0.3808594,-0.49805 -0.6035157,-1.30664 -0.2167968,-0.81445 -0.2167968,-2.00977 0,-1.24804 0.2167968,-2.0625 0.2226563,-0.82031 0.609375,-1.30664 0.3867188,-0.48632 0.9140625,-0.67968 0.5273438,-0.19922 1.1484379,-0.19922 0.591797,0 1.107422,0.19922 0.521484,0.19336 0.908203,0.67968 0.386718,0.48633 0.609375,1.30664 0.222656,0.81446 0.222656,2.0625 z m -1.072266,0 q 0,-0.98437 -0.117187,-1.63476 -0.117188,-0.65625 -0.345703,-1.04297 -0.228516,-0.39258 -0.5625,-0.55078 -0.328125,-0.16406 -0.75,-0.16406 -0.445313,0 -0.7851566,0.16406 -0.3398438,0.16406 -0.5742188,0.55664 -0.2285156,0.38672 -0.3457031,1.04297 -0.1171875,0.65039 -0.1171875,1.6289 0,0.94922 0.1171875,1.59961 0.1230469,0.65039 0.3515625,1.04883 0.234375,0.39258 0.5683594,0.56836 0.3339846,0.16992 0.7617186,0.16992 0.416016,0 0.75,-0.16992 0.333985,-0.17578 0.5625,-0.56836 0.234375,-0.39844 0.357422,-1.04883 0.128906,-0.65039 0.128906,-1.59961 z"
         style="font-size:12px;font-family:Arial, 'Helvetica Neue', Helvetica, sans-serif;text-anchor:end;fill:#000000;fill-opacity:1"
         id="path1072"
         inkscape:connector-curvature="0" />
      <path
         d="m 14.88969,459.17001 v -1.2832 h 1.142579 v 1.2832 z"
         style="font-size:12px;font-family:Arial, 'Helvetica Neue', Helvetica, sans-serif;text-anchor:end;fill:#000000;fill-opacity:1"
         id="path1074"
         inkscape:connector-curvature="0" />
      <path
         d="m 23.32719,455.03915 q 0,1.18946 -0.228515,2.00391 -0.222656,0.80859 -0.615235,1.3125 -0.386718,0.49805 -0.914062,0.71484 -0.527344,0.2168 -1.125,0.2168 -0.603516,0 -1.125,-0.2168 -0.521484,-0.21679 -0.908203,-0.71484 -0.38086,-0.49805 -0.603516,-1.30664 -0.216797,-0.81445 -0.216797,-2.00977 0,-1.24804 0.216797,-2.0625 0.222656,-0.82031 0.609375,-1.30664 0.386719,-0.48632 0.914063,-0.67968 0.527343,-0.19922 1.148437,-0.19922 0.591797,0 1.107422,0.19922 0.521484,0.19336 0.908203,0.67968 0.386719,0.48633 0.609375,1.30664 0.222656,0.81446 0.222656,2.0625 z m -1.072265,0 q 0,-0.98437 -0.117188,-1.63476 -0.117187,-0.65625 -0.345703,-1.04297 -0.228515,-0.39258 -0.5625,-0.55078 -0.328125,-0.16406 -0.75,-0.16406 -0.445312,0 -0.785156,0.16406 -0.339844,0.16406 -0.574219,0.55664 -0.228515,0.38672 -0.345703,1.04297 -0.117187,0.65039 -0.117187,1.6289 0,0.94922 0.117187,1.59961 0.123047,0.65039 0.351563,1.04883 0.234375,0.39258 0.568359,0.56836 0.333984,0.16992 0.761719,0.16992 0.416015,0 0.75,-0.16992 0.333984,-0.17578 0.5625,-0.56836 0.234375,-0.39844 0.357422,-1.04883 0.128906,-0.65039 0.128906,-1.59961 z"
         style="font-size:12px;font-family:Arial, 'Helvetica Neue', Helvetica, sans-serif;text-anchor:end;fill:#000000;fill-opacity:1"
         id="path1076"
         inkscape:connector-curvature="0" />
    </g>
  </g>
  <g
     clip-path="url(#clip7400)"
     id="g204"
     transform="translate(21.36232,-1.7380046)">
    <g
       aria-label="12.5"
       style="font-size:12px;font-family:Arial, 'Helvetica Neue', Helvetica, sans-serif;text-anchor:end;fill:#000000;fill-opacity:1"
       id="text202">
      <path
         d="m 1.3486748,404.91901 v -0.89649 h 2.1035156 v -6.35156 l -1.8632813,1.33008 v -0.9961 l 1.9511719,-1.34179 h 0.9726563 v 7.35937 h 2.0097656 v 0.89649 z"
         style="font-size:12px;font-family:Arial, 'Helvetica Neue', Helvetica, sans-serif;text-anchor:end;fill:#000000;fill-opacity:1"
         id="path1061"
         inkscape:connector-curvature="0" />
      <path
         d="m 7.7178154,404.91901 v -0.74414 q 0.2988281,-0.68555 0.7265625,-1.20704 0.4335937,-0.52734 0.9082031,-0.94921 0.4746094,-0.42774 0.9375,-0.79102 0.46875,-0.36328 0.84375,-0.72656 0.375,-0.36328 0.603516,-0.76172 0.234375,-0.39844 0.234375,-0.90234 0,-0.35157 -0.105469,-0.61524 -0.105469,-0.26953 -0.304688,-0.45117 -0.199218,-0.18164 -0.480468,-0.26953 -0.275391,-0.0937 -0.615235,-0.0937 -0.316406,0 -0.597656,0.0879 -0.2753906,0.0879 -0.4921875,0.26367 -0.2167969,0.17578 -0.3574219,0.43945 -0.1347656,0.25782 -0.1757812,0.60352 l -1.078125,-0.0996 q 0.052734,-0.44531 0.2460937,-0.83789 0.1933594,-0.39258 0.5332032,-0.68555 0.3398437,-0.29883 0.8144531,-0.46875 0.4804687,-0.16992 1.1074216,-0.16992 0.615235,0 1.095703,0.14648 0.480469,0.14649 0.808594,0.4336 0.333985,0.28711 0.509766,0.70898 0.175781,0.42188 0.175781,0.97266 0,0.41601 -0.152344,0.79101 -0.146484,0.375 -0.398437,0.71485 -0.246094,0.33984 -0.574219,0.65625 -0.328125,0.3164 -0.685547,0.62109 -0.357422,0.29883 -0.720703,0.59766 -0.363281,0.29297 -0.6855469,0.5918 -0.3164062,0.29882 -0.5683593,0.60937 -0.2519532,0.30469 -0.3925782,0.63867 h 4.3066404 v 0.89649 z"
         style="font-size:12px;font-family:Arial, 'Helvetica Neue', Helvetica, sans-serif;text-anchor:end;fill:#000000;fill-opacity:1"
         id="path1063"
         inkscape:connector-curvature="0" />
      <path
         d="m 14.88969,404.91901 v -1.28321 h 1.142579 v 1.28321 z"
         style="font-size:12px;font-family:Arial, 'Helvetica Neue', Helvetica, sans-serif;text-anchor:end;fill:#000000;fill-opacity:1"
         id="path1065"
         inkscape:connector-curvature="0" />
      <path
         d="m 23.292034,402.22955 q 0,0.6211 -0.1875,1.13672 -0.1875,0.51563 -0.55664,0.89063 -0.369141,0.36914 -0.919922,0.57422 -0.544922,0.20507 -1.265625,0.20507 -0.650391,0 -1.136719,-0.15234 -0.480469,-0.15234 -0.814453,-0.41602 -0.333985,-0.26953 -0.533203,-0.62695 -0.19336,-0.35742 -0.275391,-0.76758 l 1.066406,-0.12304 q 0.06445,0.23437 0.181641,0.45703 0.117187,0.21679 0.316406,0.39258 0.205078,0.16992 0.498047,0.27539 0.298828,0.0996 0.720703,0.0996 0.410156,0 0.744141,-0.12305 0.333984,-0.12891 0.568359,-0.375 0.240235,-0.24609 0.369141,-0.60352 0.128906,-0.35742 0.128906,-0.82031 0,-0.38086 -0.123047,-0.69726 -0.123047,-0.32227 -0.351562,-0.55079 -0.228516,-0.23437 -0.5625,-0.36328 -0.328125,-0.1289 -0.75,-0.1289 -0.263672,0 -0.486328,0.0469 -0.222657,0.0469 -0.416016,0.12891 -0.1875,0.082 -0.345703,0.19336 -0.152344,0.10547 -0.28711,0.22265 h -1.03125 l 0.275391,-4.4414 h 4.693359 v 0.89648 h -3.732421 l -0.158204,2.61914 q 0.28125,-0.21679 0.703125,-0.36914 0.421875,-0.1582 1.001954,-0.1582 0.615234,0 1.107421,0.1875 0.492188,0.1875 0.837891,0.5332 0.345703,0.33985 0.533203,0.81445 0.1875,0.47461 0.1875,1.04297 z"
         style="font-size:12px;font-family:Arial, 'Helvetica Neue', Helvetica, sans-serif;text-anchor:end;fill:#000000;fill-opacity:1"
         id="path1067"
         inkscape:connector-curvature="0" />
    </g>
  </g>
  <path
     style="fill:none;stroke:#009af9;stroke-width:1;stroke-opacity:1"
     clip-path="url(#clip7403)"
     d="m 30.8018,361.811 0.3996,0.171 0.3995,0.171 0.3995,0.171 0.3995,0.172 0.3995,0.172 0.3995,0.172 0.3995,0.173 0.3996,0.173 0.3995,0.173 0.3995,0.174 0.3995,0.174 0.3995,0.174 0.3995,0.174 0.3995,0.175 0.3995,0.176 0.3996,0.175 0.3995,0.176 0.3995,0.176 0.3995,0.177 0.3995,0.177 0.3995,0.177 0.3995,0.178 0.3995,0.178 0.3996,0.178 0.3995,0.179 0.3995,0.179 0.3995,0.179 0.3995,0.18 0.3995,0.18 0.3995,0.18 0.3996,0.181 0.3995,0.181 0.3995,0.181 0.3995,0.182 0.3995,0.182 0.3995,0.183 0.3995,0.183 0.3995,0.183 0.3996,0.183 0.3995,0.184 0.3995,0.185 0.3995,0.184 0.3995,0.185 0.3995,0.186 0.3995,0.185 0.3996,0.186 0.3995,0.187 0.3995,0.187 0.3995,0.187 0.3995,0.188 0.3995,0.187 0.3995,0.189 0.3995,0.189 0.3996,0.189 0.3995,0.189 0.3995,0.19 0.3995,0.19 0.3995,0.191 0.3995,0.191 0.3995,0.191 0.3995,0.192 0.3996,0.192 0.3995,0.192 0.3995,0.193 0.3995,0.194 0.3995,0.193 0.3995,0.194 0.3995,0.195 0.3996,0.195 0.3995,0.195 0.3995,0.196 0.3995,0.196 0.3995,0.196 0.3995,0.197 0.3995,0.197 0.3995,0.198 0.3996,0.198 0.3995,0.198 0.3995,0.199 0.3995,0.199 0.3995,0.2 0.3995,0.2 0.3995,0.201 0.3995,0.201 0.3996,0.201 0.3995,0.202 0.3995,0.202 0.3995,0.202 0.3995,0.203 0.3995,0.204 0.3995,0.204 0.3996,0.204 0.3995,0.204 0.3995,0.206 0.3995,0.205 0.3995,0.206 0.3995,0.206 0.3995,0.207 0.3995,0.207 0.3996,0.208 0.3995,0.208 0.3995,0.209 0.3995,0.209 0.3995,0.209 0.3995,0.21 0.3995,0.21 0.3996,0.211 0.3995,0.211 0.3995,0.212 0.3995,0.212 0.3995,0.212 0.3995,0.213 0.3995,0.213 0.3995,0.214 0.3996,0.214 0.3995,0.215 0.3995,0.215 0.3995,0.216 0.3995,0.216 0.3995,0.216 0.3995,0.217 0.3995,0.218 0.3996,0.217 0.3995,0.219 0.3995,0.219 0.3995,0.219 0.3995,0.219 0.3995,0.221 0.3995,0.22 0.3996,0.221 0.3995,0.222 0.3995,0.222 0.3995,0.222 0.3995,0.223 0.3995,0.223 0.3995,0.224 0.3995,0.225 0.3996,0.224 0.3995,0.226 0.3995,0.225 0.3995,0.226 0.3995,0.227 0.3995,0.227 0.3995,0.228 0.3995,0.228 0.3996,0.228 0.3995,0.229 0.3995,0.23 0.3995,0.23 0.3995,0.23 0.3995,0.231 0.3995,0.232 0.3996,0.231 0.3995,0.233 0.3995,0.232 0.3995,0.234 0.3995,0.233 0.3995,0.235 0.3995,0.234 0.3995,0.236 0.3996,0.235 0.3995,0.236 0.3995,0.237 0.3995,0.237 0.3995,0.237 0.3995,0.238 0.3995,0.239 0.3996,0.239 0.3995,0.239 0.3995,0.24 0.3995,0.241 0.3995,0.241 0.3995,0.241 0.3994,0.242 0.4,0.242 0.399,0.243 0.4,0.243 0.399,0.244 0.4,0.244 0.399,0.244 0.4,0.245 0.399,0.246 0.4,0.246 0.399,0.246 0.4,0.247 0.399,0.248 0.4,0.248 0.399,0.248 0.4,0.249 0.399,0.249 0.4,0.25 0.399,0.25 0.4,0.25 0.399,0.251 0.4,0.252 0.399,0.252 0.4,0.252 0.399,0.253 0.4,0.253 0.399,0.253 0.4,0.255 0.399,0.254 0.4,0.255 0.4,0.255 0.399,0.256 0.4,0.256 0.399,0.257 0.4,0.257 0.399,0.257 0.4,0.258 0.399,0.258 0.4,0.259 0.399,0.259 0.4,0.259 0.399,0.26 0.4,0.26 0.399,0.26 0.4,0.261 0.399,0.261 0.4,0.262 0.399,0.262 0.4,0.262 0.399,0.263 0.4,0.262 0.399,0.264 0.4,0.263 0.399,0.264 0.4,0.264 0.399,0.265 0.4,0.265 0.399,0.265 0.4,0.265 0.399,0.266 0.4,0.266 0.399,0.266 0.4,0.266 0.399,0.267 0.4,0.267 0.399,0.267 0.4,0.267 0.4,0.268 0.399,0.267 0.4,0.268 0.399,0.268 0.4,0.269 0.399,0.268 0.4,0.269 0.399,0.268 0.4,0.269 0.399,0.269 0.4,0.269 0.399,0.269 0.4,0.269 0.399,0.27 0.4,0.269 0.399,0.269 0.4,0.27 0.399,0.269 0.4,0.27 0.399,0.269 0.4,0.269 0.399,0.27 0.4,0.269 0.399,0.269 0.4,0.269 0.399,0.269 0.4,0.269 0.399,0.269 0.4,0.269 0.399,0.268 0.4,0.268 0.399,0.269 0.4,0.267 0.399,0.268 0.4,0.267 0.399,0.267 0.4,0.267 0.399,0.267 0.4,0.266 0.4,0.265 0.399,0.266 0.4,0.265 0.399,0.264 0.4,0.264 0.399,0.264 0.4,0.263 0.399,0.263 0.4,0.262 0.399,0.262 0.4,0.261 0.399,0.26 0.4,0.26 0.399,0.259 0.4,0.259 0.399,0.257 0.4,0.257 0.399,0.257 0.4,0.255 0.399,0.255 0.4,0.254 0.399,0.253 0.4,0.252 0.399,0.252 0.4,0.25 0.399,0.25 0.4,0.248 0.399,0.247 0.4,0.247 0.399,0.245 0.4,0.244 0.399,0.244 0.4,0.242 0.399,0.24 0.4,0.24 0.399,0.238 0.4,0.238 0.4,0.235 0.399,0.235 0.4,0.233 0.399,0.232 0.4,0.23 0.399,0.229 0.4,0.228 0.399,0.226 0.4,0.225 0.399,0.223 0.4,0.221 0.399,0.22 0.4,0.218 0.399,0.217 0.4,0.215 0.399,0.213 0.4,0.211 0.399,0.21 0.4,0.208 0.399,0.206 0.4,0.205 0.399,0.202 0.4,0.201 0.399,0.199 0.4,0.196 0.399,0.195 0.4,0.193 0.399,0.191 0.4,0.189 0.399,0.187 0.4,0.185 0.399,0.183 0.4,0.181 0.399,0.178 0.4,0.177 0.399,0.174 0.4,0.173 0.399,0.17 0.4,0.168 0.4,0.166 0.399,0.163 0.4,0.162 0.399,0.159 0.4,0.157 0.399,0.154 0.4,0.153 0.399,0.15 0.4,0.148 0.399,0.146 0.4,0.143 0.399,0.142 0.4,0.139 0.399,0.136 0.4,0.135 0.399,0.132 0.4,0.13 0.399,0.127 0.4,0.126 0.399,0.123 0.4,0.121 0.399,0.118 0.4,0.117 0.399,0.114 0.4,0.112 0.399,0.109 0.4,0.108 0.399,0.105 0.4,0.103 0.399,0.101 0.4,0.099 0.399,0.096 0.4,0.095 0.399,0.092 0.4,0.09 0.399,0.089 0.4,0.086 0.4,0.084 0.399,0.082 0.4,0.08 0.399,0.078 0.4,0.076 0.399,0.074 0.4,0.073 0.399,0.07 0.4,0.068 0.399,0.067 0.4,0.065 0.399,0.063 0.4,0.061 0.399,0.059 0.4,0.058 0.399,0.056 0.4,0.055 0.399,0.052 0.4,0.051 0.399,0.05 0.4,0.048 0.399,0.046 0.4,0.045 0.399,0.044 0.4,0.042 0.399,0.04 0.4,0.039 0.399,0.038 0.4,0.036 0.399,0.035 0.4,0.034 0.399,0.033 0.4,0.031 0.399,0.03 0.4,0.029 0.399,0.028 0.4,0.027 0.399,0.025 0.4,0.025 0.4,0.023 0.399,0.023 0.4,0.022 0.399,0.02 0.4,0.02 0.399,0.019 0.4,0.017 0.399,0.017 0.4,0.017 0.399,0.015 0.4,0.015 0.399,0.014 0.4,0.013 0.399,0.012 0.4,0.012 0.399,0.011 0.4,0.011 0.399,0.01 0.4,0.009 0.399,0.009 0.4,0.008 0.399,0.008 0.4,0.007 0.399,0.007 0.4,0.007 0.399,0.006 0.4,0.005 0.399,0.005 0.4,0.005 0.399,0.004 0.4,0.004 0.399,0.004 0.4,0.004 0.399,0.003 0.4,0.003 0.399,0.002 0.4,0.003 0.399,0.002 0.4,0.002 0.4,0.001 0.399,0.002 0.4,0.001 0.399,0.002 0.4,10e-4 0.399,0.001 h 0.4 l 0.399,10e-4 0.4,10e-4 h 0.399 l 0.4,0.001 h 0.399 0.4 0.399 l 0.4,10e-4 h 0.399 0.4 0.399 0.4 0.399 0.4 0.399 0.4 0.399 0.4 0.399 0.4 0.399 0.4 0.399 0.4 0.399 0.4 0.399 0.4 0.399 0.4 0.4 0.399 0.4 0.399 0.4 0.399 0.4 0.399 0.4 0.399 l 0.4,-10e-4 h 0.399 0.4 l 0.399,-0.001 0.4,-10e-4 h 0.399 l 0.4,-10e-4 0.399,-0.001 0.4,-10e-4 0.399,-0.001 0.4,-0.002 0.399,-10e-4 0.4,-0.002 0.399,-0.002 0.4,-0.002 0.399,-0.002 0.4,-0.003 0.399,-0.003 0.4,-0.003 0.399,-0.003 0.4,-0.004 0.399,-0.004 0.4,-0.004 0.399,-0.005 0.4,-0.005 0.399,-0.006 0.4,-0.006 0.399,-0.006 0.4,-0.007 0.4,-0.007 0.399,-0.008 0.4,-0.008 0.399,-0.009 0.4,-0.009 0.399,-0.01 0.4,-0.011 0.399,-0.011 0.4,-0.012 0.399,-0.012 0.4,-0.013 0.399,-0.014 0.4,-0.015 0.399,-0.015 0.4,-0.017 0.399,-0.017 0.4,-0.018 0.399,-0.018 0.4,-0.02 0.399,-0.02 0.4,-0.022 0.399,-0.022 0.4,-0.024 0.399,-0.025 0.4,-0.025 0.399,-0.027 0.4,-0.028 0.399,-0.029 0.4,-0.03 0.399,-0.031 0.4,-0.033 0.399,-0.033 0.4,-0.035 0.399,-0.037 0.4,-0.038 0.399,-0.039 0.4,-0.04 0.4,-0.042 0.399,-0.044 0.4,-0.044 0.399,-0.047 0.4,-0.048 0.399,-0.049 0.4,-0.051 0.399,-0.053 0.4,-0.054 0.399,-0.056 0.4,-0.058 0.399,-0.06 0.4,-0.061 0.399,-0.063 0.4,-0.065 0.399,-0.066 0.4,-0.069 0.399,-0.07 0.4,-0.072 0.399,-0.074 0.4,-0.077 0.399,-0.078 0.4,-0.08 0.399,-0.082 0.4,-0.084 0.399,-0.086 0.4,-0.088 0.399,-0.09 0.4,-0.093 0.399,-0.094 0.4,-0.097 0.399,-0.099 0.4,-0.1 0.399,-0.104 0.4,-0.105 0.399,-0.107 0.4,-0.11 0.399,-0.112 0.4,-0.114 0.4,-0.116 0.399,-0.119 0.4,-0.121 0.399,-0.123 0.4,-0.125 0.399,-0.128 0.4,-0.13 0.399,-0.132 0.4,-0.134 0.399,-0.137 0.4,-0.139 0.399,-0.141 0.4,-0.143 0.399,-0.146 0.4,-0.148 0.399,-0.15 0.4,-0.153 0.399,-0.155 0.4,-0.157 0.399,-0.159 0.4,-0.161 0.399,-0.164 0.4,-0.166 0.399,-0.168 0.4,-0.17 0.399,-0.172 0.4,-0.175 0.399,-0.176 0.4,-0.179 0.399,-0.181 0.4,-0.182 0.399,-0.185 0.4,-0.187 0.399,-0.189 0.4,-0.191 0.399,-0.193 0.4,-0.195 0.4,-0.197 0.399,-0.199 0.4,-0.2 0.399,-0.203 0.4,-0.204 0.399,-0.206 0.4,-0.208 0.399,-0.21 0.4,-0.212 0.399,-0.213 0.4,-0.215 0.399,-0.216 0.4,-0.219 0.399,-0.22 0.4,-0.221 0.399,-0.223 0.4,-0.225 0.399,-0.226 0.4,-0.227 0.399,-0.229 0.4,-0.231 0.399,-0.231 0.4,-0.234 0.399,-0.234 0.4,-0.236 0.399,-0.237 0.4,-0.239 0.399,-0.239 0.4,-0.241 0.399,-0.242 0.4,-0.243 0.399,-0.244 0.4,-0.246 0.399,-0.246 0.4,-0.248 0.399,-0.248 0.4,-0.25 0.399,-0.25 0.4,-0.251 0.4,-0.253 0.399,-0.253 0.4,-0.254 0.399,-0.254 0.4,-0.256 0.399,-0.256 0.4,-0.257 0.399,-0.258 0.4,-0.259 0.399,-0.259 0.4,-0.26 0.399,-0.26 0.4,-0.261 0.399,-0.262 0.4,-0.262 0.399,-0.263 0.4,-0.263 0.399,-0.263 0.4,-0.265 0.399,-0.264 0.4,-0.265 0.399,-0.265 0.4,-0.266 0.399,-0.266 0.4,-0.267 0.399,-0.267 0.4,-0.267 0.399,-0.267 0.4,-0.268 0.399,-0.267 0.4,-0.269 0.399,-0.268 0.4,-0.268 0.399,-0.269 0.4,-0.269 0.399,-0.269 0.4,-0.269 0.399,-0.269 0.4,-0.269 0.4,-0.269 0.399,-0.27 0.4,-0.269 0.399,-0.269 0.4,-0.27 0.399,-0.269 0.4,-0.27 0.399,-0.269 0.4,-0.269 0.399,-0.27 0.4,-0.269 0.399,-0.269 0.4,-0.269 0.399,-0.269 0.4,-0.269 0.399,-0.269 0.4,-0.268 0.399,-0.269 0.4,-0.268 0.399,-0.268 0.4,-0.268 0.399,-0.268 0.4,-0.267 0.399,-0.267 0.4,-0.268 0.399,-0.266 0.4,-0.267 0.399,-0.266 0.4,-0.267 0.399,-0.266 0.4,-0.265 0.399,-0.266 0.4,-0.265 0.399,-0.264 0.4,-0.265 0.399,-0.264 0.4,-0.264 0.4,-0.264 0.399,-0.263 0.4,-0.263 0.399,-0.262 0.4,-0.263 0.399,-0.261 0.4,-0.262 0.399,-0.261 0.4,-0.261 0.399,-0.261 0.4,-0.26 0.399,-0.259 0.4,-0.26 0.399,-0.259 0.4,-0.258 0.399,-0.258 0.4,-0.258 0.399,-0.258 0.4,-0.257 0.399,-0.256 0.4,-0.256 0.399,-0.256 0.4,-0.255 0.399,-0.255 0.4,-0.255 0.399,-0.254 0.4,-0.254 0.399,-0.253 0.4,-0.253 0.399,-0.252 0.4,-0.252 0.399,-0.251 0.4,-0.251 0.399,-0.251 0.4,-0.25 0.399,-0.25 0.4,-0.249 0.399,-0.249 0.4,-0.248 0.4,-0.248 0.399,-0.247 0.4,-0.247 0.399,-0.247 0.4,-0.246 0.399,-0.245 0.4,-0.245 0.399,-0.245 0.4,-0.244 0.399,-0.244 0.4,-0.243 0.399,-0.243 0.4,-0.242 0.399,-0.242 0.4,-0.241 0.399,-0.241 0.4,-0.24 0.399,-0.24 0.4,-0.24 0.399,-0.239 0.4,-0.238 0.399,-0.238 0.4,-0.238 0.399,-0.237 0.4,-0.236 0.399,-0.236 0.4,-0.236 0.399,-0.235 0.4,-0.235 0.399,-0.234 0.4,-0.234 0.399,-0.233 0.4,-0.233 0.399,-0.232 0.4,-0.232 0.399,-0.231 0.4,-0.231 0.4,-0.231 0.399,-0.23 0.4,-0.229 0.399,-0.229 0.4,-0.229 0.399,-0.228 0.4,-0.227 0.399,-0.228 0.4,-0.226 0.399,-0.226 0.4,-0.226 0.399,-0.225 0.4,-0.225 0.399,-0.224 0.4,-0.224 0.399,-0.224 0.4,-0.223 0.399,-0.222 0.4,-0.222 0.399,-0.221 0.4,-0.222 0.399,-0.22 0.4,-0.22 0.399,-0.22 0.4,-0.219 0.399,-0.219 0.4,-0.218 0.399,-0.218 0.4,-0.218 0.399,-0.216 0.4,-0.217 0.399,-0.216 0.4,-0.216 0.399,-0.215 0.4,-0.214 0.399,-0.215 0.4,-0.213 0.399,-0.214 0.4,-0.213 0.4,-0.212 0.399,-0.212 0.4,-0.212 0.399,-0.211 0.4,-0.211 0.399,-0.21 0.4,-0.21 0.399,-0.209 0.4,-0.209 0.399,-0.209 0.4,-0.208 0.399,-0.207 0.4,-0.208 0.399,-0.206 0.4,-0.207 0.399,-0.206 0.4,-0.205 0.399,-0.205 0.4,-0.205 0.399,-0.204 0.4,-0.204 0.399,-0.203 0.4,-0.203 0.399,-0.203 0.4,-0.202 0.399,-0.202 0.4,-0.201 0.399,-0.201 0.4,-0.201 0.399,-0.2 0.4,-0.199 0.399,-0.2 0.4,-0.199 0.399,-0.198 0.4,-0.198 0.399,-0.198 0.4,-0.197 0.4,-0.197 0.399,-0.196 0.4,-0.196 0.399,-0.196 0.4,-0.195 0.399,-0.195 0.4,-0.194 0.399,-0.195 0.4,-0.193 0.399,-0.194 0.4,-0.192 0.399,-0.193 0.4,-0.192 0.399,-0.192 0.4,-0.191 0.399,-0.191 0.4,-0.191 0.399,-0.19 0.4,-0.19 0.399,-0.189 0.4,-0.189 0.399,-0.189 0.4,-0.188 0.399,-0.188 0.4,-0.188 0.399,-0.187 0.4,-0.187 0.399,-0.186 0.4,-0.186 0.399,-0.186 0.4,-0.186 0.399,-0.185 0.4,-0.184 0.399,-0.184 0.4,-0.184 0.399,-0.184 0.4,-0.183 0.399,-0.183 0.4,-0.182 0.4,-0.183 0.399,-0.181 0.4,-0.182 0.399,-0.181 0.4,-0.181 0.399,-0.18 0.4,-0.18 0.399,-0.18 0.4,-0.179 0.399,-0.179 0.4,-0.179 0.399,-0.178 0.4,-0.178 0.399,-0.178 0.4,-0.177 0.399,-0.177 0.4,-0.176 0.399,-0.177 0.4,-0.176 0.399,-0.175 0.4,-0.175 0.399,-0.175 0.4,-0.175 0.399,-0.174 0.4,-0.174 0.399,-0.174 0.4,-0.173 0.399,-0.173 0.4,-0.173 0.399,-0.172 0.4,-0.172 0.399,-0.172 0.4,-0.171 0.399,-0.171 0.4,-0.171"
     id="polyline206"
     inkscape:connector-curvature="0"
     transform="translate(21.36232,-1.7380046)" />
  <path
     style="fill:none;stroke:#e26f46;stroke-width:1;stroke-opacity:1"
     clip-path="url(#clip7403)"
     d="m 30.8018,362.19 0.3996,0.174 0.3995,0.174 0.3995,0.174 0.3995,0.175 0.3995,0.175 0.3995,0.176 0.3995,0.176 0.3996,0.176 0.3995,0.177 0.3995,0.177 0.3995,0.177 0.3995,0.178 0.3995,0.178 0.3995,0.178 0.3995,0.179 0.3996,0.179 0.3995,0.18 0.3995,0.18 0.3995,0.18 0.3995,0.181 0.3995,0.181 0.3995,0.181 0.3995,0.182 0.3996,0.182 0.3995,0.182 0.3995,0.183 0.3995,0.184 0.3995,0.183 0.3995,0.185 0.3995,0.184 0.3996,0.185 0.3995,0.185 0.3995,0.186 0.3995,0.186 0.3995,0.186 0.3995,0.187 0.3995,0.188 0.3995,0.187 0.3996,0.188 0.3995,0.189 0.3995,0.189 0.3995,0.189 0.3995,0.19 0.3995,0.19 0.3995,0.191 0.3996,0.191 0.3995,0.191 0.3995,0.192 0.3995,0.192 0.3995,0.193 0.3995,0.193 0.3995,0.193 0.3995,0.194 0.3996,0.195 0.3995,0.195 0.3995,0.195 0.3995,0.196 0.3995,0.196 0.3995,0.196 0.3995,0.197 0.3995,0.198 0.3996,0.198 0.3995,0.198 0.3995,0.199 0.3995,0.199 0.3995,0.2 0.3995,0.2 0.3995,0.201 0.3996,0.201 0.3995,0.202 0.3995,0.202 0.3995,0.203 0.3995,0.203 0.3995,0.203 0.3995,0.204 0.3995,0.205 0.3996,0.205 0.3995,0.205 0.3995,0.206 0.3995,0.206 0.3995,0.207 0.3995,0.208 0.3995,0.208 0.3995,0.208 0.3996,0.209 0.3995,0.209 0.3995,0.21 0.3995,0.211 0.3995,0.211 0.3995,0.211 0.3995,0.212 0.3996,0.213 0.3995,0.213 0.3995,0.213 0.3995,0.214 0.3995,0.215 0.3995,0.215 0.3995,0.216 0.3995,0.216 0.3996,0.217 0.3995,0.217 0.3995,0.218 0.3995,0.218 0.3995,0.219 0.3995,0.219 0.3995,0.22 0.3996,0.221 0.3995,0.221 0.3995,0.222 0.3995,0.222 0.3995,0.223 0.3995,0.223 0.3995,0.224 0.3995,0.225 0.3996,0.225 0.3995,0.226 0.3995,0.226 0.3995,0.227 0.3995,0.228 0.3995,0.228 0.3995,0.229 0.3995,0.229 0.3996,0.23 0.3995,0.23 0.3995,0.232 0.3995,0.231 0.3995,0.233 0.3995,0.233 0.3995,0.234 0.3996,0.234 0.3995,0.235 0.3995,0.235 0.3995,0.236 0.3995,0.237 0.3995,0.238 0.3995,0.238 0.3995,0.239 0.3996,0.239 0.3995,0.24 0.3995,0.241 0.3995,0.242 0.3995,0.242 0.3995,0.242 0.3995,0.244 0.3995,0.244 0.3996,0.245 0.3995,0.246 0.3995,0.246 0.3995,0.247 0.3995,0.247 0.3995,0.249 0.3995,0.249 0.3996,0.25 0.3995,0.25 0.3995,0.251 0.3995,0.252 0.3995,0.253 0.3995,0.253 0.3995,0.255 0.3995,0.255 0.3996,0.255 0.3995,0.257 0.3995,0.257 0.3995,0.258 0.3995,0.259 0.3995,0.259 0.3995,0.26 0.3996,0.261 0.3995,0.262 0.3995,0.263 0.3995,0.263 0.3995,0.265 0.3995,0.265 0.3994,0.265 0.4,0.267 0.399,0.268 0.4,0.268 0.399,0.269 0.4,0.27 0.399,0.271 0.4,0.272 0.399,0.272 0.4,0.274 0.399,0.274 0.4,0.275 0.399,0.276 0.4,0.277 0.399,0.278 0.4,0.278 0.399,0.28 0.4,0.28 0.399,0.282 0.4,0.282 0.399,0.283 0.4,0.284 0.399,0.285 0.4,0.286 0.399,0.287 0.4,0.288 0.399,0.289 0.4,0.29 0.399,0.291 0.4,0.291 0.4,0.293 0.399,0.294 0.4,0.295 0.399,0.295 0.4,0.297 0.399,0.298 0.4,0.299 0.399,0.3 0.4,0.301 0.399,0.301 0.4,0.303 0.399,0.304 0.4,0.306 0.399,0.306 0.4,0.307 0.399,0.308 0.4,0.31 0.399,0.31 0.4,0.312 0.399,0.313 0.4,0.314 0.399,0.315 0.4,0.316 0.399,0.317 0.4,0.319 0.399,0.32 0.4,0.321 0.399,0.322 0.4,0.323 0.399,0.324 0.4,0.326 0.399,0.327 0.4,0.328 0.399,0.33 0.4,0.33 0.399,0.332 0.4,0.334 0.4,0.334 0.399,0.336 0.4,0.337 0.399,0.338 0.4,0.34 0.399,0.341 0.4,0.343 0.399,0.343 0.4,0.345 0.399,0.347 0.4,0.348 0.399,0.349 0.4,0.351 0.399,0.352 0.4,0.354 0.399,0.355 0.4,0.356 0.399,0.358 0.4,0.359 0.399,0.361 0.4,0.363 0.399,0.364 0.4,0.365 0.399,0.367 0.4,0.369 0.399,0.37 0.4,0.372 0.399,0.373 0.4,0.375 0.399,0.377 0.4,0.378 0.399,0.38 0.4,0.381 0.399,0.383 0.4,0.385 0.399,0.387 0.4,0.388 0.399,0.391 0.4,0.391 0.4,0.394 0.399,0.396 0.4,0.397 0.399,0.399 0.4,0.401 0.399,0.403 0.4,0.404 0.399,0.407 0.4,0.408 0.399,0.411 0.4,0.412 0.399,0.414 0.4,0.417 0.399,0.418 0.4,0.42 0.399,0.423 0.4,0.424 0.399,0.427 0.4,0.428 0.399,0.431 0.4,0.433 0.399,0.435 0.4,0.437 0.399,0.44 0.4,0.442 0.399,0.444 0.4,0.446 0.399,0.449 0.4,0.45 0.399,0.454 0.4,0.455 0.399,0.458 0.4,0.461 0.399,0.463 0.4,0.465 0.399,0.468 0.4,0.471 0.4,0.473 0.399,0.475 0.4,0.479 0.399,0.48 0.4,0.484 0.399,0.486 0.4,0.489 0.399,0.492 0.4,0.495 0.399,0.497 0.4,0.5 0.399,0.503 0.4,0.507 0.399,0.509 0.4,0.512 0.399,0.515 0.4,0.518 0.399,0.521 0.4,0.525 0.399,0.528 0.4,0.53 0.399,0.535 0.4,0.537 0.399,0.541 0.4,0.544 0.399,0.548 0.4,0.551 0.399,0.554 0.4,0.558 0.399,0.562 0.4,0.566 0.399,0.569 0.4,0.573 0.399,0.577 0.4,0.58 0.399,0.585 0.4,0.588 0.399,0.592 0.4,0.597 0.4,0.601 0.399,0.605 0.4,0.609 0.399,0.613 0.4,0.618 0.399,0.622 0.4,0.627 0.399,0.631 0.4,0.636 0.399,0.64 0.4,0.646 0.399,0.65 0.4,0.655 0.399,0.66 0.4,0.665 0.399,0.67 0.4,0.675 0.399,0.681 0.4,0.686 0.399,0.692 0.4,0.697 0.399,0.703 0.4,0.708 0.399,0.714 0.4,0.721 0.399,0.726 0.4,0.732 0.399,0.739 0.4,0.745 0.399,0.751 0.4,0.758 0.399,0.765 0.4,0.771 0.399,0.778 0.4,0.786 0.399,0.792 0.4,0.8 0.4,0.807 0.399,0.815 0.4,0.822 0.399,0.831 0.4,0.838 0.399,0.847 0.4,0.855 0.399,0.863 0.4,0.872 0.399,0.881 0.4,0.89 0.399,0.899 0.4,0.908 0.399,0.919 0.4,0.927 0.399,0.938 0.4,0.948 0.399,0.959 0.4,0.969 0.399,0.981 0.4,0.991 0.399,1.003 0.4,1.014 0.399,1.027 0.4,1.038 0.399,1.052 0.4,1.064 0.399,1.077 0.4,1.091 0.399,1.104 0.4,1.119 0.399,1.134 0.4,1.148 0.399,1.164 0.4,1.179 0.399,1.195 0.4,1.213 0.399,1.229 0.4,1.247 0.4,1.265 0.399,1.283 0.4,1.303 0.399,1.322 0.4,1.343 0.399,1.364 0.4,1.385 0.399,1.407 0.4,1.431 0.399,1.454 0.4,1.479 0.399,1.504 0.4,1.53 0.399,1.558 0.4,1.585 0.399,1.615 0.4,1.645 0.399,1.676 0.4,1.708 0.399,1.742 0.4,1.777 0.399,1.814 0.4,1.85 0.399,1.891 0.4,1.931 0.399,1.973 0.4,2.018 0.399,2.064 0.4,2.112 0.399,2.162 0.4,2.214 0.399,2.269 0.4,2.326 0.399,2.385 0.4,2.447 0.399,2.512 0.4,2.578 0.399,2.648 0.4,2.721 0.4,2.795 0.399,2.871 0.4,2.95 0.399,3.03 0.4,3.11 0.399,3.189 0.4,3.265 0.399,3.337 0.4,3.4 0.399,3.451 0.4,3.486 0.399,3.496 0.4,3.475 0.399,3.415 0.4,3.305 0.399,3.14 0.4,2.914 0.399,2.63 0.4,2.295 0.399,1.925 0.4,1.547 0.399,1.18 0.4,0.85 0.399,0.573 0.4,0.356 0.399,0.198 0.4,0.094 0.399,0.035 0.4,0.008 0.399,10e-4 0.4,-10e-4 0.399,-0.008 0.4,-0.035 0.399,-0.094 0.4,-0.198 0.399,-0.356 0.4,-0.573 0.4,-0.85 0.399,-1.18 0.4,-1.547 0.399,-1.925 0.4,-2.295 0.399,-2.63 0.4,-2.914 0.399,-3.14 0.4,-3.305 0.399,-3.415 0.4,-3.475 0.399,-3.496 0.4,-3.486 0.399,-3.451 0.4,-3.4 0.399,-3.337 0.4,-3.265 0.399,-3.189 0.4,-3.11 0.399,-3.03 0.4,-2.95 0.399,-2.871 0.4,-2.795 0.399,-2.721 0.4,-2.648 0.399,-2.578 0.4,-2.512 0.399,-2.447 0.4,-2.385 0.399,-2.326 0.4,-2.269 0.399,-2.214 0.4,-2.162 0.399,-2.112 0.4,-2.064 0.399,-2.018 0.4,-1.973 0.399,-1.931 0.4,-1.891 0.4,-1.85 0.399,-1.814 0.4,-1.777 0.399,-1.742 0.4,-1.708 0.399,-1.676 0.4,-1.645 0.399,-1.615 0.4,-1.585 0.399,-1.558 0.4,-1.53 0.399,-1.504 0.4,-1.479 0.399,-1.454 0.4,-1.431 0.399,-1.407 0.4,-1.385 0.399,-1.364 0.4,-1.343 0.399,-1.322 0.4,-1.303 0.399,-1.283 0.4,-1.265 0.399,-1.247 0.4,-1.229 0.399,-1.213 0.4,-1.195 0.399,-1.179 0.4,-1.164 0.399,-1.148 0.4,-1.134 0.399,-1.119 0.4,-1.104 0.399,-1.091 0.4,-1.077 0.399,-1.064 0.4,-1.052 0.4,-1.038 0.399,-1.027 0.4,-1.014 0.399,-1.003 0.4,-0.991 0.399,-0.981 0.4,-0.969 0.399,-0.959 0.4,-0.948 0.399,-0.938 0.4,-0.927 0.399,-0.919 0.4,-0.908 0.399,-0.899 0.4,-0.89 0.399,-0.881 0.4,-0.872 0.399,-0.863 0.4,-0.855 0.399,-0.847 0.4,-0.838 0.399,-0.831 0.4,-0.822 0.399,-0.815 0.4,-0.807 0.399,-0.8 0.4,-0.792 0.399,-0.786 0.4,-0.778 0.399,-0.771 0.4,-0.765 0.399,-0.758 0.4,-0.751 0.399,-0.745 0.4,-0.739 0.399,-0.732 0.4,-0.726 0.399,-0.721 0.4,-0.714 0.4,-0.708 0.399,-0.703 0.4,-0.697 0.399,-0.692 0.4,-0.686 0.399,-0.681 0.4,-0.675 0.399,-0.67 0.4,-0.665 0.399,-0.66 0.4,-0.655 0.399,-0.65 0.4,-0.646 0.399,-0.64 0.4,-0.636 0.399,-0.631 0.4,-0.627 0.399,-0.622 0.4,-0.618 0.399,-0.613 0.4,-0.609 0.399,-0.605 0.4,-0.601 0.399,-0.597 0.4,-0.592 0.399,-0.588 0.4,-0.585 0.399,-0.58 0.4,-0.577 0.399,-0.573 0.4,-0.569 0.399,-0.566 0.4,-0.562 0.399,-0.558 0.4,-0.554 0.399,-0.551 0.4,-0.548 0.4,-0.544 0.399,-0.541 0.4,-0.537 0.399,-0.535 0.4,-0.53 0.399,-0.528 0.4,-0.525 0.399,-0.521 0.4,-0.518 0.399,-0.515 0.4,-0.512 0.399,-0.509 0.4,-0.507 0.399,-0.503 0.4,-0.5 0.399,-0.497 0.4,-0.495 0.399,-0.492 0.4,-0.489 0.399,-0.486 0.4,-0.484 0.399,-0.48 0.4,-0.479 0.399,-0.475 0.4,-0.473 0.399,-0.471 0.4,-0.468 0.399,-0.465 0.4,-0.463 0.399,-0.461 0.4,-0.458 0.399,-0.455 0.4,-0.454 0.399,-0.45 0.4,-0.449 0.399,-0.446 0.4,-0.444 0.399,-0.442 0.4,-0.44 0.4,-0.437 0.399,-0.435 0.4,-0.433 0.399,-0.431 0.4,-0.428 0.399,-0.427 0.4,-0.424 0.399,-0.423 0.4,-0.42 0.399,-0.418 0.4,-0.417 0.399,-0.414 0.4,-0.412 0.399,-0.411 0.4,-0.408 0.399,-0.407 0.4,-0.404 0.399,-0.403 0.4,-0.401 0.399,-0.399 0.4,-0.397 0.399,-0.396 0.4,-0.394 0.399,-0.391 0.4,-0.391 0.399,-0.388 0.4,-0.387 0.399,-0.385 0.4,-0.383 0.399,-0.381 0.4,-0.38 0.399,-0.378 0.4,-0.377 0.399,-0.375 0.4,-0.373 0.399,-0.372 0.4,-0.37 0.399,-0.369 0.4,-0.367 0.4,-0.365 0.399,-0.364 0.4,-0.363 0.399,-0.361 0.4,-0.359 0.399,-0.358 0.4,-0.356 0.399,-0.355 0.4,-0.354 0.399,-0.352 0.4,-0.351 0.399,-0.349 0.4,-0.348 0.399,-0.347 0.4,-0.345 0.399,-0.343 0.4,-0.343 0.399,-0.341 0.4,-0.34 0.399,-0.338 0.4,-0.337 0.399,-0.336 0.4,-0.334 0.399,-0.334 0.4,-0.332 0.399,-0.33 0.4,-0.33 0.399,-0.328 0.4,-0.327 0.399,-0.326 0.4,-0.324 0.399,-0.323 0.4,-0.322 0.399,-0.321 0.4,-0.32 0.399,-0.319 0.4,-0.317 0.4,-0.316 0.399,-0.315 0.4,-0.314 0.399,-0.313 0.4,-0.312 0.399,-0.31 0.4,-0.31 0.399,-0.308 0.4,-0.307 0.399,-0.306 0.4,-0.306 0.399,-0.304 0.4,-0.303 0.399,-0.301 0.4,-0.301 0.399,-0.3 0.4,-0.299 0.399,-0.298 0.4,-0.297 0.399,-0.295 0.4,-0.295 0.399,-0.294 0.4,-0.293 0.399,-0.291 0.4,-0.291 0.399,-0.29 0.4,-0.289 0.399,-0.288 0.4,-0.287 0.399,-0.286 0.4,-0.285 0.399,-0.284 0.4,-0.283 0.399,-0.282 0.4,-0.282 0.399,-0.28 0.4,-0.28 0.399,-0.278 0.4,-0.278 0.4,-0.277 0.399,-0.276 0.4,-0.275 0.399,-0.274 0.4,-0.274 0.399,-0.272 0.4,-0.272 0.399,-0.271 0.4,-0.27 0.399,-0.269 0.4,-0.268 0.399,-0.268 0.4,-0.267 0.399,-0.265 0.4,-0.265 0.399,-0.265 0.4,-0.263 0.399,-0.263 0.4,-0.262 0.399,-0.261 0.4,-0.26 0.399,-0.259 0.4,-0.259 0.399,-0.258 0.4,-0.257 0.399,-0.257 0.4,-0.255 0.399,-0.255 0.4,-0.255 0.399,-0.253 0.4,-0.253 0.399,-0.252 0.4,-0.251 0.399,-0.25 0.4,-0.25 0.399,-0.249 0.4,-0.249 0.4,-0.247 0.399,-0.247 0.4,-0.246 0.399,-0.246 0.4,-0.245 0.399,-0.244 0.4,-0.244 0.399,-0.242 0.4,-0.242 0.399,-0.242 0.4,-0.241 0.399,-0.24 0.4,-0.239 0.399,-0.239 0.4,-0.238 0.399,-0.238 0.4,-0.237 0.399,-0.236 0.4,-0.235 0.399,-0.235 0.4,-0.234 0.399,-0.234 0.4,-0.233 0.399,-0.233 0.4,-0.231 0.399,-0.232 0.4,-0.23 0.399,-0.23 0.4,-0.229 0.399,-0.229 0.4,-0.228 0.399,-0.228 0.4,-0.227 0.399,-0.226 0.4,-0.226 0.399,-0.225 0.4,-0.225 0.399,-0.224 0.4,-0.223 0.4,-0.223 0.399,-0.222 0.4,-0.222 0.399,-0.221 0.4,-0.221 0.399,-0.22 0.4,-0.219 0.399,-0.219 0.4,-0.218 0.399,-0.218 0.4,-0.217 0.399,-0.217 0.4,-0.216 0.399,-0.216 0.4,-0.215 0.399,-0.215 0.4,-0.214 0.399,-0.213 0.4,-0.213 0.399,-0.213 0.4,-0.212 0.399,-0.211 0.4,-0.211 0.399,-0.211 0.4,-0.21 0.399,-0.209 0.4,-0.209 0.399,-0.208 0.4,-0.208 0.399,-0.208 0.4,-0.207 0.399,-0.206 0.4,-0.206 0.399,-0.205 0.4,-0.205 0.399,-0.205 0.4,-0.204 0.4,-0.203 0.399,-0.203 0.4,-0.203 0.399,-0.202 0.4,-0.202 0.399,-0.201 0.4,-0.201 0.399,-0.2 0.4,-0.2 0.399,-0.199 0.4,-0.199 0.399,-0.198 0.4,-0.198 0.399,-0.198 0.4,-0.197 0.399,-0.196 0.4,-0.196 0.399,-0.196 0.4,-0.195 0.399,-0.195 0.4,-0.195 0.399,-0.194 0.4,-0.193 0.399,-0.193 0.4,-0.193 0.399,-0.192 0.4,-0.192 0.399,-0.191 0.4,-0.191 0.399,-0.191 0.4,-0.19 0.399,-0.19 0.4,-0.189 0.399,-0.189 0.4,-0.189 0.399,-0.188 0.4,-0.187 0.399,-0.188 0.4,-0.187 0.4,-0.186 0.399,-0.186 0.4,-0.186 0.399,-0.185 0.4,-0.185 0.399,-0.184 0.4,-0.185 0.399,-0.183 0.4,-0.184 0.399,-0.183 0.4,-0.182 0.399,-0.182 0.4,-0.182 0.399,-0.181 0.4,-0.181 0.399,-0.181 0.4,-0.18 0.399,-0.18 0.4,-0.18 0.399,-0.179 0.4,-0.179 0.399,-0.178 0.4,-0.178 0.399,-0.178 0.4,-0.177 0.399,-0.177 0.4,-0.177 0.399,-0.176 0.4,-0.176 0.399,-0.176 0.4,-0.175 0.399,-0.175 0.4,-0.174 0.399,-0.174 0.4,-0.174"
     id="polyline208"
     inkscape:connector-curvature="0"
     transform="translate(21.36232,-1.7380046)" />
  <path
     transform="translate(11.924242,192.39509)"
     style="fill:#ffffff;fill-opacity:1"
     clip-path="url(#clip7400)"
     d="m 316.596,434.051 h 92.719 v -45.36 h -92.719 z"
     id="polygon210"
     inkscape:connector-curvature="0" />
  <path
     transform="translate(11.924242,192.39509)"
     style="fill:none;stroke:#000000;stroke-width:1;stroke-opacity:1"
     clip-path="url(#clip7400)"
     d="m 316.596,434.051 h 92.719 v -45.36 h -92.719 v 45.36"
     id="polyline212"
     inkscape:connector-curvature="0" />
  <path
     transform="translate(11.924242,192.39509)"
     style="fill:none;stroke:#009af9;stroke-width:1;stroke-opacity:1"
     clip-path="url(#clip7400)"
     d="m 323.596,403.811 h 42"
     id="polyline214"
     inkscape:connector-curvature="0" />
  <path
     transform="translate(11.924242,192.39509)"
     style="fill:none;stroke:#e26f46;stroke-width:1;stroke-opacity:1"
     clip-path="url(#clip7400)"
     d="m 323.596,418.931 h 42"
     id="polyline220"
     inkscape:connector-curvature="0" />
  <text
     xml:space="preserve"
     style="font-style:normal;font-weight:normal;font-size:20px;line-height:1.25;font-family:sans-serif;letter-spacing:0px;word-spacing:0px;fill:#000000;fill-opacity:1;stroke:none"
     x="243.92032"
     y="346.073"
     id="text1237"><tspan
       sodipodi:role="line"
       id="tspan1235"
       x="243.92032"
       y="346.073">$x$</tspan></text>
  <text
     xml:space="preserve"
     style="font-style:normal;font-weight:normal;font-size:20px;line-height:1.25;font-family:sans-serif;letter-spacing:0px;word-spacing:0px;fill:#000000;fill-opacity:1;stroke:none"
     x="243.92017"
     y="705.94757"
     id="text1237-3"><tspan
       sodipodi:role="line"
       id="tspan1235-6"
       x="243.92017"
       y="705.94757">$x$</tspan></text>
  <text
     xml:space="preserve"
     style="font-style:normal;font-weight:normal;font-size:20px;line-height:1.25;font-family:sans-serif;letter-spacing:0px;word-spacing:0px;fill:#000000;fill-opacity:1;stroke:none"
     x="-222.63887"
     y="15.195312"
     id="text1259"
     transform="rotate(-90)"><tspan
       sodipodi:role="line"
       id="tspan1257"
       x="-222.63887"
       y="15.195312">$V(x)-28505$</tspan></text>
  <text
     xml:space="preserve"
     style="font-style:normal;font-weight:normal;font-size:20px;line-height:1.25;font-family:sans-serif;letter-spacing:0px;word-spacing:0px;fill:#000000;fill-opacity:1;stroke:none"
     x="-575.36078"
     y="15.195633"
     id="text1259-7"
     transform="rotate(-90)"><tspan
       sodipodi:role="line"
       id="tspan1257-5"
       x="-575.36078"
       y="15.195633">$\log(V(x))$</tspan></text>
  <text
     xml:space="preserve"
     style="font-style:normal;font-weight:normal;font-size:20px;line-height:1.25;font-family:sans-serif;letter-spacing:0px;word-spacing:0px;fill:#000000;fill-opacity:1;stroke:none"
     x="379.54474"
     y="599.02728"
     id="text1281"><tspan
       sodipodi:role="line"
       id="tspan1279"
       x="379.54474"
       y="599.02728">$V(x)$</tspan></text>
  <text
     xml:space="preserve"
     style="font-style:normal;font-weight:normal;font-size:20px;line-height:1.25;font-family:sans-serif;letter-spacing:0px;word-spacing:0px;fill:#000000;fill-opacity:1;stroke:none"
     x="379.54517"
     y="621.37207"
     id="text1281-3"><tspan
       sodipodi:role="line"
       id="tspan1279-5"
       x="379.54517"
       y="621.37207">$B(x)$</tspan></text>
  <text
     xml:space="preserve"
     style="font-style:normal;font-weight:normal;font-size:20px;line-height:1.25;font-family:sans-serif;letter-spacing:0px;word-spacing:0px;fill:#000000;fill-opacity:1;stroke:none"
     x="-1.71875"
     y="21.150721"
     id="text1322"><tspan
       sodipodi:role="line"
       id="tspan1320"
       x="-1.71875"
       y="21.150721">(a)</tspan></text>
  <text
     xml:space="preserve"
     style="font-style:normal;font-weight:normal;font-size:20px;line-height:1.25;font-family:sans-serif;letter-spacing:0px;word-spacing:0px;fill:#000000;fill-opacity:1;stroke:none"
     x="-1.71875"
     y="376.23972"
     id="text1322-6"><tspan
       sodipodi:role="line"
       id="tspan1320-2"
       x="-1.71875"
       y="376.23972">(b)</tspan></text>
</svg>
