<?xml version="1.0" encoding="utf-8"?>
<svg xmlns="http://www.w3.org/2000/svg" xmlns:xlink="http://www.w3.org/1999/xlink" width="400" height="800" viewBox="0 0 400 800">
<defs>
  <clipPath id="clip6500">
    <rect x="0" y="0" width="400" height="800"/>
  </clipPath>
</defs>
<polygon clip-path="url(#clip6500)" points="
0,800 400,800 400,0 0,0 
  " fill="#ffffff" fill-opacity="1"/>
<defs>
  <clipPath id="clip6501">
    <rect x="160" y="80" width="400" height="561"/>
  </clipPath>
</defs>
<polygon clip-path="url(#clip6500)" points="
24.1113,371.677 380.315,371.677 380.315,11.811 24.1113,11.811 
  " fill="#ffffff" fill-opacity="1"/>
<defs>
  <clipPath id="clip6502">
    <rect x="24" y="11" width="357" height="361"/>
  </clipPath>
</defs>
<polyline clip-path="url(#clip6502)" style="stroke:#000000; stroke-width:0.5; stroke-opacity:0.1; fill:none" points="
  34.1925,371.677 34.1925,11.811 
  "/>
<polyline clip-path="url(#clip6502)" style="stroke:#000000; stroke-width:0.5; stroke-opacity:0.1; fill:none" points="
  146.206,371.677 146.206,11.811 
  "/>
<polyline clip-path="url(#clip6502)" style="stroke:#000000; stroke-width:0.5; stroke-opacity:0.1; fill:none" points="
  258.22,371.677 258.22,11.811 
  "/>
<polyline clip-path="url(#clip6502)" style="stroke:#000000; stroke-width:0.5; stroke-opacity:0.1; fill:none" points="
  370.234,371.677 370.234,11.811 
  "/>
<polyline clip-path="url(#clip6502)" style="stroke:#000000; stroke-width:0.5; stroke-opacity:0.1; fill:none" points="
  24.1113,371.677 380.315,371.677 
  "/>
<polyline clip-path="url(#clip6502)" style="stroke:#000000; stroke-width:0.5; stroke-opacity:0.1; fill:none" points="
  24.1113,281.711 380.315,281.711 
  "/>
<polyline clip-path="url(#clip6502)" style="stroke:#000000; stroke-width:0.5; stroke-opacity:0.1; fill:none" points="
  24.1113,191.744 380.315,191.744 
  "/>
<polyline clip-path="url(#clip6502)" style="stroke:#000000; stroke-width:0.5; stroke-opacity:0.1; fill:none" points="
  24.1113,101.778 380.315,101.778 
  "/>
<polyline clip-path="url(#clip6502)" style="stroke:#000000; stroke-width:0.5; stroke-opacity:0.1; fill:none" points="
  24.1113,11.811 380.315,11.811 
  "/>
<polyline clip-path="url(#clip6500)" style="stroke:#000000; stroke-width:1; stroke-opacity:1; fill:none" points="
  24.1113,371.677 380.315,371.677 
  "/>
<polyline clip-path="url(#clip6500)" style="stroke:#000000; stroke-width:1; stroke-opacity:1; fill:none" points="
  24.1113,371.677 24.1113,11.811 
  "/>
<polyline clip-path="url(#clip6500)" style="stroke:#000000; stroke-width:1; stroke-opacity:1; fill:none" points="
  34.1925,371.677 34.1925,366.279 
  "/>
<polyline clip-path="url(#clip6500)" style="stroke:#000000; stroke-width:1; stroke-opacity:1; fill:none" points="
  146.206,371.677 146.206,366.279 
  "/>
<polyline clip-path="url(#clip6500)" style="stroke:#000000; stroke-width:1; stroke-opacity:1; fill:none" points="
  258.22,371.677 258.22,366.279 
  "/>
<polyline clip-path="url(#clip6500)" style="stroke:#000000; stroke-width:1; stroke-opacity:1; fill:none" points="
  370.234,371.677 370.234,366.279 
  "/>
<polyline clip-path="url(#clip6500)" style="stroke:#000000; stroke-width:1; stroke-opacity:1; fill:none" points="
  24.1113,371.677 29.4543,371.677 
  "/>
<polyline clip-path="url(#clip6500)" style="stroke:#000000; stroke-width:1; stroke-opacity:1; fill:none" points="
  24.1113,281.711 29.4543,281.711 
  "/>
<polyline clip-path="url(#clip6500)" style="stroke:#000000; stroke-width:1; stroke-opacity:1; fill:none" points="
  24.1113,191.744 29.4543,191.744 
  "/>
<polyline clip-path="url(#clip6500)" style="stroke:#000000; stroke-width:1; stroke-opacity:1; fill:none" points="
  24.1113,101.778 29.4543,101.778 
  "/>
<polyline clip-path="url(#clip6500)" style="stroke:#000000; stroke-width:1; stroke-opacity:1; fill:none" points="
  24.1113,11.811 29.4543,11.811 
  "/>
<g clip-path="url(#clip6500)">
<text style="fill:#000000; fill-opacity:1; font-family:Arial,Helvetica Neue,Helvetica,sans-serif; font-size:12; text-anchor:middle;" transform="rotate(0, 34.1925, 386.477)" x="34.1925" y="386.477">-1.5</text>
</g>
<g clip-path="url(#clip6500)">
<text style="fill:#000000; fill-opacity:1; font-family:Arial,Helvetica Neue,Helvetica,sans-serif; font-size:12; text-anchor:middle;" transform="rotate(0, 146.206, 386.477)" x="146.206" y="386.477">-1.0</text>
</g>
<g clip-path="url(#clip6500)">
<text style="fill:#000000; fill-opacity:1; font-family:Arial,Helvetica Neue,Helvetica,sans-serif; font-size:12; text-anchor:middle;" transform="rotate(0, 258.22, 386.477)" x="258.22" y="386.477">-0.5</text>
</g>
<g clip-path="url(#clip6500)">
<text style="fill:#000000; fill-opacity:1; font-family:Arial,Helvetica Neue,Helvetica,sans-serif; font-size:12; text-anchor:middle;" transform="rotate(0, 370.234, 386.477)" x="370.234" y="386.477">0.0</text>
</g>
<g clip-path="url(#clip6500)">
<text style="fill:#000000; fill-opacity:1; font-family:Arial,Helvetica Neue,Helvetica,sans-serif; font-size:12; text-anchor:end;" transform="rotate(0, 16.1113, 376.177)" x="16.1113" y="376.177">0.0</text>
</g>
<g clip-path="url(#clip6500)">
<text style="fill:#000000; fill-opacity:1; font-family:Arial,Helvetica Neue,Helvetica,sans-serif; font-size:12; text-anchor:end;" transform="rotate(0, 16.1113, 286.211)" x="16.1113" y="286.211">0.1</text>
</g>
<g clip-path="url(#clip6500)">
<text style="fill:#000000; fill-opacity:1; font-family:Arial,Helvetica Neue,Helvetica,sans-serif; font-size:12; text-anchor:end;" transform="rotate(0, 16.1113, 196.244)" x="16.1113" y="196.244">0.2</text>
</g>
<g clip-path="url(#clip6500)">
<text style="fill:#000000; fill-opacity:1; font-family:Arial,Helvetica Neue,Helvetica,sans-serif; font-size:12; text-anchor:end;" transform="rotate(0, 16.1113, 106.278)" x="16.1113" y="106.278">0.3</text>
</g>
<g clip-path="url(#clip6500)">
<text style="fill:#000000; fill-opacity:1; font-family:Arial,Helvetica Neue,Helvetica,sans-serif; font-size:12; text-anchor:end;" transform="rotate(0, 16.1113, 16.311)" x="16.1113" y="16.311">0.4</text>
</g>
<polyline clip-path="url(#clip6502)" style="stroke:#009af9; stroke-width:1; stroke-opacity:1; fill:none" points="
  34.1925,20.8722 36.4328,37.454 38.673,53.5275 40.9133,69.1006 43.1536,84.1814 45.3939,98.7777 47.6341,112.897 49.8744,126.548 52.1147,139.738 54.355,152.474 
  56.5952,164.764 58.8355,176.616 61.0758,188.038 63.3161,199.036 65.5563,209.618 67.7966,219.791 70.0369,229.564 72.2772,238.942 74.5174,247.934 76.7577,256.546 
  78.998,264.786 81.2383,272.66 83.4785,280.175 85.7188,287.339 87.9591,294.158 90.1994,300.639 92.4396,306.789 94.6799,312.615 96.9202,318.123 99.1605,323.319 
  101.401,328.211 103.641,332.805 105.881,337.107 108.122,341.124 110.362,344.861 112.602,348.326 114.842,351.525 117.083,354.463 119.323,357.147 121.563,359.582 
  123.803,361.776 126.044,363.733 128.284,365.461 130.524,366.963 132.765,368.247 135.005,369.318 137.245,370.182 139.485,370.844 141.726,371.311 143.966,371.586 
  146.206,371.677 148.447,371.588 150.687,371.325 152.927,370.893 155.167,370.297 157.408,369.543 159.648,368.635 161.888,367.579 164.128,366.38 166.369,365.043 
  168.609,363.572 170.849,361.973 173.09,360.25 175.33,358.408 177.57,356.453 179.81,354.388 182.051,352.218 184.291,349.947 186.531,347.581 188.771,345.124 
  191.012,342.579 193.252,339.952 195.492,337.247 197.733,334.468 199.973,331.618 202.213,328.703 204.453,325.726 206.694,322.691 208.934,319.603 211.174,316.464 
  213.414,313.28 215.655,310.053 217.895,306.788 220.135,303.489 222.376,300.158 224.616,296.799 226.856,293.416 229.096,290.013 231.337,286.593 233.577,283.159 
  235.817,279.715 238.058,276.263 240.298,272.807 242.538,269.351 244.778,265.897 247.019,262.448 249.259,259.007 251.499,255.578 253.739,252.163 255.98,248.765 
  258.22,245.386 260.46,242.03 262.701,238.699 264.941,235.396 267.181,232.123 269.421,228.883 271.662,225.678 273.902,222.511 276.142,219.383 278.382,216.298 
  280.623,213.258 282.863,210.264 285.103,207.319 287.344,204.425 289.584,201.584 291.824,198.798 294.064,196.068 296.305,193.397 298.545,190.787 300.785,188.239 
  303.025,185.755 305.266,183.336 307.506,180.984 309.746,178.702 311.987,176.489 314.227,174.348 316.467,172.28 318.707,170.286 320.948,168.367 323.188,166.526 
  325.428,164.762 327.669,163.078 329.909,161.473 332.149,159.95 334.389,158.508 336.63,157.15 338.87,155.875 341.11,154.685 343.35,153.58 345.591,152.561 
  347.831,151.628 350.071,150.783 352.312,150.025 354.552,149.355 356.792,148.774 359.032,148.281 361.273,147.878 363.513,147.564 365.753,147.34 367.993,147.205 
  370.234,147.16 
  "/>
<polyline clip-path="url(#clip6502)" style="stroke:#e26f46; stroke-width:0; stroke-opacity:1; fill:none" points="
  34.1925,20.0681 56.5952,164.323 78.998,264.571 101.401,328.128 123.803,361.758 146.206,371.677 168.609,363.558 191.012,342.529 213.414,313.18 235.817,279.558 
  258.22,245.17 280.623,212.986 303.025,185.435 325.428,164.406 347.831,151.248 370.234,146.772 
  "/>
<circle clip-path="url(#clip6502)" style="fill:#000000; stroke:none; fill-opacity:1" cx="34.1925" cy="20.0681" r="3"/>
<circle clip-path="url(#clip6502)" style="fill:#e26f46; stroke:none; fill-opacity:1" cx="34.1925" cy="20.0681" r="2"/>
<circle clip-path="url(#clip6502)" style="fill:#000000; stroke:none; fill-opacity:1" cx="56.5952" cy="164.323" r="3"/>
<circle clip-path="url(#clip6502)" style="fill:#e26f46; stroke:none; fill-opacity:1" cx="56.5952" cy="164.323" r="2"/>
<circle clip-path="url(#clip6502)" style="fill:#000000; stroke:none; fill-opacity:1" cx="78.998" cy="264.571" r="3"/>
<circle clip-path="url(#clip6502)" style="fill:#e26f46; stroke:none; fill-opacity:1" cx="78.998" cy="264.571" r="2"/>
<circle clip-path="url(#clip6502)" style="fill:#000000; stroke:none; fill-opacity:1" cx="101.401" cy="328.128" r="3"/>
<circle clip-path="url(#clip6502)" style="fill:#e26f46; stroke:none; fill-opacity:1" cx="101.401" cy="328.128" r="2"/>
<circle clip-path="url(#clip6502)" style="fill:#000000; stroke:none; fill-opacity:1" cx="123.803" cy="361.758" r="3"/>
<circle clip-path="url(#clip6502)" style="fill:#e26f46; stroke:none; fill-opacity:1" cx="123.803" cy="361.758" r="2"/>
<circle clip-path="url(#clip6502)" style="fill:#000000; stroke:none; fill-opacity:1" cx="146.206" cy="371.677" r="3"/>
<circle clip-path="url(#clip6502)" style="fill:#e26f46; stroke:none; fill-opacity:1" cx="146.206" cy="371.677" r="2"/>
<circle clip-path="url(#clip6502)" style="fill:#000000; stroke:none; fill-opacity:1" cx="168.609" cy="363.558" r="3"/>
<circle clip-path="url(#clip6502)" style="fill:#e26f46; stroke:none; fill-opacity:1" cx="168.609" cy="363.558" r="2"/>
<circle clip-path="url(#clip6502)" style="fill:#000000; stroke:none; fill-opacity:1" cx="191.012" cy="342.529" r="3"/>
<circle clip-path="url(#clip6502)" style="fill:#e26f46; stroke:none; fill-opacity:1" cx="191.012" cy="342.529" r="2"/>
<circle clip-path="url(#clip6502)" style="fill:#000000; stroke:none; fill-opacity:1" cx="213.414" cy="313.18" r="3"/>
<circle clip-path="url(#clip6502)" style="fill:#e26f46; stroke:none; fill-opacity:1" cx="213.414" cy="313.18" r="2"/>
<circle clip-path="url(#clip6502)" style="fill:#000000; stroke:none; fill-opacity:1" cx="235.817" cy="279.558" r="3"/>
<circle clip-path="url(#clip6502)" style="fill:#e26f46; stroke:none; fill-opacity:1" cx="235.817" cy="279.558" r="2"/>
<circle clip-path="url(#clip6502)" style="fill:#000000; stroke:none; fill-opacity:1" cx="258.22" cy="245.17" r="3"/>
<circle clip-path="url(#clip6502)" style="fill:#e26f46; stroke:none; fill-opacity:1" cx="258.22" cy="245.17" r="2"/>
<circle clip-path="url(#clip6502)" style="fill:#000000; stroke:none; fill-opacity:1" cx="280.623" cy="212.986" r="3"/>
<circle clip-path="url(#clip6502)" style="fill:#e26f46; stroke:none; fill-opacity:1" cx="280.623" cy="212.986" r="2"/>
<circle clip-path="url(#clip6502)" style="fill:#000000; stroke:none; fill-opacity:1" cx="303.025" cy="185.435" r="3"/>
<circle clip-path="url(#clip6502)" style="fill:#e26f46; stroke:none; fill-opacity:1" cx="303.025" cy="185.435" r="2"/>
<circle clip-path="url(#clip6502)" style="fill:#000000; stroke:none; fill-opacity:1" cx="325.428" cy="164.406" r="3"/>
<circle clip-path="url(#clip6502)" style="fill:#e26f46; stroke:none; fill-opacity:1" cx="325.428" cy="164.406" r="2"/>
<circle clip-path="url(#clip6502)" style="fill:#000000; stroke:none; fill-opacity:1" cx="347.831" cy="151.248" r="3"/>
<circle clip-path="url(#clip6502)" style="fill:#e26f46; stroke:none; fill-opacity:1" cx="347.831" cy="151.248" r="2"/>
<circle clip-path="url(#clip6502)" style="fill:#000000; stroke:none; fill-opacity:1" cx="370.234" cy="146.772" r="3"/>
<circle clip-path="url(#clip6502)" style="fill:#e26f46; stroke:none; fill-opacity:1" cx="370.234" cy="146.772" r="2"/>
<polygon clip-path="url(#clip6500)" points="
250.239,90.051 356.315,90.051 356.315,44.691 250.239,44.691 
  " fill="#ffffff" fill-opacity="1"/>
<polyline clip-path="url(#clip6500)" style="stroke:#000000; stroke-width:1; stroke-opacity:1; fill:none" points="
  250.239,90.051 356.315,90.051 356.315,44.691 250.239,44.691 250.239,90.051 
  "/>
<polyline clip-path="url(#clip6500)" style="stroke:#009af9; stroke-width:1; stroke-opacity:1; fill:none" points="
  258.239,59.811 306.239,59.811 
  "/>
<g clip-path="url(#clip6500)">
<text style="fill:#000000; fill-opacity:1; font-family:Arial,Helvetica Neue,Helvetica,sans-serif; font-size:12; text-anchor:start;" transform="rotate(0, 314.239, 64.311)" x="314.239" y="64.311">SOS</text>
</g>
<polyline clip-path="url(#clip6500)" style="stroke:#e26f46; stroke-width:0; stroke-opacity:1; fill:none" points="
  258.239,74.931 306.239,74.931 
  "/>
<circle clip-path="url(#clip6500)" style="fill:#000000; stroke:none; fill-opacity:1" cx="286.239" cy="74.931" r="6"/>
<circle clip-path="url(#clip6500)" style="fill:#e26f46; stroke:none; fill-opacity:1" cx="286.239" cy="74.931" r="5"/>
<g clip-path="url(#clip6500)">
<text style="fill:#000000; fill-opacity:1; font-family:Arial,Helvetica Neue,Helvetica,sans-serif; font-size:12; text-anchor:start;" transform="rotate(0, 314.239, 79.431)" x="314.239" y="79.431">MAP</text>
</g>
<polygon clip-path="url(#clip6500)" points="
24.1113,771.677 380.315,771.677 380.315,411.811 24.1113,411.811 
  " fill="#ffffff" fill-opacity="1"/>
<defs>
  <clipPath id="clip6503">
    <rect x="24" y="411" width="357" height="361"/>
  </clipPath>
</defs>
<polyline clip-path="url(#clip6503)" style="stroke:#000000; stroke-width:0.5; stroke-opacity:0.1; fill:none" points="
  34.1925,771.677 34.1925,411.811 
  "/>
<polyline clip-path="url(#clip6503)" style="stroke:#000000; stroke-width:0.5; stroke-opacity:0.1; fill:none" points="
  90.1994,771.677 90.1994,411.811 
  "/>
<polyline clip-path="url(#clip6503)" style="stroke:#000000; stroke-width:0.5; stroke-opacity:0.1; fill:none" points="
  146.206,771.677 146.206,411.811 
  "/>
<polyline clip-path="url(#clip6503)" style="stroke:#000000; stroke-width:0.5; stroke-opacity:0.1; fill:none" points="
  202.213,771.677 202.213,411.811 
  "/>
<polyline clip-path="url(#clip6503)" style="stroke:#000000; stroke-width:0.5; stroke-opacity:0.1; fill:none" points="
  258.22,771.677 258.22,411.811 
  "/>
<polyline clip-path="url(#clip6503)" style="stroke:#000000; stroke-width:0.5; stroke-opacity:0.1; fill:none" points="
  314.227,771.677 314.227,411.811 
  "/>
<polyline clip-path="url(#clip6503)" style="stroke:#000000; stroke-width:0.5; stroke-opacity:0.1; fill:none" points="
  370.234,771.677 370.234,411.811 
  "/>
<polyline clip-path="url(#clip6503)" style="stroke:#000000; stroke-width:0.5; stroke-opacity:0.1; fill:none" points="
  24.1113,771.677 380.315,771.677 
  "/>
<polyline clip-path="url(#clip6503)" style="stroke:#000000; stroke-width:0.5; stroke-opacity:0.1; fill:none" points="
  24.1113,699.704 380.315,699.704 
  "/>
<polyline clip-path="url(#clip6503)" style="stroke:#000000; stroke-width:0.5; stroke-opacity:0.1; fill:none" points="
  24.1113,627.731 380.315,627.731 
  "/>
<polyline clip-path="url(#clip6503)" style="stroke:#000000; stroke-width:0.5; stroke-opacity:0.1; fill:none" points="
  24.1113,555.757 380.315,555.757 
  "/>
<polyline clip-path="url(#clip6503)" style="stroke:#000000; stroke-width:0.5; stroke-opacity:0.1; fill:none" points="
  24.1113,483.784 380.315,483.784 
  "/>
<polyline clip-path="url(#clip6503)" style="stroke:#000000; stroke-width:0.5; stroke-opacity:0.1; fill:none" points="
  24.1113,411.811 380.315,411.811 
  "/>
<polyline clip-path="url(#clip6500)" style="stroke:#000000; stroke-width:1; stroke-opacity:1; fill:none" points="
  24.1113,771.677 380.315,771.677 
  "/>
<polyline clip-path="url(#clip6500)" style="stroke:#000000; stroke-width:1; stroke-opacity:1; fill:none" points="
  24.1113,771.677 24.1113,411.811 
  "/>
<polyline clip-path="url(#clip6500)" style="stroke:#000000; stroke-width:1; stroke-opacity:1; fill:none" points="
  34.1925,771.677 34.1925,766.279 
  "/>
<polyline clip-path="url(#clip6500)" style="stroke:#000000; stroke-width:1; stroke-opacity:1; fill:none" points="
  90.1994,771.677 90.1994,766.279 
  "/>
<polyline clip-path="url(#clip6500)" style="stroke:#000000; stroke-width:1; stroke-opacity:1; fill:none" points="
  146.206,771.677 146.206,766.279 
  "/>
<polyline clip-path="url(#clip6500)" style="stroke:#000000; stroke-width:1; stroke-opacity:1; fill:none" points="
  202.213,771.677 202.213,766.279 
  "/>
<polyline clip-path="url(#clip6500)" style="stroke:#000000; stroke-width:1; stroke-opacity:1; fill:none" points="
  258.22,771.677 258.22,766.279 
  "/>
<polyline clip-path="url(#clip6500)" style="stroke:#000000; stroke-width:1; stroke-opacity:1; fill:none" points="
  314.227,771.677 314.227,766.279 
  "/>
<polyline clip-path="url(#clip6500)" style="stroke:#000000; stroke-width:1; stroke-opacity:1; fill:none" points="
  370.234,771.677 370.234,766.279 
  "/>
<polyline clip-path="url(#clip6500)" style="stroke:#000000; stroke-width:1; stroke-opacity:1; fill:none" points="
  24.1113,771.677 29.4543,771.677 
  "/>
<polyline clip-path="url(#clip6500)" style="stroke:#000000; stroke-width:1; stroke-opacity:1; fill:none" points="
  24.1113,699.704 29.4543,699.704 
  "/>
<polyline clip-path="url(#clip6500)" style="stroke:#000000; stroke-width:1; stroke-opacity:1; fill:none" points="
  24.1113,627.731 29.4543,627.731 
  "/>
<polyline clip-path="url(#clip6500)" style="stroke:#000000; stroke-width:1; stroke-opacity:1; fill:none" points="
  24.1113,555.757 29.4543,555.757 
  "/>
<polyline clip-path="url(#clip6500)" style="stroke:#000000; stroke-width:1; stroke-opacity:1; fill:none" points="
  24.1113,483.784 29.4543,483.784 
  "/>
<polyline clip-path="url(#clip6500)" style="stroke:#000000; stroke-width:1; stroke-opacity:1; fill:none" points="
  24.1113,411.811 29.4543,411.811 
  "/>
<g clip-path="url(#clip6500)">
<text style="fill:#000000; fill-opacity:1; font-family:Arial,Helvetica Neue,Helvetica,sans-serif; font-size:12; text-anchor:middle;" transform="rotate(0, 34.1925, 786.477)" x="34.1925" y="786.477">-1.5</text>
</g>
<g clip-path="url(#clip6500)">
<text style="fill:#000000; fill-opacity:1; font-family:Arial,Helvetica Neue,Helvetica,sans-serif; font-size:12; text-anchor:middle;" transform="rotate(0, 90.1994, 786.477)" x="90.1994" y="786.477">-1.0</text>
</g>
<g clip-path="url(#clip6500)">
<text style="fill:#000000; fill-opacity:1; font-family:Arial,Helvetica Neue,Helvetica,sans-serif; font-size:12; text-anchor:middle;" transform="rotate(0, 146.206, 786.477)" x="146.206" y="786.477">-0.5</text>
</g>
<g clip-path="url(#clip6500)">
<text style="fill:#000000; fill-opacity:1; font-family:Arial,Helvetica Neue,Helvetica,sans-serif; font-size:12; text-anchor:middle;" transform="rotate(0, 202.213, 786.477)" x="202.213" y="786.477">0.0</text>
</g>
<g clip-path="url(#clip6500)">
<text style="fill:#000000; fill-opacity:1; font-family:Arial,Helvetica Neue,Helvetica,sans-serif; font-size:12; text-anchor:middle;" transform="rotate(0, 258.22, 786.477)" x="258.22" y="786.477">0.5</text>
</g>
<g clip-path="url(#clip6500)">
<text style="fill:#000000; fill-opacity:1; font-family:Arial,Helvetica Neue,Helvetica,sans-serif; font-size:12; text-anchor:middle;" transform="rotate(0, 314.227, 786.477)" x="314.227" y="786.477">1.0</text>
</g>
<g clip-path="url(#clip6500)">
<text style="fill:#000000; fill-opacity:1; font-family:Arial,Helvetica Neue,Helvetica,sans-serif; font-size:12; text-anchor:middle;" transform="rotate(0, 370.234, 786.477)" x="370.234" y="786.477">1.5</text>
</g>
<g clip-path="url(#clip6500)">
<text style="fill:#000000; fill-opacity:1; font-family:Arial,Helvetica Neue,Helvetica,sans-serif; font-size:12; text-anchor:end;" transform="rotate(0, 16.1113, 776.177)" x="16.1113" y="776.177">0.0</text>
</g>
<g clip-path="url(#clip6500)">
<text style="fill:#000000; fill-opacity:1; font-family:Arial,Helvetica Neue,Helvetica,sans-serif; font-size:12; text-anchor:end;" transform="rotate(0, 16.1113, 704.204)" x="16.1113" y="704.204">0.5</text>
</g>
<g clip-path="url(#clip6500)">
<text style="fill:#000000; fill-opacity:1; font-family:Arial,Helvetica Neue,Helvetica,sans-serif; font-size:12; text-anchor:end;" transform="rotate(0, 16.1113, 632.231)" x="16.1113" y="632.231">1.0</text>
</g>
<g clip-path="url(#clip6500)">
<text style="fill:#000000; fill-opacity:1; font-family:Arial,Helvetica Neue,Helvetica,sans-serif; font-size:12; text-anchor:end;" transform="rotate(0, 16.1113, 560.257)" x="16.1113" y="560.257">1.5</text>
</g>
<g clip-path="url(#clip6500)">
<text style="fill:#000000; fill-opacity:1; font-family:Arial,Helvetica Neue,Helvetica,sans-serif; font-size:12; text-anchor:end;" transform="rotate(0, 16.1113, 488.284)" x="16.1113" y="488.284">2.0</text>
</g>
<g clip-path="url(#clip6500)">
<text style="fill:#000000; fill-opacity:1; font-family:Arial,Helvetica Neue,Helvetica,sans-serif; font-size:12; text-anchor:end;" transform="rotate(0, 16.1113, 416.311)" x="16.1113" y="416.311">2.5</text>
</g>
<polyline clip-path="url(#clip6503)" style="stroke:#009af9; stroke-width:1; stroke-opacity:1; fill:none" points="
  34.1925,201.2 35.3126,208.781 36.4328,216.312 37.5529,223.791 38.673,231.22 39.7932,238.598 40.9133,245.926 42.0335,253.202 43.1536,260.428 44.2737,267.604 
  45.3939,274.728 46.514,281.802 47.6341,288.825 48.7543,295.798 49.8744,302.72 50.9946,309.591 52.1147,316.411 53.2348,323.181 54.355,329.9 55.4751,336.568 
  56.5952,343.186 57.7154,349.752 58.8355,356.269 59.9557,362.734 61.0758,369.149 62.1959,375.513 63.3161,381.826 64.4362,388.088 65.5563,394.3 66.6765,400.461 
  67.7966,406.572 68.9168,412.632 70.0369,418.641 71.157,424.599 72.2772,430.507 73.3973,436.363 74.5174,442.17 75.6376,447.925 76.7577,453.63 77.8779,459.284 
  78.998,464.887 80.1181,470.44 81.2383,475.942 82.3584,481.393 83.4785,486.794 84.5987,492.143 85.7188,497.443 86.839,502.691 87.9591,507.889 89.0792,513.036 
  90.1994,518.132 91.3195,523.177 92.4396,528.172 93.5598,533.116 94.6799,538.01 95.8001,542.852 96.9202,547.644 98.0403,552.386 99.1605,557.076 100.281,561.716 
  101.401,566.305 102.521,570.844 103.641,575.332 104.761,579.769 105.881,584.155 107.001,588.491 108.122,592.776 109.242,597.01 110.362,601.193 111.482,605.326 
  112.602,609.408 113.722,613.439 114.842,617.42 115.963,621.35 117.083,625.229 118.203,629.058 119.323,632.836 120.443,636.563 121.563,640.239 122.683,643.865 
  123.803,647.44 124.924,650.964 126.044,654.438 127.164,657.861 128.284,661.233 129.404,664.554 130.524,667.825 131.644,671.045 132.765,674.214 133.885,677.333 
  135.005,680.401 136.125,683.418 137.245,686.384 138.365,689.3 139.485,692.165 140.606,694.98 141.726,697.743 142.846,700.456 143.966,703.118 145.086,705.73 
  146.206,708.291 147.326,710.801 148.447,713.26 149.567,715.669 150.687,718.027 151.807,720.334 152.927,722.591 154.047,724.797 155.167,726.952 156.287,729.056 
  157.408,731.11 158.528,733.113 159.648,735.065 160.768,736.967 161.888,738.818 163.008,740.618 164.128,742.367 165.249,744.066 166.369,745.714 167.489,747.311 
  168.609,748.858 169.729,750.354 170.849,751.799 171.969,753.194 173.09,754.537 174.21,755.83 175.33,757.073 176.45,758.264 177.57,759.405 178.69,760.496 
  179.81,761.535 180.931,762.524 182.051,763.462 183.171,764.35 184.291,765.186 185.411,765.972 186.531,766.708 187.651,767.392 188.771,768.026 189.892,768.609 
  191.012,769.142 192.132,769.623 193.252,770.054 194.372,770.435 195.492,770.764 196.612,771.043 197.733,771.271 198.853,771.449 199.973,771.576 201.093,771.652 
  202.213,771.677 203.333,771.652 204.453,771.576 205.574,771.449 206.694,771.271 207.814,771.043 208.934,770.764 210.054,770.435 211.174,770.054 212.294,769.623 
  213.414,769.142 214.535,768.609 215.655,768.026 216.775,767.392 217.895,766.708 219.015,765.972 220.135,765.186 221.255,764.35 222.376,763.462 223.496,762.524 
  224.616,761.535 225.736,760.496 226.856,759.405 227.976,758.264 229.096,757.073 230.217,755.83 231.337,754.537 232.457,753.194 233.577,751.799 234.697,750.354 
  235.817,748.858 236.937,747.311 238.058,745.714 239.178,744.066 240.298,742.367 241.418,740.618 242.538,738.818 243.658,736.967 244.778,735.065 245.898,733.113 
  247.019,731.11 248.139,729.056 249.259,726.952 250.379,724.797 251.499,722.591 252.619,720.334 253.739,718.027 254.86,715.669 255.98,713.26 257.1,710.801 
  258.22,708.291 259.34,705.73 260.46,703.118 261.58,700.456 262.701,697.743 263.821,694.98 264.941,692.165 266.061,689.3 267.181,686.384 268.301,683.418 
  269.421,680.401 270.541,677.333 271.662,674.214 272.782,671.045 273.902,667.825 275.022,664.554 276.142,661.233 277.262,657.861 278.382,654.438 279.503,650.964 
  280.623,647.44 281.743,643.865 282.863,640.239 283.983,636.563 285.103,632.836 286.223,629.058 287.344,625.229 288.464,621.35 289.584,617.42 290.704,613.439 
  291.824,609.408 292.944,605.326 294.064,601.193 295.185,597.01 296.305,592.776 297.425,588.491 298.545,584.155 299.665,579.769 300.785,575.332 301.905,570.844 
  303.025,566.305 304.146,561.716 305.266,557.076 306.386,552.386 307.506,547.644 308.626,542.852 309.746,538.01 310.866,533.116 311.987,528.172 313.107,523.177 
  314.227,518.132 315.347,513.036 316.467,507.889 317.587,502.691 318.707,497.443 319.828,492.143 320.948,486.794 322.068,481.393 323.188,475.942 324.308,470.44 
  325.428,464.887 326.548,459.284 327.669,453.63 328.789,447.925 329.909,442.17 331.029,436.363 332.149,430.507 333.269,424.599 334.389,418.641 335.509,412.632 
  336.63,406.572 337.75,400.461 338.87,394.3 339.99,388.088 341.11,381.826 342.23,375.513 343.35,369.149 344.471,362.734 345.591,356.269 346.711,349.752 
  347.831,343.186 348.951,336.568 350.071,329.9 351.191,323.181 352.312,316.411 353.432,309.591 354.552,302.72 355.672,295.798 356.792,288.825 357.912,281.802 
  359.032,274.728 360.152,267.604 361.273,260.428 362.393,253.202 363.513,245.926 364.633,238.598 365.753,231.22 366.873,223.791 367.993,216.312 369.114,208.781 
  370.234,201.2 
  "/>
<polyline clip-path="url(#clip6503)" style="stroke:#e26f46; stroke-width:0; stroke-opacity:1; fill:none" points="
  34.1925,54.8717 45.3939,138.589 56.5952,218.219 67.7966,293.719 78.998,364.913 90.1994,431.512 101.401,493.161 112.602,549.483 123.803,600.11 135.005,644.701 
  146.206,682.953 157.408,714.608 168.609,739.45 179.81,757.314 191.012,768.08 202.213,771.677 213.414,768.08 224.616,757.314 235.817,739.45 247.019,714.608 
  258.22,682.953 269.421,644.701 280.623,600.11 291.824,549.483 303.025,493.161 314.227,431.512 325.428,364.913 336.63,293.719 347.831,218.219 359.032,138.589 
  370.234,54.8717 
  "/>
<circle clip-path="url(#clip6503)" style="fill:#000000; stroke:none; fill-opacity:1" cx="90.1994" cy="431.512" r="3"/>
<circle clip-path="url(#clip6503)" style="fill:#e26f46; stroke:none; fill-opacity:1" cx="90.1994" cy="431.512" r="2"/>
<circle clip-path="url(#clip6503)" style="fill:#000000; stroke:none; fill-opacity:1" cx="101.401" cy="493.161" r="3"/>
<circle clip-path="url(#clip6503)" style="fill:#e26f46; stroke:none; fill-opacity:1" cx="101.401" cy="493.161" r="2"/>
<circle clip-path="url(#clip6503)" style="fill:#000000; stroke:none; fill-opacity:1" cx="112.602" cy="549.483" r="3"/>
<circle clip-path="url(#clip6503)" style="fill:#e26f46; stroke:none; fill-opacity:1" cx="112.602" cy="549.483" r="2"/>
<circle clip-path="url(#clip6503)" style="fill:#000000; stroke:none; fill-opacity:1" cx="123.803" cy="600.11" r="3"/>
<circle clip-path="url(#clip6503)" style="fill:#e26f46; stroke:none; fill-opacity:1" cx="123.803" cy="600.11" r="2"/>
<circle clip-path="url(#clip6503)" style="fill:#000000; stroke:none; fill-opacity:1" cx="135.005" cy="644.701" r="3"/>
<circle clip-path="url(#clip6503)" style="fill:#e26f46; stroke:none; fill-opacity:1" cx="135.005" cy="644.701" r="2"/>
<circle clip-path="url(#clip6503)" style="fill:#000000; stroke:none; fill-opacity:1" cx="146.206" cy="682.953" r="3"/>
<circle clip-path="url(#clip6503)" style="fill:#e26f46; stroke:none; fill-opacity:1" cx="146.206" cy="682.953" r="2"/>
<circle clip-path="url(#clip6503)" style="fill:#000000; stroke:none; fill-opacity:1" cx="157.408" cy="714.608" r="3"/>
<circle clip-path="url(#clip6503)" style="fill:#e26f46; stroke:none; fill-opacity:1" cx="157.408" cy="714.608" r="2"/>
<circle clip-path="url(#clip6503)" style="fill:#000000; stroke:none; fill-opacity:1" cx="168.609" cy="739.45" r="3"/>
<circle clip-path="url(#clip6503)" style="fill:#e26f46; stroke:none; fill-opacity:1" cx="168.609" cy="739.45" r="2"/>
<circle clip-path="url(#clip6503)" style="fill:#000000; stroke:none; fill-opacity:1" cx="179.81" cy="757.314" r="3"/>
<circle clip-path="url(#clip6503)" style="fill:#e26f46; stroke:none; fill-opacity:1" cx="179.81" cy="757.314" r="2"/>
<circle clip-path="url(#clip6503)" style="fill:#000000; stroke:none; fill-opacity:1" cx="191.012" cy="768.08" r="3"/>
<circle clip-path="url(#clip6503)" style="fill:#e26f46; stroke:none; fill-opacity:1" cx="191.012" cy="768.08" r="2"/>
<circle clip-path="url(#clip6503)" style="fill:#000000; stroke:none; fill-opacity:1" cx="202.213" cy="771.677" r="3"/>
<circle clip-path="url(#clip6503)" style="fill:#e26f46; stroke:none; fill-opacity:1" cx="202.213" cy="771.677" r="2"/>
<circle clip-path="url(#clip6503)" style="fill:#000000; stroke:none; fill-opacity:1" cx="213.414" cy="768.08" r="3"/>
<circle clip-path="url(#clip6503)" style="fill:#e26f46; stroke:none; fill-opacity:1" cx="213.414" cy="768.08" r="2"/>
<circle clip-path="url(#clip6503)" style="fill:#000000; stroke:none; fill-opacity:1" cx="224.616" cy="757.314" r="3"/>
<circle clip-path="url(#clip6503)" style="fill:#e26f46; stroke:none; fill-opacity:1" cx="224.616" cy="757.314" r="2"/>
<circle clip-path="url(#clip6503)" style="fill:#000000; stroke:none; fill-opacity:1" cx="235.817" cy="739.45" r="3"/>
<circle clip-path="url(#clip6503)" style="fill:#e26f46; stroke:none; fill-opacity:1" cx="235.817" cy="739.45" r="2"/>
<circle clip-path="url(#clip6503)" style="fill:#000000; stroke:none; fill-opacity:1" cx="247.019" cy="714.608" r="3"/>
<circle clip-path="url(#clip6503)" style="fill:#e26f46; stroke:none; fill-opacity:1" cx="247.019" cy="714.608" r="2"/>
<circle clip-path="url(#clip6503)" style="fill:#000000; stroke:none; fill-opacity:1" cx="258.22" cy="682.953" r="3"/>
<circle clip-path="url(#clip6503)" style="fill:#e26f46; stroke:none; fill-opacity:1" cx="258.22" cy="682.953" r="2"/>
<circle clip-path="url(#clip6503)" style="fill:#000000; stroke:none; fill-opacity:1" cx="269.421" cy="644.701" r="3"/>
<circle clip-path="url(#clip6503)" style="fill:#e26f46; stroke:none; fill-opacity:1" cx="269.421" cy="644.701" r="2"/>
<circle clip-path="url(#clip6503)" style="fill:#000000; stroke:none; fill-opacity:1" cx="280.623" cy="600.11" r="3"/>
<circle clip-path="url(#clip6503)" style="fill:#e26f46; stroke:none; fill-opacity:1" cx="280.623" cy="600.11" r="2"/>
<circle clip-path="url(#clip6503)" style="fill:#000000; stroke:none; fill-opacity:1" cx="291.824" cy="549.483" r="3"/>
<circle clip-path="url(#clip6503)" style="fill:#e26f46; stroke:none; fill-opacity:1" cx="291.824" cy="549.483" r="2"/>
<circle clip-path="url(#clip6503)" style="fill:#000000; stroke:none; fill-opacity:1" cx="303.025" cy="493.161" r="3"/>
<circle clip-path="url(#clip6503)" style="fill:#e26f46; stroke:none; fill-opacity:1" cx="303.025" cy="493.161" r="2"/>
<circle clip-path="url(#clip6503)" style="fill:#000000; stroke:none; fill-opacity:1" cx="314.227" cy="431.512" r="3"/>
<circle clip-path="url(#clip6503)" style="fill:#e26f46; stroke:none; fill-opacity:1" cx="314.227" cy="431.512" r="2"/>
<polygon clip-path="url(#clip6500)" points="
250.239,490.051 356.315,490.051 356.315,444.691 250.239,444.691 
  " fill="#ffffff" fill-opacity="1"/>
<polyline clip-path="url(#clip6500)" style="stroke:#000000; stroke-width:1; stroke-opacity:1; fill:none" points="
  250.239,490.051 356.315,490.051 356.315,444.691 250.239,444.691 250.239,490.051 
  "/>
<polyline clip-path="url(#clip6500)" style="stroke:#009af9; stroke-width:1; stroke-opacity:1; fill:none" points="
  258.239,459.811 306.239,459.811 
  "/>
<g clip-path="url(#clip6500)">
<text style="fill:#000000; fill-opacity:1; font-family:Arial,Helvetica Neue,Helvetica,sans-serif; font-size:12; text-anchor:start;" transform="rotate(0, 314.239, 464.311)" x="314.239" y="464.311">SOS</text>
</g>
<polyline clip-path="url(#clip6500)" style="stroke:#e26f46; stroke-width:0; stroke-opacity:1; fill:none" points="
  258.239,474.931 306.239,474.931 
  "/>
<circle clip-path="url(#clip6500)" style="fill:#000000; stroke:none; fill-opacity:1" cx="286.239" cy="474.931" r="6"/>
<circle clip-path="url(#clip6500)" style="fill:#e26f46; stroke:none; fill-opacity:1" cx="286.239" cy="474.931" r="5"/>
<g clip-path="url(#clip6500)">
<text style="fill:#000000; fill-opacity:1; font-family:Arial,Helvetica Neue,Helvetica,sans-serif; font-size:12; text-anchor:start;" transform="rotate(0, 314.239, 479.431)" x="314.239" y="479.431">MAP</text>
</g>
</svg>
