<?xml version="1.0" encoding="utf-8"?>
<svg xmlns="http://www.w3.org/2000/svg" xmlns:xlink="http://www.w3.org/1999/xlink" width="400" height="800" viewBox="0 0 400 800">
<defs>
  <clipPath id="clip6100">
    <rect x="0" y="0" width="400" height="800"/>
  </clipPath>
</defs>
<polygon clip-path="url(#clip6100)" points="
0,800 400,800 400,0 0,0 
  " fill="#ffffff" fill-opacity="1"/>
<defs>
  <clipPath id="clip6101">
    <rect x="160" y="80" width="400" height="561"/>
  </clipPath>
</defs>
<polygon clip-path="url(#clip6100)" points="
24.1113,371.677 380.315,371.677 380.315,11.811 24.1113,11.811 
  " fill="#ffffff" fill-opacity="1"/>
<defs>
  <clipPath id="clip6102">
    <rect x="24" y="11" width="357" height="361"/>
  </clipPath>
</defs>
<polyline clip-path="url(#clip6102)" style="stroke:#000000; stroke-width:0.5; stroke-opacity:0.1; fill:none" points="
  34.1925,371.677 34.1925,11.811 
  "/>
<polyline clip-path="url(#clip6102)" style="stroke:#000000; stroke-width:0.5; stroke-opacity:0.1; fill:none" points="
  146.206,371.677 146.206,11.811 
  "/>
<polyline clip-path="url(#clip6102)" style="stroke:#000000; stroke-width:0.5; stroke-opacity:0.1; fill:none" points="
  258.22,371.677 258.22,11.811 
  "/>
<polyline clip-path="url(#clip6102)" style="stroke:#000000; stroke-width:0.5; stroke-opacity:0.1; fill:none" points="
  370.234,371.677 370.234,11.811 
  "/>
<polyline clip-path="url(#clip6102)" style="stroke:#000000; stroke-width:0.5; stroke-opacity:0.1; fill:none" points="
  24.1113,371.677 380.315,371.677 
  "/>
<polyline clip-path="url(#clip6102)" style="stroke:#000000; stroke-width:0.5; stroke-opacity:0.1; fill:none" points="
  24.1113,281.711 380.315,281.711 
  "/>
<polyline clip-path="url(#clip6102)" style="stroke:#000000; stroke-width:0.5; stroke-opacity:0.1; fill:none" points="
  24.1113,191.744 380.315,191.744 
  "/>
<polyline clip-path="url(#clip6102)" style="stroke:#000000; stroke-width:0.5; stroke-opacity:0.1; fill:none" points="
  24.1113,101.778 380.315,101.778 
  "/>
<polyline clip-path="url(#clip6102)" style="stroke:#000000; stroke-width:0.5; stroke-opacity:0.1; fill:none" points="
  24.1113,11.811 380.315,11.811 
  "/>
<polyline clip-path="url(#clip6100)" style="stroke:#000000; stroke-width:1; stroke-opacity:1; fill:none" points="
  24.1113,371.677 380.315,371.677 
  "/>
<polyline clip-path="url(#clip6100)" style="stroke:#000000; stroke-width:1; stroke-opacity:1; fill:none" points="
  24.1113,371.677 24.1113,11.811 
  "/>
<polyline clip-path="url(#clip6100)" style="stroke:#000000; stroke-width:1; stroke-opacity:1; fill:none" points="
  34.1925,371.677 34.1925,366.279 
  "/>
<polyline clip-path="url(#clip6100)" style="stroke:#000000; stroke-width:1; stroke-opacity:1; fill:none" points="
  146.206,371.677 146.206,366.279 
  "/>
<polyline clip-path="url(#clip6100)" style="stroke:#000000; stroke-width:1; stroke-opacity:1; fill:none" points="
  258.22,371.677 258.22,366.279 
  "/>
<polyline clip-path="url(#clip6100)" style="stroke:#000000; stroke-width:1; stroke-opacity:1; fill:none" points="
  370.234,371.677 370.234,366.279 
  "/>
<polyline clip-path="url(#clip6100)" style="stroke:#000000; stroke-width:1; stroke-opacity:1; fill:none" points="
  24.1113,371.677 29.4543,371.677 
  "/>
<polyline clip-path="url(#clip6100)" style="stroke:#000000; stroke-width:1; stroke-opacity:1; fill:none" points="
  24.1113,281.711 29.4543,281.711 
  "/>
<polyline clip-path="url(#clip6100)" style="stroke:#000000; stroke-width:1; stroke-opacity:1; fill:none" points="
  24.1113,191.744 29.4543,191.744 
  "/>
<polyline clip-path="url(#clip6100)" style="stroke:#000000; stroke-width:1; stroke-opacity:1; fill:none" points="
  24.1113,101.778 29.4543,101.778 
  "/>
<polyline clip-path="url(#clip6100)" style="stroke:#000000; stroke-width:1; stroke-opacity:1; fill:none" points="
  24.1113,11.811 29.4543,11.811 
  "/>
<g clip-path="url(#clip6100)">
<text style="fill:#000000; fill-opacity:1; font-family:Arial,Helvetica Neue,Helvetica,sans-serif; font-size:12; text-anchor:middle;" transform="rotate(0, 34.1925, 386.477)" x="34.1925" y="386.477">-1.5</text>
</g>
<g clip-path="url(#clip6100)">
<text style="fill:#000000; fill-opacity:1; font-family:Arial,Helvetica Neue,Helvetica,sans-serif; font-size:12; text-anchor:middle;" transform="rotate(0, 146.206, 386.477)" x="146.206" y="386.477">-1.0</text>
</g>
<g clip-path="url(#clip6100)">
<text style="fill:#000000; fill-opacity:1; font-family:Arial,Helvetica Neue,Helvetica,sans-serif; font-size:12; text-anchor:middle;" transform="rotate(0, 258.22, 386.477)" x="258.22" y="386.477">-0.5</text>
</g>
<g clip-path="url(#clip6100)">
<text style="fill:#000000; fill-opacity:1; font-family:Arial,Helvetica Neue,Helvetica,sans-serif; font-size:12; text-anchor:middle;" transform="rotate(0, 370.234, 386.477)" x="370.234" y="386.477">0.0</text>
</g>
<g clip-path="url(#clip6100)">
<text style="fill:#000000; fill-opacity:1; font-family:Arial,Helvetica Neue,Helvetica,sans-serif; font-size:12; text-anchor:end;" transform="rotate(0, 16.1113, 376.177)" x="16.1113" y="376.177">0.0</text>
</g>
<g clip-path="url(#clip6100)">
<text style="fill:#000000; fill-opacity:1; font-family:Arial,Helvetica Neue,Helvetica,sans-serif; font-size:12; text-anchor:end;" transform="rotate(0, 16.1113, 286.211)" x="16.1113" y="286.211">0.1</text>
</g>
<g clip-path="url(#clip6100)">
<text style="fill:#000000; fill-opacity:1; font-family:Arial,Helvetica Neue,Helvetica,sans-serif; font-size:12; text-anchor:end;" transform="rotate(0, 16.1113, 196.244)" x="16.1113" y="196.244">0.2</text>
</g>
<g clip-path="url(#clip6100)">
<text style="fill:#000000; fill-opacity:1; font-family:Arial,Helvetica Neue,Helvetica,sans-serif; font-size:12; text-anchor:end;" transform="rotate(0, 16.1113, 106.278)" x="16.1113" y="106.278">0.3</text>
</g>
<g clip-path="url(#clip6100)">
<text style="fill:#000000; fill-opacity:1; font-family:Arial,Helvetica Neue,Helvetica,sans-serif; font-size:12; text-anchor:end;" transform="rotate(0, 16.1113, 16.311)" x="16.1113" y="16.311">0.4</text>
</g>
<polyline clip-path="url(#clip6102)" style="stroke:#009af9; stroke-width:1; stroke-opacity:1; fill:none" points="
  34.1925,146.416 36.4328,157.057 38.673,167.373 40.9133,177.367 43.1536,187.046 45.3939,196.414 47.6341,205.476 49.8744,214.238 52.1147,222.703 54.355,230.878 
  56.5952,238.767 58.8355,246.374 61.0758,253.705 63.3161,260.765 65.5563,267.558 67.7966,274.089 70.0369,280.363 72.2772,286.383 74.5174,292.156 76.7577,297.685 
  78.998,302.975 81.2383,308.031 83.4785,312.857 85.7188,317.457 87.9591,321.836 90.1994,325.998 92.4396,329.948 94.6799,333.689 96.9202,337.227 99.1605,340.565 
  101.401,343.708 103.641,346.659 105.881,349.423 108.122,352.004 110.362,354.406 112.602,356.633 114.842,358.69 117.083,360.579 119.323,362.305 121.563,363.872 
  123.803,365.283 126.044,366.543 128.284,367.655 130.524,368.624 132.765,369.452 135.005,370.143 137.245,370.701 139.485,371.13 141.726,371.434 143.966,371.615 
  146.206,371.677 148.447,371.624 150.687,371.459 152.927,371.186 155.167,370.808 157.408,370.328 159.648,369.75 161.888,369.077 164.128,368.311 166.369,367.457 
  168.609,366.518 170.849,365.496 173.09,364.394 175.33,363.217 177.57,361.966 179.81,360.645 182.051,359.257 184.291,357.804 186.531,356.29 188.771,354.717 
  191.012,353.088 193.252,351.407 195.492,349.675 197.733,347.895 199.973,346.071 202.213,344.204 204.453,342.298 206.694,340.354 208.934,338.376 211.174,336.367 
  213.414,334.327 215.655,332.26 217.895,330.169 220.135,328.055 222.376,325.922 224.616,323.77 226.856,321.603 229.096,319.423 231.337,317.232 233.577,315.032 
  235.817,312.825 238.058,310.614 240.298,308.4 242.538,306.185 244.778,303.972 247.019,301.763 249.259,299.558 251.499,297.361 253.739,295.172 255.98,292.995 
  258.22,290.83 260.46,288.68 262.701,286.545 264.941,284.428 267.181,282.331 269.421,280.255 271.662,278.201 273.902,276.171 276.142,274.167 278.382,272.19 
  280.623,270.242 282.863,268.323 285.103,266.436 287.344,264.581 289.584,262.761 291.824,260.975 294.064,259.226 296.305,257.514 298.545,255.841 300.785,254.208 
  303.025,252.616 305.266,251.066 307.506,249.559 309.746,248.096 311.987,246.678 314.227,245.305 316.467,243.98 318.707,242.702 320.948,241.473 323.188,240.292 
  325.428,239.162 327.669,238.082 329.909,237.054 332.149,236.078 334.389,235.154 336.63,234.283 338.87,233.466 341.11,232.703 343.35,231.995 345.591,231.342 
  347.831,230.744 350.071,230.202 352.312,229.716 354.552,229.287 356.792,228.915 359.032,228.599 361.273,228.341 363.513,228.139 365.753,227.996 367.993,227.909 
  370.234,227.88 
  "/>
<polyline clip-path="url(#clip6102)" style="stroke:#e26f46; stroke-width:0; stroke-opacity:1; fill:none" points="
  34.1925,20.0681 56.5952,164.323 78.998,264.571 101.401,328.128 123.803,361.758 146.206,371.677 168.609,363.558 191.012,342.529 213.414,313.18 235.817,282.634 
  258.22,260.343 280.623,244.412 303.025,233.046 325.428,225.185 347.831,220.392 370.234,218.724 
  "/>
<circle clip-path="url(#clip6102)" style="fill:#000000; stroke:none; fill-opacity:1" cx="34.1925" cy="20.0681" r="3"/>
<circle clip-path="url(#clip6102)" style="fill:#e26f46; stroke:none; fill-opacity:1" cx="34.1925" cy="20.0681" r="2"/>
<circle clip-path="url(#clip6102)" style="fill:#000000; stroke:none; fill-opacity:1" cx="56.5952" cy="164.323" r="3"/>
<circle clip-path="url(#clip6102)" style="fill:#e26f46; stroke:none; fill-opacity:1" cx="56.5952" cy="164.323" r="2"/>
<circle clip-path="url(#clip6102)" style="fill:#000000; stroke:none; fill-opacity:1" cx="78.998" cy="264.571" r="3"/>
<circle clip-path="url(#clip6102)" style="fill:#e26f46; stroke:none; fill-opacity:1" cx="78.998" cy="264.571" r="2"/>
<circle clip-path="url(#clip6102)" style="fill:#000000; stroke:none; fill-opacity:1" cx="101.401" cy="328.128" r="3"/>
<circle clip-path="url(#clip6102)" style="fill:#e26f46; stroke:none; fill-opacity:1" cx="101.401" cy="328.128" r="2"/>
<circle clip-path="url(#clip6102)" style="fill:#000000; stroke:none; fill-opacity:1" cx="123.803" cy="361.758" r="3"/>
<circle clip-path="url(#clip6102)" style="fill:#e26f46; stroke:none; fill-opacity:1" cx="123.803" cy="361.758" r="2"/>
<circle clip-path="url(#clip6102)" style="fill:#000000; stroke:none; fill-opacity:1" cx="146.206" cy="371.677" r="3"/>
<circle clip-path="url(#clip6102)" style="fill:#e26f46; stroke:none; fill-opacity:1" cx="146.206" cy="371.677" r="2"/>
<circle clip-path="url(#clip6102)" style="fill:#000000; stroke:none; fill-opacity:1" cx="168.609" cy="363.558" r="3"/>
<circle clip-path="url(#clip6102)" style="fill:#e26f46; stroke:none; fill-opacity:1" cx="168.609" cy="363.558" r="2"/>
<circle clip-path="url(#clip6102)" style="fill:#000000; stroke:none; fill-opacity:1" cx="191.012" cy="342.529" r="3"/>
<circle clip-path="url(#clip6102)" style="fill:#e26f46; stroke:none; fill-opacity:1" cx="191.012" cy="342.529" r="2"/>
<circle clip-path="url(#clip6102)" style="fill:#000000; stroke:none; fill-opacity:1" cx="213.414" cy="313.18" r="3"/>
<circle clip-path="url(#clip6102)" style="fill:#e26f46; stroke:none; fill-opacity:1" cx="213.414" cy="313.18" r="2"/>
<circle clip-path="url(#clip6102)" style="fill:#000000; stroke:none; fill-opacity:1" cx="235.817" cy="282.634" r="3"/>
<circle clip-path="url(#clip6102)" style="fill:#e26f46; stroke:none; fill-opacity:1" cx="235.817" cy="282.634" r="2"/>
<circle clip-path="url(#clip6102)" style="fill:#000000; stroke:none; fill-opacity:1" cx="258.22" cy="260.343" r="3"/>
<circle clip-path="url(#clip6102)" style="fill:#e26f46; stroke:none; fill-opacity:1" cx="258.22" cy="260.343" r="2"/>
<circle clip-path="url(#clip6102)" style="fill:#000000; stroke:none; fill-opacity:1" cx="280.623" cy="244.412" r="3"/>
<circle clip-path="url(#clip6102)" style="fill:#e26f46; stroke:none; fill-opacity:1" cx="280.623" cy="244.412" r="2"/>
<circle clip-path="url(#clip6102)" style="fill:#000000; stroke:none; fill-opacity:1" cx="303.025" cy="233.046" r="3"/>
<circle clip-path="url(#clip6102)" style="fill:#e26f46; stroke:none; fill-opacity:1" cx="303.025" cy="233.046" r="2"/>
<circle clip-path="url(#clip6102)" style="fill:#000000; stroke:none; fill-opacity:1" cx="325.428" cy="225.185" r="3"/>
<circle clip-path="url(#clip6102)" style="fill:#e26f46; stroke:none; fill-opacity:1" cx="325.428" cy="225.185" r="2"/>
<circle clip-path="url(#clip6102)" style="fill:#000000; stroke:none; fill-opacity:1" cx="347.831" cy="220.392" r="3"/>
<circle clip-path="url(#clip6102)" style="fill:#e26f46; stroke:none; fill-opacity:1" cx="347.831" cy="220.392" r="2"/>
<circle clip-path="url(#clip6102)" style="fill:#000000; stroke:none; fill-opacity:1" cx="370.234" cy="218.724" r="3"/>
<circle clip-path="url(#clip6102)" style="fill:#e26f46; stroke:none; fill-opacity:1" cx="370.234" cy="218.724" r="2"/>
<polygon clip-path="url(#clip6100)" points="
250.239,90.051 356.315,90.051 356.315,44.691 250.239,44.691 
  " fill="#ffffff" fill-opacity="1"/>
<polyline clip-path="url(#clip6100)" style="stroke:#000000; stroke-width:1; stroke-opacity:1; fill:none" points="
  250.239,90.051 356.315,90.051 356.315,44.691 250.239,44.691 250.239,90.051 
  "/>
<polyline clip-path="url(#clip6100)" style="stroke:#009af9; stroke-width:1; stroke-opacity:1; fill:none" points="
  258.239,59.811 306.239,59.811 
  "/>
<g clip-path="url(#clip6100)">
<text style="fill:#000000; fill-opacity:1; font-family:Arial,Helvetica Neue,Helvetica,sans-serif; font-size:12; text-anchor:start;" transform="rotate(0, 314.239, 64.311)" x="314.239" y="64.311">SOS</text>
</g>
<polyline clip-path="url(#clip6100)" style="stroke:#e26f46; stroke-width:0; stroke-opacity:1; fill:none" points="
  258.239,74.931 306.239,74.931 
  "/>
<circle clip-path="url(#clip6100)" style="fill:#000000; stroke:none; fill-opacity:1" cx="286.239" cy="74.931" r="6"/>
<circle clip-path="url(#clip6100)" style="fill:#e26f46; stroke:none; fill-opacity:1" cx="286.239" cy="74.931" r="5"/>
<g clip-path="url(#clip6100)">
<text style="fill:#000000; fill-opacity:1; font-family:Arial,Helvetica Neue,Helvetica,sans-serif; font-size:12; text-anchor:start;" transform="rotate(0, 314.239, 79.431)" x="314.239" y="79.431">MAP</text>
</g>
<polygon clip-path="url(#clip6100)" points="
24.1113,771.677 380.315,771.677 380.315,411.811 24.1113,411.811 
  " fill="#ffffff" fill-opacity="1"/>
<defs>
  <clipPath id="clip6103">
    <rect x="24" y="411" width="357" height="361"/>
  </clipPath>
</defs>
<polyline clip-path="url(#clip6103)" style="stroke:#000000; stroke-width:0.5; stroke-opacity:0.1; fill:none" points="
  34.1925,771.677 34.1925,411.811 
  "/>
<polyline clip-path="url(#clip6103)" style="stroke:#000000; stroke-width:0.5; stroke-opacity:0.1; fill:none" points="
  90.1994,771.677 90.1994,411.811 
  "/>
<polyline clip-path="url(#clip6103)" style="stroke:#000000; stroke-width:0.5; stroke-opacity:0.1; fill:none" points="
  146.206,771.677 146.206,411.811 
  "/>
<polyline clip-path="url(#clip6103)" style="stroke:#000000; stroke-width:0.5; stroke-opacity:0.1; fill:none" points="
  202.213,771.677 202.213,411.811 
  "/>
<polyline clip-path="url(#clip6103)" style="stroke:#000000; stroke-width:0.5; stroke-opacity:0.1; fill:none" points="
  258.22,771.677 258.22,411.811 
  "/>
<polyline clip-path="url(#clip6103)" style="stroke:#000000; stroke-width:0.5; stroke-opacity:0.1; fill:none" points="
  314.227,771.677 314.227,411.811 
  "/>
<polyline clip-path="url(#clip6103)" style="stroke:#000000; stroke-width:0.5; stroke-opacity:0.1; fill:none" points="
  370.234,771.677 370.234,411.811 
  "/>
<polyline clip-path="url(#clip6103)" style="stroke:#000000; stroke-width:0.5; stroke-opacity:0.1; fill:none" points="
  24.1113,771.677 380.315,771.677 
  "/>
<polyline clip-path="url(#clip6103)" style="stroke:#000000; stroke-width:0.5; stroke-opacity:0.1; fill:none" points="
  24.1113,699.704 380.315,699.704 
  "/>
<polyline clip-path="url(#clip6103)" style="stroke:#000000; stroke-width:0.5; stroke-opacity:0.1; fill:none" points="
  24.1113,627.731 380.315,627.731 
  "/>
<polyline clip-path="url(#clip6103)" style="stroke:#000000; stroke-width:0.5; stroke-opacity:0.1; fill:none" points="
  24.1113,555.757 380.315,555.757 
  "/>
<polyline clip-path="url(#clip6103)" style="stroke:#000000; stroke-width:0.5; stroke-opacity:0.1; fill:none" points="
  24.1113,483.784 380.315,483.784 
  "/>
<polyline clip-path="url(#clip6103)" style="stroke:#000000; stroke-width:0.5; stroke-opacity:0.1; fill:none" points="
  24.1113,411.811 380.315,411.811 
  "/>
<polyline clip-path="url(#clip6100)" style="stroke:#000000; stroke-width:1; stroke-opacity:1; fill:none" points="
  24.1113,771.677 380.315,771.677 
  "/>
<polyline clip-path="url(#clip6100)" style="stroke:#000000; stroke-width:1; stroke-opacity:1; fill:none" points="
  24.1113,771.677 24.1113,411.811 
  "/>
<polyline clip-path="url(#clip6100)" style="stroke:#000000; stroke-width:1; stroke-opacity:1; fill:none" points="
  34.1925,771.677 34.1925,766.279 
  "/>
<polyline clip-path="url(#clip6100)" style="stroke:#000000; stroke-width:1; stroke-opacity:1; fill:none" points="
  90.1994,771.677 90.1994,766.279 
  "/>
<polyline clip-path="url(#clip6100)" style="stroke:#000000; stroke-width:1; stroke-opacity:1; fill:none" points="
  146.206,771.677 146.206,766.279 
  "/>
<polyline clip-path="url(#clip6100)" style="stroke:#000000; stroke-width:1; stroke-opacity:1; fill:none" points="
  202.213,771.677 202.213,766.279 
  "/>
<polyline clip-path="url(#clip6100)" style="stroke:#000000; stroke-width:1; stroke-opacity:1; fill:none" points="
  258.22,771.677 258.22,766.279 
  "/>
<polyline clip-path="url(#clip6100)" style="stroke:#000000; stroke-width:1; stroke-opacity:1; fill:none" points="
  314.227,771.677 314.227,766.279 
  "/>
<polyline clip-path="url(#clip6100)" style="stroke:#000000; stroke-width:1; stroke-opacity:1; fill:none" points="
  370.234,771.677 370.234,766.279 
  "/>
<polyline clip-path="url(#clip6100)" style="stroke:#000000; stroke-width:1; stroke-opacity:1; fill:none" points="
  24.1113,771.677 29.4543,771.677 
  "/>
<polyline clip-path="url(#clip6100)" style="stroke:#000000; stroke-width:1; stroke-opacity:1; fill:none" points="
  24.1113,699.704 29.4543,699.704 
  "/>
<polyline clip-path="url(#clip6100)" style="stroke:#000000; stroke-width:1; stroke-opacity:1; fill:none" points="
  24.1113,627.731 29.4543,627.731 
  "/>
<polyline clip-path="url(#clip6100)" style="stroke:#000000; stroke-width:1; stroke-opacity:1; fill:none" points="
  24.1113,555.757 29.4543,555.757 
  "/>
<polyline clip-path="url(#clip6100)" style="stroke:#000000; stroke-width:1; stroke-opacity:1; fill:none" points="
  24.1113,483.784 29.4543,483.784 
  "/>
<polyline clip-path="url(#clip6100)" style="stroke:#000000; stroke-width:1; stroke-opacity:1; fill:none" points="
  24.1113,411.811 29.4543,411.811 
  "/>
<g clip-path="url(#clip6100)">
<text style="fill:#000000; fill-opacity:1; font-family:Arial,Helvetica Neue,Helvetica,sans-serif; font-size:12; text-anchor:middle;" transform="rotate(0, 34.1925, 786.477)" x="34.1925" y="786.477">-1.5</text>
</g>
<g clip-path="url(#clip6100)">
<text style="fill:#000000; fill-opacity:1; font-family:Arial,Helvetica Neue,Helvetica,sans-serif; font-size:12; text-anchor:middle;" transform="rotate(0, 90.1994, 786.477)" x="90.1994" y="786.477">-1.0</text>
</g>
<g clip-path="url(#clip6100)">
<text style="fill:#000000; fill-opacity:1; font-family:Arial,Helvetica Neue,Helvetica,sans-serif; font-size:12; text-anchor:middle;" transform="rotate(0, 146.206, 786.477)" x="146.206" y="786.477">-0.5</text>
</g>
<g clip-path="url(#clip6100)">
<text style="fill:#000000; fill-opacity:1; font-family:Arial,Helvetica Neue,Helvetica,sans-serif; font-size:12; text-anchor:middle;" transform="rotate(0, 202.213, 786.477)" x="202.213" y="786.477">0.0</text>
</g>
<g clip-path="url(#clip6100)">
<text style="fill:#000000; fill-opacity:1; font-family:Arial,Helvetica Neue,Helvetica,sans-serif; font-size:12; text-anchor:middle;" transform="rotate(0, 258.22, 786.477)" x="258.22" y="786.477">0.5</text>
</g>
<g clip-path="url(#clip6100)">
<text style="fill:#000000; fill-opacity:1; font-family:Arial,Helvetica Neue,Helvetica,sans-serif; font-size:12; text-anchor:middle;" transform="rotate(0, 314.227, 786.477)" x="314.227" y="786.477">1.0</text>
</g>
<g clip-path="url(#clip6100)">
<text style="fill:#000000; fill-opacity:1; font-family:Arial,Helvetica Neue,Helvetica,sans-serif; font-size:12; text-anchor:middle;" transform="rotate(0, 370.234, 786.477)" x="370.234" y="786.477">1.5</text>
</g>
<g clip-path="url(#clip6100)">
<text style="fill:#000000; fill-opacity:1; font-family:Arial,Helvetica Neue,Helvetica,sans-serif; font-size:12; text-anchor:end;" transform="rotate(0, 16.1113, 776.177)" x="16.1113" y="776.177">0.0</text>
</g>
<g clip-path="url(#clip6100)">
<text style="fill:#000000; fill-opacity:1; font-family:Arial,Helvetica Neue,Helvetica,sans-serif; font-size:12; text-anchor:end;" transform="rotate(0, 16.1113, 704.204)" x="16.1113" y="704.204">0.5</text>
</g>
<g clip-path="url(#clip6100)">
<text style="fill:#000000; fill-opacity:1; font-family:Arial,Helvetica Neue,Helvetica,sans-serif; font-size:12; text-anchor:end;" transform="rotate(0, 16.1113, 632.231)" x="16.1113" y="632.231">1.0</text>
</g>
<g clip-path="url(#clip6100)">
<text style="fill:#000000; fill-opacity:1; font-family:Arial,Helvetica Neue,Helvetica,sans-serif; font-size:12; text-anchor:end;" transform="rotate(0, 16.1113, 560.257)" x="16.1113" y="560.257">1.5</text>
</g>
<g clip-path="url(#clip6100)">
<text style="fill:#000000; fill-opacity:1; font-family:Arial,Helvetica Neue,Helvetica,sans-serif; font-size:12; text-anchor:end;" transform="rotate(0, 16.1113, 488.284)" x="16.1113" y="488.284">2.0</text>
</g>
<g clip-path="url(#clip6100)">
<text style="fill:#000000; fill-opacity:1; font-family:Arial,Helvetica Neue,Helvetica,sans-serif; font-size:12; text-anchor:end;" transform="rotate(0, 16.1113, 416.311)" x="16.1113" y="416.311">2.5</text>
</g>
<polyline clip-path="url(#clip6103)" style="stroke:#009af9; stroke-width:1; stroke-opacity:1; fill:none" points="
  34.1925,447.504 35.3126,451.811 36.4328,456.091 37.5529,460.341 38.673,464.562 39.7932,468.755 40.9133,472.919 42.0335,477.054 43.1536,481.16 44.2737,485.237 
  45.3939,489.286 46.514,493.306 47.6341,497.297 48.7543,501.259 49.8744,505.192 50.9946,509.097 52.1147,512.972 53.2348,516.819 54.355,520.637 55.4751,524.426 
  56.5952,528.187 57.7154,531.918 58.8355,535.621 59.9557,539.295 61.0758,542.94 62.1959,546.557 63.3161,550.144 64.4362,553.703 65.5563,557.233 66.6765,560.734 
  67.7966,564.206 68.9168,567.649 70.0369,571.064 71.157,574.45 72.2772,577.807 73.3973,581.135 74.5174,584.434 75.6376,587.705 76.7577,590.947 77.8779,594.16 
  78.998,597.344 80.1181,600.499 81.2383,603.626 82.3584,606.723 83.4785,609.792 84.5987,612.832 85.7188,615.843 86.839,618.826 87.9591,621.779 89.0792,624.704 
  90.1994,627.6 91.3195,630.467 92.4396,633.305 93.5598,636.115 94.6799,638.896 95.8001,641.647 96.9202,644.371 98.0403,647.065 99.1605,649.73 100.281,652.367 
  101.401,654.975 102.521,657.554 103.641,660.104 104.761,662.625 105.881,665.118 107.001,667.581 108.122,670.016 109.242,672.422 110.362,674.8 111.482,677.148 
  112.602,679.468 113.722,681.759 114.842,684.021 115.963,686.254 117.083,688.458 118.203,690.634 119.323,692.78 120.443,694.898 121.563,696.987 122.683,699.048 
  123.803,701.079 124.924,703.082 126.044,705.056 127.164,707.001 128.284,708.917 129.404,710.804 130.524,712.663 131.644,714.493 132.765,716.294 133.885,718.066 
  135.005,719.809 136.125,721.524 137.245,723.21 138.365,724.866 139.485,726.494 140.606,728.094 141.726,729.664 142.846,731.206 143.966,732.719 145.086,734.203 
  146.206,735.658 147.326,737.084 148.447,738.482 149.567,739.85 150.687,741.19 151.807,742.501 152.927,743.784 154.047,745.037 155.167,746.262 156.287,747.458 
  157.408,748.625 158.528,749.763 159.648,750.872 160.768,751.953 161.888,753.005 163.008,754.028 164.128,755.022 165.249,755.987 166.369,756.924 167.489,757.831 
  168.609,758.71 169.729,759.56 170.849,760.381 171.969,761.174 173.09,761.937 174.21,762.672 175.33,763.378 176.45,764.055 177.57,764.704 178.69,765.323 
  179.81,765.914 180.931,766.476 182.051,767.009 183.171,767.513 184.291,767.989 185.411,768.435 186.531,768.853 187.651,769.242 188.771,769.602 189.892,769.934 
  191.012,770.236 192.132,770.51 193.252,770.755 194.372,770.971 195.492,771.158 196.612,771.317 197.733,771.447 198.853,771.547 199.973,771.619 201.093,771.663 
  202.213,771.677 203.333,771.663 204.453,771.619 205.574,771.547 206.694,771.447 207.814,771.317 208.934,771.158 210.054,770.971 211.174,770.755 212.294,770.51 
  213.414,770.236 214.535,769.934 215.655,769.602 216.775,769.242 217.895,768.853 219.015,768.435 220.135,767.989 221.255,767.513 222.376,767.009 223.496,766.476 
  224.616,765.914 225.736,765.323 226.856,764.704 227.976,764.055 229.096,763.378 230.217,762.672 231.337,761.937 232.457,761.174 233.577,760.381 234.697,759.56 
  235.817,758.71 236.937,757.831 238.058,756.924 239.178,755.987 240.298,755.022 241.418,754.028 242.538,753.005 243.658,751.953 244.778,750.872 245.898,749.763 
  247.019,748.625 248.139,747.458 249.259,746.262 250.379,745.037 251.499,743.784 252.619,742.501 253.739,741.19 254.86,739.85 255.98,738.482 257.1,737.084 
  258.22,735.658 259.34,734.203 260.46,732.719 261.58,731.206 262.701,729.664 263.821,728.094 264.941,726.494 266.061,724.866 267.181,723.21 268.301,721.524 
  269.421,719.809 270.541,718.066 271.662,716.294 272.782,714.493 273.902,712.663 275.022,710.804 276.142,708.917 277.262,707.001 278.382,705.056 279.503,703.082 
  280.623,701.079 281.743,699.048 282.863,696.987 283.983,694.898 285.103,692.78 286.223,690.634 287.344,688.458 288.464,686.254 289.584,684.021 290.704,681.759 
  291.824,679.468 292.944,677.148 294.064,674.8 295.185,672.422 296.305,670.016 297.425,667.581 298.545,665.118 299.665,662.625 300.785,660.104 301.905,657.554 
  303.025,654.975 304.146,652.367 305.266,649.73 306.386,647.065 307.506,644.371 308.626,641.647 309.746,638.896 310.866,636.115 311.987,633.305 313.107,630.467 
  314.227,627.6 315.347,624.704 316.467,621.779 317.587,618.826 318.707,615.843 319.828,612.832 320.948,609.792 322.068,606.723 323.188,603.626 324.308,600.499 
  325.428,597.344 326.548,594.16 327.669,590.947 328.789,587.705 329.909,584.434 331.029,581.135 332.149,577.807 333.269,574.45 334.389,571.064 335.509,567.649 
  336.63,564.206 337.75,560.734 338.87,557.233 339.99,553.703 341.11,550.144 342.23,546.557 343.35,542.94 344.471,539.295 345.591,535.621 346.711,531.918 
  347.831,528.187 348.951,524.426 350.071,520.637 351.191,516.819 352.312,512.972 353.432,509.097 354.552,505.192 355.672,501.259 356.792,497.297 357.912,493.306 
  359.032,489.286 360.152,485.237 361.273,481.16 362.393,477.054 363.513,472.919 364.633,468.755 365.753,464.562 366.873,460.341 367.993,456.091 369.114,451.811 
  370.234,447.504 
  "/>
<polyline clip-path="url(#clip6103)" style="stroke:#e26f46; stroke-width:0; stroke-opacity:1; fill:none" points="
  34.1925,-181.744 45.3939,-12.9202 56.5952,134.15 67.7966,261.135 78.998,369.662 90.1994,461.318 101.401,537.655 112.602,600.188 123.803,650.395 135.005,689.714 
  146.206,719.539 157.408,741.219 168.609,756.062 179.81,765.324 191.012,770.196 202.213,771.677 213.414,770.196 224.616,765.324 235.817,756.062 247.019,741.219 
  258.22,719.539 269.421,689.714 280.623,650.395 291.824,600.188 303.025,537.655 314.227,461.318 325.428,369.662 336.63,261.135 347.831,134.15 359.032,-12.9202 
  370.234,-181.744 
  "/>
<circle clip-path="url(#clip6103)" style="fill:#000000; stroke:none; fill-opacity:1" cx="90.1994" cy="461.318" r="3"/>
<circle clip-path="url(#clip6103)" style="fill:#e26f46; stroke:none; fill-opacity:1" cx="90.1994" cy="461.318" r="2"/>
<circle clip-path="url(#clip6103)" style="fill:#000000; stroke:none; fill-opacity:1" cx="101.401" cy="537.655" r="3"/>
<circle clip-path="url(#clip6103)" style="fill:#e26f46; stroke:none; fill-opacity:1" cx="101.401" cy="537.655" r="2"/>
<circle clip-path="url(#clip6103)" style="fill:#000000; stroke:none; fill-opacity:1" cx="112.602" cy="600.188" r="3"/>
<circle clip-path="url(#clip6103)" style="fill:#e26f46; stroke:none; fill-opacity:1" cx="112.602" cy="600.188" r="2"/>
<circle clip-path="url(#clip6103)" style="fill:#000000; stroke:none; fill-opacity:1" cx="123.803" cy="650.395" r="3"/>
<circle clip-path="url(#clip6103)" style="fill:#e26f46; stroke:none; fill-opacity:1" cx="123.803" cy="650.395" r="2"/>
<circle clip-path="url(#clip6103)" style="fill:#000000; stroke:none; fill-opacity:1" cx="135.005" cy="689.714" r="3"/>
<circle clip-path="url(#clip6103)" style="fill:#e26f46; stroke:none; fill-opacity:1" cx="135.005" cy="689.714" r="2"/>
<circle clip-path="url(#clip6103)" style="fill:#000000; stroke:none; fill-opacity:1" cx="146.206" cy="719.539" r="3"/>
<circle clip-path="url(#clip6103)" style="fill:#e26f46; stroke:none; fill-opacity:1" cx="146.206" cy="719.539" r="2"/>
<circle clip-path="url(#clip6103)" style="fill:#000000; stroke:none; fill-opacity:1" cx="157.408" cy="741.219" r="3"/>
<circle clip-path="url(#clip6103)" style="fill:#e26f46; stroke:none; fill-opacity:1" cx="157.408" cy="741.219" r="2"/>
<circle clip-path="url(#clip6103)" style="fill:#000000; stroke:none; fill-opacity:1" cx="168.609" cy="756.062" r="3"/>
<circle clip-path="url(#clip6103)" style="fill:#e26f46; stroke:none; fill-opacity:1" cx="168.609" cy="756.062" r="2"/>
<circle clip-path="url(#clip6103)" style="fill:#000000; stroke:none; fill-opacity:1" cx="179.81" cy="765.324" r="3"/>
<circle clip-path="url(#clip6103)" style="fill:#e26f46; stroke:none; fill-opacity:1" cx="179.81" cy="765.324" r="2"/>
<circle clip-path="url(#clip6103)" style="fill:#000000; stroke:none; fill-opacity:1" cx="191.012" cy="770.196" r="3"/>
<circle clip-path="url(#clip6103)" style="fill:#e26f46; stroke:none; fill-opacity:1" cx="191.012" cy="770.196" r="2"/>
<circle clip-path="url(#clip6103)" style="fill:#000000; stroke:none; fill-opacity:1" cx="202.213" cy="771.677" r="3"/>
<circle clip-path="url(#clip6103)" style="fill:#e26f46; stroke:none; fill-opacity:1" cx="202.213" cy="771.677" r="2"/>
<circle clip-path="url(#clip6103)" style="fill:#000000; stroke:none; fill-opacity:1" cx="213.414" cy="770.196" r="3"/>
<circle clip-path="url(#clip6103)" style="fill:#e26f46; stroke:none; fill-opacity:1" cx="213.414" cy="770.196" r="2"/>
<circle clip-path="url(#clip6103)" style="fill:#000000; stroke:none; fill-opacity:1" cx="224.616" cy="765.324" r="3"/>
<circle clip-path="url(#clip6103)" style="fill:#e26f46; stroke:none; fill-opacity:1" cx="224.616" cy="765.324" r="2"/>
<circle clip-path="url(#clip6103)" style="fill:#000000; stroke:none; fill-opacity:1" cx="235.817" cy="756.062" r="3"/>
<circle clip-path="url(#clip6103)" style="fill:#e26f46; stroke:none; fill-opacity:1" cx="235.817" cy="756.062" r="2"/>
<circle clip-path="url(#clip6103)" style="fill:#000000; stroke:none; fill-opacity:1" cx="247.019" cy="741.219" r="3"/>
<circle clip-path="url(#clip6103)" style="fill:#e26f46; stroke:none; fill-opacity:1" cx="247.019" cy="741.219" r="2"/>
<circle clip-path="url(#clip6103)" style="fill:#000000; stroke:none; fill-opacity:1" cx="258.22" cy="719.539" r="3"/>
<circle clip-path="url(#clip6103)" style="fill:#e26f46; stroke:none; fill-opacity:1" cx="258.22" cy="719.539" r="2"/>
<circle clip-path="url(#clip6103)" style="fill:#000000; stroke:none; fill-opacity:1" cx="269.421" cy="689.714" r="3"/>
<circle clip-path="url(#clip6103)" style="fill:#e26f46; stroke:none; fill-opacity:1" cx="269.421" cy="689.714" r="2"/>
<circle clip-path="url(#clip6103)" style="fill:#000000; stroke:none; fill-opacity:1" cx="280.623" cy="650.395" r="3"/>
<circle clip-path="url(#clip6103)" style="fill:#e26f46; stroke:none; fill-opacity:1" cx="280.623" cy="650.395" r="2"/>
<circle clip-path="url(#clip6103)" style="fill:#000000; stroke:none; fill-opacity:1" cx="291.824" cy="600.188" r="3"/>
<circle clip-path="url(#clip6103)" style="fill:#e26f46; stroke:none; fill-opacity:1" cx="291.824" cy="600.188" r="2"/>
<circle clip-path="url(#clip6103)" style="fill:#000000; stroke:none; fill-opacity:1" cx="303.025" cy="537.655" r="3"/>
<circle clip-path="url(#clip6103)" style="fill:#e26f46; stroke:none; fill-opacity:1" cx="303.025" cy="537.655" r="2"/>
<circle clip-path="url(#clip6103)" style="fill:#000000; stroke:none; fill-opacity:1" cx="314.227" cy="461.318" r="3"/>
<circle clip-path="url(#clip6103)" style="fill:#e26f46; stroke:none; fill-opacity:1" cx="314.227" cy="461.318" r="2"/>
<polygon clip-path="url(#clip6100)" points="
250.239,490.051 356.315,490.051 356.315,444.691 250.239,444.691 
  " fill="#ffffff" fill-opacity="1"/>
<polyline clip-path="url(#clip6100)" style="stroke:#000000; stroke-width:1; stroke-opacity:1; fill:none" points="
  250.239,490.051 356.315,490.051 356.315,444.691 250.239,444.691 250.239,490.051 
  "/>
<polyline clip-path="url(#clip6100)" style="stroke:#009af9; stroke-width:1; stroke-opacity:1; fill:none" points="
  258.239,459.811 306.239,459.811 
  "/>
<g clip-path="url(#clip6100)">
<text style="fill:#000000; fill-opacity:1; font-family:Arial,Helvetica Neue,Helvetica,sans-serif; font-size:12; text-anchor:start;" transform="rotate(0, 314.239, 464.311)" x="314.239" y="464.311">SOS</text>
</g>
<polyline clip-path="url(#clip6100)" style="stroke:#e26f46; stroke-width:0; stroke-opacity:1; fill:none" points="
  258.239,474.931 306.239,474.931 
  "/>
<circle clip-path="url(#clip6100)" style="fill:#000000; stroke:none; fill-opacity:1" cx="286.239" cy="474.931" r="6"/>
<circle clip-path="url(#clip6100)" style="fill:#e26f46; stroke:none; fill-opacity:1" cx="286.239" cy="474.931" r="5"/>
<g clip-path="url(#clip6100)">
<text style="fill:#000000; fill-opacity:1; font-family:Arial,Helvetica Neue,Helvetica,sans-serif; font-size:12; text-anchor:start;" transform="rotate(0, 314.239, 479.431)" x="314.239" y="479.431">MAP</text>
</g>
</svg>
