<?xml version="1.0" encoding="UTF-8" standalone="no"?>
<svg
   xmlns:dc="http://purl.org/dc/elements/1.1/"
   xmlns:cc="http://creativecommons.org/ns#"
   xmlns:rdf="http://www.w3.org/1999/02/22-rdf-syntax-ns#"
   xmlns:svg="http://www.w3.org/2000/svg"
   xmlns="http://www.w3.org/2000/svg"
   xmlns:sodipodi="http://sodipodi.sourceforge.net/DTD/sodipodi-0.dtd"
   xmlns:inkscape="http://www.inkscape.org/namespaces/inkscape"
   width="482.474"
   height="388.189"
   viewBox="0 0 482.474 388.189"
   version="1.1"
   id="svg580"
   sodipodi:docname="Scaling.svg"
   inkscape:version="0.92.2 (5c3e80d, 2017-08-06)">
  <metadata
     id="metadata584">
    <rdf:RDF>
      <cc:Work
         rdf:about="">
        <dc:format>image/svg+xml</dc:format>
        <dc:type
           rdf:resource="http://purl.org/dc/dcmitype/StillImage" />
        <dc:title></dc:title>
      </cc:Work>
    </rdf:RDF>
  </metadata>
  <sodipodi:namedview
     pagecolor="#ffffff"
     bordercolor="#666666"
     borderopacity="1"
     objecttolerance="10"
     gridtolerance="10"
     guidetolerance="10"
     inkscape:pageopacity="0"
     inkscape:pageshadow="2"
     inkscape:window-width="1920"
     inkscape:window-height="1016"
     id="namedview582"
     showgrid="false"
     fit-margin-top="0"
     fit-margin-left="0"
     fit-margin-right="0"
     fit-margin-bottom="0"
     inkscape:zoom="1.248"
     inkscape:cx="407.89873"
     inkscape:cy="193.38101"
     inkscape:window-x="0"
     inkscape:window-y="27"
     inkscape:window-maximized="1"
     inkscape:current-layer="svg580" />
  <defs
     id="defs5">
    <clipPath
       id="clip4400">
      <rect
         x="0"
         y="0"
         width="1000"
         height="400"
         id="rect2" />
    </clipPath>
  </defs>
  <defs
     id="defs12">
    <clipPath
       id="clip4401">
      <rect
         x="200"
         y="0"
         width="701"
         height="400"
         id="rect9" />
    </clipPath>
  </defs>
  <defs
     id="defs19">
    <clipPath
       id="clip4402">
      <rect
         x="48"
         y="11"
         width="431"
         height="353"
         id="rect16" />
    </clipPath>
  </defs>
  <polyline
     clip-path="url(#clip4402)"
     style="fill:none;stroke:#000000;stroke-width:0.5;stroke-opacity:0.1"
     points="   60.3994,363.931 60.3994,11.811    "
     id="polyline21"
     transform="translate(4,-11.811)" />
  <polyline
     clip-path="url(#clip4402)"
     style="fill:none;stroke:#000000;stroke-width:0.5;stroke-opacity:0.1"
     points="   161.874,363.931 161.874,11.811    "
     id="polyline23"
     transform="translate(4,-11.811)" />
  <polyline
     clip-path="url(#clip4402)"
     style="fill:none;stroke:#000000;stroke-width:0.5;stroke-opacity:0.1"
     points="   263.348,363.931 263.348,11.811    "
     id="polyline25"
     transform="translate(4,-11.811)" />
  <polyline
     clip-path="url(#clip4402)"
     style="fill:none;stroke:#000000;stroke-width:0.5;stroke-opacity:0.1"
     points="   364.823,363.931 364.823,11.811    "
     id="polyline27"
     transform="translate(4,-11.811)" />
  <polyline
     clip-path="url(#clip4402)"
     style="fill:none;stroke:#000000;stroke-width:0.5;stroke-opacity:0.1"
     points="   466.297,363.931 466.297,11.811    "
     id="polyline29"
     transform="translate(4,-11.811)" />
  <polyline
     clip-path="url(#clip4402)"
     style="fill:none;stroke:#000000;stroke-width:0.5;stroke-opacity:0.1"
     points="   48.2225,282.267 478.474,282.267    "
     id="polyline31"
     transform="translate(4,-11.811)" />
  <polyline
     clip-path="url(#clip4402)"
     style="fill:none;stroke:#000000;stroke-width:0.5;stroke-opacity:0.1"
     points="   48.2225,200.178 478.474,200.178    "
     id="polyline33"
     transform="translate(4,-11.811)" />
  <polyline
     clip-path="url(#clip4402)"
     style="fill:none;stroke:#000000;stroke-width:0.5;stroke-opacity:0.1"
     points="   48.2225,118.089 478.474,118.089    "
     id="polyline35"
     transform="translate(4,-11.811)" />
  <polyline
     clip-path="url(#clip4402)"
     style="fill:none;stroke:#000000;stroke-width:0.5;stroke-opacity:0.1"
     points="   48.2225,35.9994 478.474,35.9994    "
     id="polyline37"
     transform="translate(4,-11.811)" />
  <polyline
     clip-path="url(#clip4400)"
     style="fill:none;stroke:#000000;stroke-width:1;stroke-opacity:1"
     points="   48.2225,363.931 478.474,363.931    "
     id="polyline39"
     transform="translate(4,-11.811)" />
  <polyline
     clip-path="url(#clip4400)"
     style="fill:none;stroke:#000000;stroke-width:1;stroke-opacity:1"
     points="   48.2225,363.931 48.2225,11.811    "
     id="polyline41"
     transform="translate(4,-11.811)" />
  <polyline
     clip-path="url(#clip4400)"
     style="fill:none;stroke:#000000;stroke-width:1;stroke-opacity:1"
     points="   60.3994,363.931 60.3994,358.649    "
     id="polyline43"
     transform="translate(4,-11.811)" />
  <polyline
     clip-path="url(#clip4400)"
     style="fill:none;stroke:#000000;stroke-width:1;stroke-opacity:1"
     points="   161.874,363.931 161.874,358.649    "
     id="polyline45"
     transform="translate(4,-11.811)" />
  <polyline
     clip-path="url(#clip4400)"
     style="fill:none;stroke:#000000;stroke-width:1;stroke-opacity:1"
     points="   263.348,363.931 263.348,358.649    "
     id="polyline47"
     transform="translate(4,-11.811)" />
  <polyline
     clip-path="url(#clip4400)"
     style="fill:none;stroke:#000000;stroke-width:1;stroke-opacity:1"
     points="   364.823,363.931 364.823,358.649    "
     id="polyline49"
     transform="translate(4,-11.811)" />
  <polyline
     clip-path="url(#clip4400)"
     style="fill:none;stroke:#000000;stroke-width:1;stroke-opacity:1"
     points="   466.297,363.931 466.297,358.649    "
     id="polyline51"
     transform="translate(4,-11.811)" />
  <polyline
     clip-path="url(#clip4400)"
     style="fill:none;stroke:#000000;stroke-width:1;stroke-opacity:1"
     points="   48.2225,282.267 54.6763,282.267    "
     id="polyline53"
     transform="translate(4,-11.811)" />
  <polyline
     clip-path="url(#clip4400)"
     style="fill:none;stroke:#000000;stroke-width:1;stroke-opacity:1"
     points="   48.2225,200.178 54.6763,200.178    "
     id="polyline55"
     transform="translate(4,-11.811)" />
  <polyline
     clip-path="url(#clip4400)"
     style="fill:none;stroke:#000000;stroke-width:1;stroke-opacity:1"
     points="   48.2225,118.089 54.6763,118.089    "
     id="polyline57"
     transform="translate(4,-11.811)" />
  <polyline
     clip-path="url(#clip4400)"
     style="fill:none;stroke:#000000;stroke-width:1;stroke-opacity:1"
     points="   48.2225,35.9994 54.6763,35.9994    "
     id="polyline59"
     transform="translate(4,-11.811)" />
  <g
     clip-path="url(#clip4400)"
     id="g63"
     transform="translate(4,-11.811)">
    <g
       aria-label="2"
       style="font-size:12px;font-family:Arial, 'Helvetica Neue', Helvetica, sans-serif;text-anchor:middle;fill:#000000;fill-opacity:1"
       id="text61">
      <path
         d="m 57.663071,379.73099 v -0.74414 q 0.298828,-0.68555 0.726562,-1.20703 0.433594,-0.52735 0.908203,-0.94922 0.47461,-0.42774 0.9375,-0.79102 0.46875,-0.36328 0.84375,-0.72656 0.375,-0.36328 0.603516,-0.76172 0.234375,-0.39844 0.234375,-0.90234 0,-0.35157 -0.105469,-0.61524 -0.105469,-0.26953 -0.304687,-0.45117 -0.199219,-0.18164 -0.480469,-0.26953 -0.275391,-0.0937 -0.615234,-0.0937 -0.316407,0 -0.597657,0.0879 -0.27539,0.0879 -0.492187,0.26367 -0.216797,0.17578 -0.357422,0.43945 -0.134766,0.25782 -0.175781,0.60352 l -1.078125,-0.0996 q 0.05273,-0.44531 0.246093,-0.83789 0.19336,-0.39258 0.533204,-0.68555 0.339843,-0.29882 0.814453,-0.46875 0.480468,-0.16992 1.107422,-0.16992 0.615234,0 1.095703,0.14649 0.480468,0.14648 0.808593,0.43359 0.333985,0.28711 0.509766,0.70898 0.175781,0.42188 0.175781,0.97266 0,0.41602 -0.152343,0.79102 -0.146485,0.375 -0.398438,0.71484 -0.246094,0.33984 -0.574219,0.65625 -0.328125,0.31641 -0.685547,0.62109 -0.357421,0.29883 -0.720703,0.59766 -0.363281,0.29297 -0.685547,0.5918 -0.316406,0.29882 -0.568359,0.60937 -0.251953,0.30469 -0.392578,0.63867 h 4.306641 v 0.89649 z"
         style="font-size:12px;font-family:Arial, 'Helvetica Neue', Helvetica, sans-serif;text-anchor:middle;fill:#000000;fill-opacity:1"
         id="path1493"
         inkscape:connector-curvature="0" />
    </g>
  </g>
  <g
     clip-path="url(#clip4400)"
     id="g67"
     transform="translate(4,-11.811)">
    <g
       aria-label="4"
       style="font-size:12px;font-family:Arial, 'Helvetica Neue', Helvetica, sans-serif;text-anchor:middle;fill:#000000;fill-opacity:1"
       id="text65">
      <path
         d="m 163.69626,377.86185 v 1.86914 h -0.9961 v -1.86914 h -3.89062 v -0.82032 l 3.7793,-5.5664 h 1.10742 v 5.55469 h 1.16015 v 0.83203 z m -0.9961,-5.19727 q -0.0117,0.0293 -0.0586,0.11719 -0.0469,0.082 -0.10547,0.1875 -0.0586,0.10547 -0.12304,0.2168 -0.0586,0.10546 -0.10547,0.17578 l -2.11524,3.11718 q -0.0293,0.0469 -0.0879,0.12305 -0.0527,0.0762 -0.11133,0.1582 -0.0586,0.0762 -0.11718,0.15235 -0.0586,0.0762 -0.0937,0.11719 h 2.91796 z"
         style="font-size:12px;font-family:Arial, 'Helvetica Neue', Helvetica, sans-serif;text-anchor:middle;fill:#000000;fill-opacity:1"
         id="path1490"
         inkscape:connector-curvature="0" />
    </g>
  </g>
  <g
     clip-path="url(#clip4400)"
     id="g71"
     transform="translate(4,-11.811)">
    <g
       aria-label="6"
       style="font-size:12px;font-family:Arial, 'Helvetica Neue', Helvetica, sans-serif;text-anchor:middle;fill:#000000;fill-opacity:1"
       id="text69">
      <path
         d="m 266.15463,377.02982 q 0,0.62109 -0.17578,1.14257 -0.16992,0.51563 -0.50976,0.89063 -0.33399,0.36914 -0.83204,0.58008 -0.49804,0.20508 -1.14843,0.20508 -0.72071,0 -1.25977,-0.2754 -0.53906,-0.27539 -0.89648,-0.79101 -0.35742,-0.52149 -0.53907,-1.27149 -0.17578,-0.75585 -0.17578,-1.71679 0,-1.10156 0.19922,-1.9336 0.20508,-0.83203 0.58594,-1.38867 0.38086,-0.55664 0.92578,-0.83789 0.55078,-0.28125 1.24219,-0.28125 0.42187,0 0.79101,0.0879 0.36914,0.0879 0.66797,0.28711 0.30469,0.19336 0.53321,0.51563 0.22851,0.32226 0.36328,0.79101 l -1.00782,0.18164 q -0.16406,-0.5332 -0.52734,-0.76758 -0.35742,-0.24023 -0.83203,-0.24023 -0.43359,0 -0.78516,0.20508 -0.35156,0.20508 -0.59765,0.61523 -0.2461,0.4043 -0.38086,1.01953 -0.12891,0.61524 -0.12891,1.43555 0.28711,-0.5332 0.8086,-0.80859 0.52148,-0.28125 1.19531,-0.28125 0.5625,0 1.01953,0.18164 0.45703,0.18164 0.7793,0.52734 0.32812,0.33985 0.5039,0.83203 0.18164,0.48633 0.18164,1.09571 z m -1.07226,0.0469 q 0,-0.42773 -0.10547,-0.77344 -0.10547,-0.3457 -0.31641,-0.58593 -0.21094,-0.2461 -0.52148,-0.375 -0.31055,-0.13477 -0.72071,-0.13477 -0.2871,0 -0.58007,0.0879 -0.29297,0.082 -0.53321,0.27539 -0.23437,0.1875 -0.38672,0.49805 -0.14648,0.31055 -0.14648,0.75586 0,0.45703 0.11719,0.85547 0.11719,0.39257 0.33398,0.68554 0.22266,0.29297 0.53321,0.46289 0.31054,0.16993 0.69726,0.16993 0.38086,0 0.67969,-0.12891 0.30469,-0.13477 0.51562,-0.38086 0.21094,-0.25195 0.32227,-0.60937 0.11133,-0.35743 0.11133,-0.80274 z"
         style="font-size:12px;font-family:Arial, 'Helvetica Neue', Helvetica, sans-serif;text-anchor:middle;fill:#000000;fill-opacity:1"
         id="path1487"
         inkscape:connector-curvature="0" />
    </g>
  </g>
  <g
     clip-path="url(#clip4400)"
     id="g75"
     transform="translate(4,-11.811)">
    <g
       aria-label="8"
       style="font-size:12px;font-family:Arial, 'Helvetica Neue', Helvetica, sans-serif;text-anchor:middle;fill:#000000;fill-opacity:1"
       id="text73">
      <path
         d="m 367.6355,377.42825 q 0,0.52735 -0.16992,0.97266 -0.16407,0.43945 -0.50977,0.76172 -0.33984,0.32226 -0.87305,0.5039 -0.5332,0.18165 -1.25976,0.18165 -0.72656,0 -1.25977,-0.18165 -0.52734,-0.18164 -0.8789,-0.49804 -0.34571,-0.32227 -0.51563,-0.76172 -0.16406,-0.44531 -0.16406,-0.9668 0,-0.45117 0.13476,-0.80273 0.14063,-0.35156 0.36914,-0.60352 0.23438,-0.25781 0.52735,-0.41015 0.29883,-0.15821 0.61523,-0.21094 v -0.0234 q -0.3457,-0.082 -0.62109,-0.26367 -0.26953,-0.18164 -0.45703,-0.43359 -0.18164,-0.25782 -0.28125,-0.56836 -0.0937,-0.31055 -0.0937,-0.65625 0,-0.4336 0.16406,-0.81446 0.16992,-0.38672 0.49805,-0.67383 0.32812,-0.29296 0.81445,-0.45703 0.48633,-0.16992 1.125,-0.16992 0.67383,0 1.16602,0.16992 0.49804,0.16993 0.82031,0.46289 0.32812,0.28711 0.48633,0.67383 0.1582,0.38672 0.1582,0.82031 0,0.33985 -0.0996,0.6504 -0.0937,0.31054 -0.28125,0.56835 -0.18164,0.25196 -0.45703,0.4336 -0.26953,0.17578 -0.62695,0.24609 v 0.0234 q 0.35742,0.0586 0.66211,0.2168 0.30468,0.15234 0.52734,0.41015 0.22266,0.25196 0.35156,0.60352 0.12891,0.35156 0.12891,0.79687 z m -1.30078,-3.89062 q 0,-0.31055 -0.082,-0.56836 -0.0762,-0.25781 -0.25782,-0.43945 -0.18164,-0.1875 -0.47461,-0.28711 -0.29297,-0.10547 -0.7207,-0.10547 -0.41602,0 -0.70312,0.10547 -0.28711,0.0996 -0.47461,0.28711 -0.18164,0.18164 -0.26368,0.43945 -0.082,0.25781 -0.082,0.56836 0,0.24609 0.0645,0.5039 0.0645,0.25782 0.23437,0.46875 0.16992,0.21094 0.46875,0.34571 0.29883,0.13476 0.76758,0.13476 0.49805,0 0.79687,-0.13476 0.30469,-0.13477 0.46289,-0.34571 0.16407,-0.21093 0.21094,-0.46875 0.0527,-0.25781 0.0527,-0.5039 z m 0.20507,3.79101 q 0,-0.29882 -0.082,-0.57421 -0.082,-0.28125 -0.28125,-0.49219 -0.19922,-0.2168 -0.53906,-0.34571 -0.33398,-0.13476 -0.83789,-0.13476 -0.46289,0 -0.79102,0.13476 -0.32226,0.12891 -0.52734,0.34571 -0.19922,0.21679 -0.29297,0.5039 -0.0937,0.28125 -0.0937,0.58594 0,0.38086 0.0937,0.69727 0.0937,0.31054 0.29883,0.53906 0.20508,0.22266 0.53906,0.3457 0.33399,0.12305 0.8086,0.12305 0.48047,0 0.80859,-0.12305 0.32813,-0.12304 0.52734,-0.3457 0.19922,-0.22852 0.28125,-0.54492 0.0879,-0.32227 0.0879,-0.71485 z"
         style="font-size:12px;font-family:Arial, 'Helvetica Neue', Helvetica, sans-serif;text-anchor:middle;fill:#000000;fill-opacity:1"
         id="path1484"
         inkscape:connector-curvature="0" />
    </g>
  </g>
  <g
     clip-path="url(#clip4400)"
     id="g79"
     transform="translate(4,-11.811)">
    <g
       aria-label="10"
       style="font-size:12px;font-family:Arial, 'Helvetica Neue', Helvetica, sans-serif;text-anchor:middle;fill:#000000;fill-opacity:1"
       id="text77">
      <path
         d="m 460.53137,379.73099 v -0.89649 h 2.10352 v -6.35156 l -1.86328,1.33008 v -0.99609 l 1.95117,-1.3418 h 0.97265 v 7.35937 h 2.00977 v 0.89649 z"
         style="font-size:12px;font-family:Arial, 'Helvetica Neue', Helvetica, sans-serif;text-anchor:middle;fill:#000000;fill-opacity:1"
         id="path1479"
         inkscape:connector-curvature="0" />
      <path
         d="m 472.50208,375.60013 q 0,1.18945 -0.22852,2.0039 -0.22266,0.8086 -0.61523,1.3125 -0.38672,0.49805 -0.91407,0.71485 -0.52734,0.2168 -1.125,0.2168 -0.60351,0 -1.125,-0.2168 -0.52148,-0.2168 -0.9082,-0.71485 -0.38086,-0.49804 -0.60352,-1.30664 -0.21679,-0.81445 -0.21679,-2.00976 0,-1.24805 0.21679,-2.0625 0.22266,-0.82031 0.60938,-1.30664 0.38672,-0.48633 0.91406,-0.67969 0.52735,-0.19922 1.14844,-0.19922 0.5918,0 1.10742,0.19922 0.52149,0.19336 0.9082,0.67969 0.38672,0.48633 0.60938,1.30664 0.22266,0.81445 0.22266,2.0625 z m -1.07227,0 q 0,-0.98438 -0.11719,-1.63477 -0.11719,-0.65625 -0.3457,-1.04297 -0.22852,-0.39257 -0.5625,-0.55078 -0.32813,-0.16406 -0.75,-0.16406 -0.44531,0 -0.78516,0.16406 -0.33984,0.16407 -0.57422,0.55664 -0.22851,0.38672 -0.3457,1.04297 -0.11719,0.65039 -0.11719,1.62891 0,0.94922 0.11719,1.59961 0.12305,0.65039 0.35156,1.04883 0.23438,0.39257 0.56836,0.56836 0.33399,0.16992 0.76172,0.16992 0.41602,0 0.75,-0.16992 0.33399,-0.17579 0.5625,-0.56836 0.23438,-0.39844 0.35742,-1.04883 0.12891,-0.65039 0.12891,-1.59961 z"
         style="font-size:12px;font-family:Arial, 'Helvetica Neue', Helvetica, sans-serif;text-anchor:middle;fill:#000000;fill-opacity:1"
         id="path1481"
         inkscape:connector-curvature="0" />
    </g>
  </g>
  <g
     clip-path="url(#clip4400)"
     id="g83"
     transform="translate(4,-11.811)">
    <g
       aria-label="0.0"
       style="font-size:12px;font-family:Arial, 'Helvetica Neue', Helvetica, sans-serif;text-anchor:end;fill:#000000;fill-opacity:1"
       id="text81">
      <path
         d="m 27.740078,282.63614 q 0,1.18945 -0.228516,2.00391 -0.222656,0.80859 -0.615234,1.3125 -0.386719,0.49804 -0.914063,0.71484 -0.527343,0.2168 -1.125,0.2168 -0.603515,0 -1.125,-0.2168 -0.521484,-0.2168 -0.908203,-0.71484 -0.380859,-0.49805 -0.603515,-1.30665 -0.216797,-0.81445 -0.216797,-2.00976 0,-1.24805 0.216797,-2.0625 0.222656,-0.82031 0.609375,-1.30664 0.386718,-0.48633 0.914062,-0.67969 0.527344,-0.19922 1.148438,-0.19922 0.591797,0 1.107422,0.19922 0.521484,0.19336 0.908203,0.67969 0.386718,0.48633 0.609375,1.30664 0.222656,0.81445 0.222656,2.0625 z m -1.072266,0 q 0,-0.98438 -0.117187,-1.63477 -0.117188,-0.65625 -0.345703,-1.04297 -0.228516,-0.39257 -0.5625,-0.55078 -0.328125,-0.16406 -0.75,-0.16406 -0.445313,0 -0.785157,0.16406 -0.339843,0.16407 -0.574218,0.55664 -0.228516,0.38672 -0.345703,1.04297 -0.117188,0.65039 -0.117188,1.62891 0,0.94922 0.117188,1.59961 0.123046,0.65039 0.351562,1.04883 0.234375,0.39257 0.568359,0.56836 0.333985,0.16992 0.761719,0.16992 0.416016,0 0.75,-0.16992 0.333985,-0.17579 0.5625,-0.56836 0.234375,-0.39844 0.357422,-1.04883 0.128906,-0.65039 0.128906,-1.59961 z"
         style="font-size:12px;font-family:Arial, 'Helvetica Neue', Helvetica, sans-serif;text-anchor:end;fill:#000000;fill-opacity:1"
         id="path1472"
         inkscape:connector-curvature="0" />
      <path
         d="m 29.31039,286.767 v -1.2832 h 1.142579 v 1.2832 z"
         style="font-size:12px;font-family:Arial, 'Helvetica Neue', Helvetica, sans-serif;text-anchor:end;fill:#000000;fill-opacity:1"
         id="path1474"
         inkscape:connector-curvature="0" />
      <path
         d="m 37.74789,282.63614 q 0,1.18945 -0.228515,2.00391 -0.222656,0.80859 -0.615235,1.3125 -0.386718,0.49804 -0.914062,0.71484 -0.527344,0.2168 -1.125,0.2168 -0.603516,0 -1.125,-0.2168 -0.521484,-0.2168 -0.908203,-0.71484 -0.38086,-0.49805 -0.603516,-1.30665 -0.216797,-0.81445 -0.216797,-2.00976 0,-1.24805 0.216797,-2.0625 0.222656,-0.82031 0.609375,-1.30664 0.386719,-0.48633 0.914063,-0.67969 0.527343,-0.19922 1.148437,-0.19922 0.591797,0 1.107422,0.19922 0.521484,0.19336 0.908203,0.67969 0.386719,0.48633 0.609375,1.30664 0.222656,0.81445 0.222656,2.0625 z m -1.072265,0 q 0,-0.98438 -0.117188,-1.63477 -0.117187,-0.65625 -0.345703,-1.04297 -0.228515,-0.39257 -0.5625,-0.55078 -0.328125,-0.16406 -0.75,-0.16406 -0.445312,0 -0.785156,0.16406 -0.339844,0.16407 -0.574219,0.55664 -0.228515,0.38672 -0.345703,1.04297 -0.117187,0.65039 -0.117187,1.62891 0,0.94922 0.117187,1.59961 0.123047,0.65039 0.351563,1.04883 0.234375,0.39257 0.568359,0.56836 0.333984,0.16992 0.761719,0.16992 0.416015,0 0.75,-0.16992 0.333984,-0.17579 0.5625,-0.56836 0.234375,-0.39844 0.357422,-1.04883 0.128906,-0.65039 0.128906,-1.59961 z"
         style="font-size:12px;font-family:Arial, 'Helvetica Neue', Helvetica, sans-serif;text-anchor:end;fill:#000000;fill-opacity:1"
         id="path1476"
         inkscape:connector-curvature="0" />
    </g>
  </g>
  <g
     clip-path="url(#clip4400)"
     id="g87"
     transform="translate(4,-11.811)">
    <g
       aria-label="2.5"
       style="font-size:12px;font-family:Arial, 'Helvetica Neue', Helvetica, sans-serif;text-anchor:end;fill:#000000;fill-opacity:1"
       id="text85">
      <path
         d="m 22.138515,204.67799 v -0.74414 q 0.298829,-0.68554 0.726563,-1.20703 0.433594,-0.52734 0.908203,-0.94922 0.474609,-0.42773 0.9375,-0.79101 0.46875,-0.36328 0.84375,-0.72656 0.375,-0.36329 0.603516,-0.76172 0.234375,-0.39844 0.234375,-0.90235 0,-0.35156 -0.105469,-0.61523 -0.105469,-0.26953 -0.304688,-0.45117 -0.199218,-0.18164 -0.480468,-0.26953 -0.275391,-0.0937 -0.615235,-0.0937 -0.316406,0 -0.597656,0.0879 -0.275391,0.0879 -0.492187,0.26367 -0.216797,0.17578 -0.357422,0.43945 -0.134766,0.25781 -0.175782,0.60352 l -1.078125,-0.0996 q 0.05273,-0.44532 0.246094,-0.83789 0.19336,-0.39258 0.533203,-0.68555 0.339844,-0.29883 0.814453,-0.46875 0.480469,-0.16992 1.107422,-0.16992 0.615235,0 1.095703,0.14648 0.480469,0.14649 0.808594,0.4336 0.333985,0.28711 0.509766,0.70898 0.175781,0.42188 0.175781,0.97266 0,0.41601 -0.152344,0.79101 -0.146484,0.375 -0.398437,0.71485 -0.246094,0.33984 -0.574219,0.65625 -0.328125,0.3164 -0.685547,0.62109 -0.357422,0.29883 -0.720703,0.59766 -0.363281,0.29296 -0.685547,0.59179 -0.316406,0.29883 -0.568359,0.60938 -0.251953,0.30469 -0.392578,0.63867 h 4.30664 v 0.89648 z"
         style="font-size:12px;font-family:Arial, 'Helvetica Neue', Helvetica, sans-serif;text-anchor:end;fill:#000000;fill-opacity:1"
         id="path1465"
         inkscape:connector-curvature="0" />
      <path
         d="m 29.31039,204.67799 v -1.2832 h 1.142579 v 1.2832 z"
         style="font-size:12px;font-family:Arial, 'Helvetica Neue', Helvetica, sans-serif;text-anchor:end;fill:#000000;fill-opacity:1"
         id="path1467"
         inkscape:connector-curvature="0" />
      <path
         d="m 37.712734,201.98854 q 0,0.62109 -0.1875,1.13672 -0.1875,0.51562 -0.55664,0.89062 -0.369141,0.36915 -0.919922,0.57422 -0.544922,0.20508 -1.265625,0.20508 -0.650391,0 -1.136719,-0.15234 -0.480469,-0.15235 -0.814453,-0.41602 -0.333985,-0.26953 -0.533203,-0.62695 -0.19336,-0.35742 -0.275391,-0.76758 l 1.066406,-0.12305 q 0.06445,0.23438 0.181641,0.45704 0.117187,0.21679 0.316406,0.39257 0.205078,0.16993 0.498047,0.27539 0.298828,0.0996 0.720703,0.0996 0.410156,0 0.744141,-0.12304 0.333984,-0.12891 0.568359,-0.375 0.240235,-0.2461 0.369141,-0.60352 0.128906,-0.35742 0.128906,-0.82031 0,-0.38086 -0.123047,-0.69727 -0.123047,-0.32226 -0.351562,-0.55078 -0.228516,-0.23437 -0.5625,-0.36328 -0.328125,-0.12891 -0.75,-0.12891 -0.263672,0 -0.486328,0.0469 -0.222657,0.0469 -0.416016,0.12891 -0.1875,0.082 -0.345703,0.19335 -0.152344,0.10547 -0.28711,0.22266 h -1.03125 l 0.275391,-4.44141 h 4.693359 v 0.89649 h -3.732421 l -0.158204,2.61914 q 0.28125,-0.2168 0.703125,-0.36914 0.421875,-0.1582 1.001954,-0.1582 0.615234,0 1.107421,0.1875 0.492188,0.1875 0.837891,0.5332 0.345703,0.33984 0.533203,0.81445 0.1875,0.47461 0.1875,1.04297 z"
         style="font-size:12px;font-family:Arial, 'Helvetica Neue', Helvetica, sans-serif;text-anchor:end;fill:#000000;fill-opacity:1"
         id="path1469"
         inkscape:connector-curvature="0" />
    </g>
  </g>
  <g
     clip-path="url(#clip4400)"
     id="g91"
     transform="translate(4,-11.811)">
    <g
       aria-label="5.0"
       style="font-size:12px;font-family:Arial, 'Helvetica Neue', Helvetica, sans-serif;text-anchor:end;fill:#000000;fill-opacity:1"
       id="text89">
      <path
         d="m 27.704922,119.89954 q 0,0.6211 -0.1875,1.13672 -0.1875,0.51563 -0.556641,0.89063 -0.369141,0.36914 -0.919922,0.57422 -0.544922,0.20507 -1.265625,0.20507 -0.65039,0 -1.136719,-0.15234 -0.480468,-0.15234 -0.814453,-0.41601 -0.333984,-0.26954 -0.533203,-0.62696 -0.193359,-0.35742 -0.27539,-0.76758 l 1.066406,-0.12304 q 0.06445,0.23437 0.18164,0.45703 0.117188,0.2168 0.316407,0.39258 0.205078,0.16992 0.498047,0.27539 0.298828,0.0996 0.720703,0.0996 0.410156,0 0.74414,-0.12305 0.333985,-0.12891 0.56836,-0.375 0.240234,-0.24609 0.36914,-0.60352 0.128907,-0.35742 0.128907,-0.82031 0,-0.38086 -0.123047,-0.69726 -0.123047,-0.32227 -0.351563,-0.55079 -0.228515,-0.23437 -0.5625,-0.36328 -0.328125,-0.1289 -0.75,-0.1289 -0.263672,0 -0.486328,0.0469 -0.222656,0.0469 -0.416016,0.12891 -0.1875,0.082 -0.345703,0.19336 -0.152343,0.10547 -0.287109,0.22265 h -1.03125 l 0.275391,-4.4414 h 4.693359 v 0.89648 h -3.732422 l -0.158203,2.61914 q 0.28125,-0.21679 0.703125,-0.36914 0.421875,-0.1582 1.001953,-0.1582 0.615234,0 1.107422,0.1875 0.492187,0.1875 0.837891,0.5332 0.345703,0.33985 0.533203,0.81446 0.1875,0.4746 0.1875,1.04296 z"
         style="font-size:12px;font-family:Arial, 'Helvetica Neue', Helvetica, sans-serif;text-anchor:end;fill:#000000;fill-opacity:1"
         id="path1458"
         inkscape:connector-curvature="0" />
      <path
         d="m 29.31039,122.589 v -1.28321 h 1.142579 v 1.28321 z"
         style="font-size:12px;font-family:Arial, 'Helvetica Neue', Helvetica, sans-serif;text-anchor:end;fill:#000000;fill-opacity:1"
         id="path1460"
         inkscape:connector-curvature="0" />
      <path
         d="m 37.74789,118.45814 q 0,1.18945 -0.228515,2.0039 -0.222656,0.8086 -0.615235,1.3125 -0.386718,0.49805 -0.914062,0.71485 -0.527344,0.21679 -1.125,0.21679 -0.603516,0 -1.125,-0.21679 -0.521484,-0.2168 -0.908203,-0.71485 -0.38086,-0.49804 -0.603516,-1.30664 -0.216797,-0.81445 -0.216797,-2.00976 0,-1.24805 0.216797,-2.0625 0.222656,-0.82031 0.609375,-1.30664 0.386719,-0.48633 0.914063,-0.67969 0.527343,-0.19922 1.148437,-0.19922 0.591797,0 1.107422,0.19922 0.521484,0.19336 0.908203,0.67969 0.386719,0.48633 0.609375,1.30664 0.222656,0.81445 0.222656,2.0625 z m -1.072265,0 q 0,-0.98438 -0.117188,-1.63477 -0.117187,-0.65625 -0.345703,-1.04297 -0.228515,-0.39257 -0.5625,-0.55078 -0.328125,-0.16406 -0.75,-0.16406 -0.445312,0 -0.785156,0.16406 -0.339844,0.16406 -0.574219,0.55664 -0.228515,0.38672 -0.345703,1.04297 -0.117187,0.65039 -0.117187,1.62891 0,0.94922 0.117187,1.59961 0.123047,0.65039 0.351563,1.04883 0.234375,0.39257 0.568359,0.56835 0.333984,0.16993 0.761719,0.16993 0.416015,0 0.75,-0.16993 0.333984,-0.17578 0.5625,-0.56835 0.234375,-0.39844 0.357422,-1.04883 0.128906,-0.65039 0.128906,-1.59961 z"
         style="font-size:12px;font-family:Arial, 'Helvetica Neue', Helvetica, sans-serif;text-anchor:end;fill:#000000;fill-opacity:1"
         id="path1462"
         inkscape:connector-curvature="0" />
    </g>
  </g>
  <g
     clip-path="url(#clip4400)"
     id="g95"
     transform="translate(4,-11.811)">
    <g
       aria-label="7.5"
       style="font-size:12px;font-family:Arial, 'Helvetica Neue', Helvetica, sans-serif;text-anchor:end;fill:#000000;fill-opacity:1"
       id="text93">
      <path
         d="m 27.605312,33.09901 q -0.621093,0.949219 -1.142578,1.828125 -0.521484,0.873047 -0.896484,1.763672 -0.375,0.884766 -0.585938,1.822266 -0.205078,0.931641 -0.205078,1.986328 h -1.101562 q 0,-0.990234 0.234375,-1.939453 0.234375,-0.955078 0.632812,-1.869141 0.398438,-0.919922 0.925781,-1.804687 0.527344,-0.884766 1.119141,-1.746094 h -4.435547 v -0.896484 h 5.455078 z"
         style="font-size:12px;font-family:Arial, 'Helvetica Neue', Helvetica, sans-serif;text-anchor:end;fill:#000000;fill-opacity:1"
         id="path1451"
         inkscape:connector-curvature="0" />
      <path
         d="m 29.31039,40.499401 v -1.283203 h 1.142579 v 1.283203 z"
         style="font-size:12px;font-family:Arial, 'Helvetica Neue', Helvetica, sans-serif;text-anchor:end;fill:#000000;fill-opacity:1"
         id="path1453"
         inkscape:connector-curvature="0" />
      <path
         d="m 37.712734,37.809948 q 0,0.621094 -0.1875,1.136719 -0.1875,0.515625 -0.55664,0.890625 -0.369141,0.36914 -0.919922,0.574218 -0.544922,0.205079 -1.265625,0.205079 -0.650391,0 -1.136719,-0.152344 -0.480469,-0.152344 -0.814453,-0.416016 -0.333985,-0.269531 -0.533203,-0.626953 -0.19336,-0.357422 -0.275391,-0.767578 l 1.066406,-0.123047 q 0.06445,0.234375 0.181641,0.457031 0.117187,0.216797 0.316406,0.392578 0.205078,0.169922 0.498047,0.275391 0.298828,0.09961 0.720703,0.09961 0.410156,0 0.744141,-0.123046 0.333984,-0.128907 0.568359,-0.375 0.240235,-0.246094 0.369141,-0.603516 0.128906,-0.357422 0.128906,-0.820313 0,-0.380859 -0.123047,-0.697265 -0.123047,-0.322266 -0.351562,-0.550781 -0.228516,-0.234375 -0.5625,-0.363282 -0.328125,-0.128906 -0.75,-0.128906 -0.263672,0 -0.486328,0.04687 -0.222657,0.04687 -0.416016,0.128906 -0.1875,0.08203 -0.345703,0.19336 -0.152344,0.105468 -0.28711,0.222656 h -1.03125 l 0.275391,-4.441406 h 4.693359 v 0.896484 h -3.732421 l -0.158204,2.619141 q 0.28125,-0.216797 0.703125,-0.369141 0.421875,-0.158203 1.001954,-0.158203 0.615234,0 1.107421,0.1875 0.492188,0.1875 0.837891,0.533203 0.345703,0.339844 0.533203,0.814453 0.1875,0.47461 0.1875,1.042969 z"
         style="font-size:12px;font-family:Arial, 'Helvetica Neue', Helvetica, sans-serif;text-anchor:end;fill:#000000;fill-opacity:1"
         id="path1455"
         inkscape:connector-curvature="0" />
    </g>
  </g>
  <circle
     clip-path="url(#clip4402)"
     style="fill:#000000;fill-opacity:1;stroke:none"
     cx="60.399399"
     cy="346.71399"
     r="4"
     id="circle105"
     transform="translate(4,-11.811)" />
  <circle
     clip-path="url(#clip4402)"
     style="fill:#009af9;fill-opacity:1;stroke:none"
     cx="60.399399"
     cy="346.71399"
     r="3"
     id="circle107"
     transform="translate(4,-11.811)" />
  <circle
     clip-path="url(#clip4402)"
     style="fill:#000000;fill-opacity:1;stroke:none"
     cx="60.399399"
     cy="323.76901"
     r="4"
     id="circle109"
     transform="translate(4,-11.811)" />
  <circle
     clip-path="url(#clip4402)"
     style="fill:#009af9;fill-opacity:1;stroke:none"
     cx="60.399399"
     cy="323.76901"
     r="3"
     id="circle111"
     transform="translate(4,-11.811)" />
  <circle
     clip-path="url(#clip4402)"
     style="fill:#000000;fill-opacity:1;stroke:none"
     cx="60.399399"
     cy="352.94501"
     r="4"
     id="circle113"
     transform="translate(4,-11.811)" />
  <circle
     clip-path="url(#clip4402)"
     style="fill:#009af9;fill-opacity:1;stroke:none"
     cx="60.399399"
     cy="352.94501"
     r="3"
     id="circle115"
     transform="translate(4,-11.811)" />
  <circle
     clip-path="url(#clip4402)"
     style="fill:#000000;fill-opacity:1;stroke:none"
     cx="60.399399"
     cy="348.754"
     r="4"
     id="circle117"
     transform="translate(4,-11.811)" />
  <circle
     clip-path="url(#clip4402)"
     style="fill:#009af9;fill-opacity:1;stroke:none"
     cx="60.399399"
     cy="348.754"
     r="3"
     id="circle119"
     transform="translate(4,-11.811)" />
  <circle
     clip-path="url(#clip4402)"
     style="fill:#000000;fill-opacity:1;stroke:none"
     cx="60.399399"
     cy="353.966"
     r="4"
     id="circle121"
     transform="translate(4,-11.811)" />
  <circle
     clip-path="url(#clip4402)"
     style="fill:#009af9;fill-opacity:1;stroke:none"
     cx="60.399399"
     cy="353.966"
     r="3"
     id="circle123"
     transform="translate(4,-11.811)" />
  <circle
     clip-path="url(#clip4402)"
     style="fill:#000000;fill-opacity:1;stroke:none"
     cx="111.137"
     cy="295.96899"
     r="4"
     id="circle125"
     transform="translate(4,-11.811)" />
  <circle
     clip-path="url(#clip4402)"
     style="fill:#009af9;fill-opacity:1;stroke:none"
     cx="111.137"
     cy="295.96899"
     r="3"
     id="circle127"
     transform="translate(4,-11.811)" />
  <circle
     clip-path="url(#clip4402)"
     style="fill:#000000;fill-opacity:1;stroke:none"
     cx="111.137"
     cy="328.77499"
     r="4"
     id="circle129"
     transform="translate(4,-11.811)" />
  <circle
     clip-path="url(#clip4402)"
     style="fill:#009af9;fill-opacity:1;stroke:none"
     cx="111.137"
     cy="328.77499"
     r="3"
     id="circle131"
     transform="translate(4,-11.811)" />
  <circle
     clip-path="url(#clip4402)"
     style="fill:#000000;fill-opacity:1;stroke:none"
     cx="111.137"
     cy="317.21201"
     r="4"
     id="circle133"
     transform="translate(4,-11.811)" />
  <circle
     clip-path="url(#clip4402)"
     style="fill:#009af9;fill-opacity:1;stroke:none"
     cx="111.137"
     cy="317.21201"
     r="3"
     id="circle135"
     transform="translate(4,-11.811)" />
  <circle
     clip-path="url(#clip4402)"
     style="fill:#000000;fill-opacity:1;stroke:none"
     cx="111.137"
     cy="339.401"
     r="4"
     id="circle137"
     transform="translate(4,-11.811)" />
  <circle
     clip-path="url(#clip4402)"
     style="fill:#009af9;fill-opacity:1;stroke:none"
     cx="111.137"
     cy="339.401"
     r="3"
     id="circle139"
     transform="translate(4,-11.811)" />
  <circle
     clip-path="url(#clip4402)"
     style="fill:#000000;fill-opacity:1;stroke:none"
     cx="111.137"
     cy="303.548"
     r="4"
     id="circle141"
     transform="translate(4,-11.811)" />
  <circle
     clip-path="url(#clip4402)"
     style="fill:#009af9;fill-opacity:1;stroke:none"
     cx="111.137"
     cy="303.548"
     r="3"
     id="circle143"
     transform="translate(4,-11.811)" />
  <circle
     clip-path="url(#clip4402)"
     style="fill:#000000;fill-opacity:1;stroke:none"
     cx="161.87399"
     cy="277.142"
     r="4"
     id="circle145"
     transform="translate(4,-11.811)" />
  <circle
     clip-path="url(#clip4402)"
     style="fill:#009af9;fill-opacity:1;stroke:none"
     cx="161.87399"
     cy="277.142"
     r="3"
     id="circle147"
     transform="translate(4,-11.811)" />
  <circle
     clip-path="url(#clip4402)"
     style="fill:#000000;fill-opacity:1;stroke:none"
     cx="161.87399"
     cy="258.76401"
     r="4"
     id="circle149"
     transform="translate(4,-11.811)" />
  <circle
     clip-path="url(#clip4402)"
     style="fill:#009af9;fill-opacity:1;stroke:none"
     cx="161.87399"
     cy="258.76401"
     r="3"
     id="circle151"
     transform="translate(4,-11.811)" />
  <circle
     clip-path="url(#clip4402)"
     style="fill:#000000;fill-opacity:1;stroke:none"
     cx="161.87399"
     cy="285.689"
     r="4"
     id="circle153"
     transform="translate(4,-11.811)" />
  <circle
     clip-path="url(#clip4402)"
     style="fill:#009af9;fill-opacity:1;stroke:none"
     cx="161.87399"
     cy="285.689"
     r="3"
     id="circle155"
     transform="translate(4,-11.811)" />
  <circle
     clip-path="url(#clip4402)"
     style="fill:#000000;fill-opacity:1;stroke:none"
     cx="161.87399"
     cy="300.832"
     r="4"
     id="circle157"
     transform="translate(4,-11.811)" />
  <circle
     clip-path="url(#clip4402)"
     style="fill:#009af9;fill-opacity:1;stroke:none"
     cx="161.87399"
     cy="300.832"
     r="3"
     id="circle159"
     transform="translate(4,-11.811)" />
  <circle
     clip-path="url(#clip4402)"
     style="fill:#000000;fill-opacity:1;stroke:none"
     cx="161.87399"
     cy="279.155"
     r="4"
     id="circle161"
     transform="translate(4,-11.811)" />
  <circle
     clip-path="url(#clip4402)"
     style="fill:#009af9;fill-opacity:1;stroke:none"
     cx="161.87399"
     cy="279.155"
     r="3"
     id="circle163"
     transform="translate(4,-11.811)" />
  <circle
     clip-path="url(#clip4402)"
     style="fill:#000000;fill-opacity:1;stroke:none"
     cx="212.61099"
     cy="216.765"
     r="4"
     id="circle165"
     transform="translate(4,-11.811)" />
  <circle
     clip-path="url(#clip4402)"
     style="fill:#009af9;fill-opacity:1;stroke:none"
     cx="212.61099"
     cy="216.765"
     r="3"
     id="circle167"
     transform="translate(4,-11.811)" />
  <circle
     clip-path="url(#clip4402)"
     style="fill:#000000;fill-opacity:1;stroke:none"
     cx="212.61099"
     cy="217.313"
     r="4"
     id="circle169"
     transform="translate(4,-11.811)" />
  <circle
     clip-path="url(#clip4402)"
     style="fill:#009af9;fill-opacity:1;stroke:none"
     cx="212.61099"
     cy="217.313"
     r="3"
     id="circle171"
     transform="translate(4,-11.811)" />
  <circle
     clip-path="url(#clip4402)"
     style="fill:#000000;fill-opacity:1;stroke:none"
     cx="212.61099"
     cy="217.173"
     r="4"
     id="circle173"
     transform="translate(4,-11.811)" />
  <circle
     clip-path="url(#clip4402)"
     style="fill:#009af9;fill-opacity:1;stroke:none"
     cx="212.61099"
     cy="217.173"
     r="3"
     id="circle175"
     transform="translate(4,-11.811)" />
  <circle
     clip-path="url(#clip4402)"
     style="fill:#000000;fill-opacity:1;stroke:none"
     cx="212.61099"
     cy="234.72501"
     r="4"
     id="circle177"
     transform="translate(4,-11.811)" />
  <circle
     clip-path="url(#clip4402)"
     style="fill:#009af9;fill-opacity:1;stroke:none"
     cx="212.61099"
     cy="234.72501"
     r="3"
     id="circle179"
     transform="translate(4,-11.811)" />
  <circle
     clip-path="url(#clip4402)"
     style="fill:#000000;fill-opacity:1;stroke:none"
     cx="212.61099"
     cy="224.92799"
     r="4"
     id="circle181"
     transform="translate(4,-11.811)" />
  <circle
     clip-path="url(#clip4402)"
     style="fill:#009af9;fill-opacity:1;stroke:none"
     cx="212.61099"
     cy="224.92799"
     r="3"
     id="circle183"
     transform="translate(4,-11.811)" />
  <circle
     clip-path="url(#clip4402)"
     style="fill:#000000;fill-opacity:1;stroke:none"
     cx="263.34799"
     cy="198.77499"
     r="4"
     id="circle185"
     transform="translate(4,-11.811)" />
  <circle
     clip-path="url(#clip4402)"
     style="fill:#009af9;fill-opacity:1;stroke:none"
     cx="263.34799"
     cy="198.77499"
     r="3"
     id="circle187"
     transform="translate(4,-11.811)" />
  <circle
     clip-path="url(#clip4402)"
     style="fill:#000000;fill-opacity:1;stroke:none"
     cx="263.34799"
     cy="214.992"
     r="4"
     id="circle189"
     transform="translate(4,-11.811)" />
  <circle
     clip-path="url(#clip4402)"
     style="fill:#009af9;fill-opacity:1;stroke:none"
     cx="263.34799"
     cy="214.992"
     r="3"
     id="circle191"
     transform="translate(4,-11.811)" />
  <circle
     clip-path="url(#clip4402)"
     style="fill:#000000;fill-opacity:1;stroke:none"
     cx="263.34799"
     cy="182.077"
     r="4"
     id="circle193"
     transform="translate(4,-11.811)" />
  <circle
     clip-path="url(#clip4402)"
     style="fill:#009af9;fill-opacity:1;stroke:none"
     cx="263.34799"
     cy="182.077"
     r="3"
     id="circle195"
     transform="translate(4,-11.811)" />
  <circle
     clip-path="url(#clip4402)"
     style="fill:#000000;fill-opacity:1;stroke:none"
     cx="263.34799"
     cy="181.88699"
     r="4"
     id="circle197"
     transform="translate(4,-11.811)" />
  <circle
     clip-path="url(#clip4402)"
     style="fill:#009af9;fill-opacity:1;stroke:none"
     cx="263.34799"
     cy="181.88699"
     r="3"
     id="circle199"
     transform="translate(4,-11.811)" />
  <circle
     clip-path="url(#clip4402)"
     style="fill:#000000;fill-opacity:1;stroke:none"
     cx="263.34799"
     cy="190.564"
     r="4"
     id="circle201"
     transform="translate(4,-11.811)" />
  <circle
     clip-path="url(#clip4402)"
     style="fill:#009af9;fill-opacity:1;stroke:none"
     cx="263.34799"
     cy="190.564"
     r="3"
     id="circle203"
     transform="translate(4,-11.811)" />
  <circle
     clip-path="url(#clip4402)"
     style="fill:#000000;fill-opacity:1;stroke:none"
     cx="314.08499"
     cy="152.46899"
     r="4"
     id="circle205"
     transform="translate(4,-11.811)" />
  <circle
     clip-path="url(#clip4402)"
     style="fill:#009af9;fill-opacity:1;stroke:none"
     cx="314.08499"
     cy="152.46899"
     r="3"
     id="circle207"
     transform="translate(4,-11.811)" />
  <circle
     clip-path="url(#clip4402)"
     style="fill:#000000;fill-opacity:1;stroke:none"
     cx="314.08499"
     cy="156.24699"
     r="4"
     id="circle209"
     transform="translate(4,-11.811)" />
  <circle
     clip-path="url(#clip4402)"
     style="fill:#009af9;fill-opacity:1;stroke:none"
     cx="314.08499"
     cy="156.24699"
     r="3"
     id="circle211"
     transform="translate(4,-11.811)" />
  <circle
     clip-path="url(#clip4402)"
     style="fill:#000000;fill-opacity:1;stroke:none"
     cx="314.08499"
     cy="142.00301"
     r="4"
     id="circle213"
     transform="translate(4,-11.811)" />
  <circle
     clip-path="url(#clip4402)"
     style="fill:#009af9;fill-opacity:1;stroke:none"
     cx="314.08499"
     cy="142.00301"
     r="3"
     id="circle215"
     transform="translate(4,-11.811)" />
  <circle
     clip-path="url(#clip4402)"
     style="fill:#000000;fill-opacity:1;stroke:none"
     cx="314.08499"
     cy="142.94701"
     r="4"
     id="circle217"
     transform="translate(4,-11.811)" />
  <circle
     clip-path="url(#clip4402)"
     style="fill:#009af9;fill-opacity:1;stroke:none"
     cx="314.08499"
     cy="142.94701"
     r="3"
     id="circle219"
     transform="translate(4,-11.811)" />
  <circle
     clip-path="url(#clip4402)"
     style="fill:#000000;fill-opacity:1;stroke:none"
     cx="314.08499"
     cy="136.59801"
     r="4"
     id="circle221"
     transform="translate(4,-11.811)" />
  <circle
     clip-path="url(#clip4402)"
     style="fill:#009af9;fill-opacity:1;stroke:none"
     cx="314.08499"
     cy="136.59801"
     r="3"
     id="circle223"
     transform="translate(4,-11.811)" />
  <circle
     clip-path="url(#clip4402)"
     style="fill:#000000;fill-opacity:1;stroke:none"
     cx="364.823"
     cy="100.614"
     r="4"
     id="circle225"
     transform="translate(4,-11.811)" />
  <circle
     clip-path="url(#clip4402)"
     style="fill:#009af9;fill-opacity:1;stroke:none"
     cx="364.823"
     cy="100.614"
     r="3"
     id="circle227"
     transform="translate(4,-11.811)" />
  <circle
     clip-path="url(#clip4402)"
     style="fill:#000000;fill-opacity:1;stroke:none"
     cx="364.823"
     cy="101.774"
     r="4"
     id="circle229"
     transform="translate(4,-11.811)" />
  <circle
     clip-path="url(#clip4402)"
     style="fill:#009af9;fill-opacity:1;stroke:none"
     cx="364.823"
     cy="101.774"
     r="3"
     id="circle231"
     transform="translate(4,-11.811)" />
  <circle
     clip-path="url(#clip4402)"
     style="fill:#000000;fill-opacity:1;stroke:none"
     cx="364.823"
     cy="104.561"
     r="4"
     id="circle233"
     transform="translate(4,-11.811)" />
  <circle
     clip-path="url(#clip4402)"
     style="fill:#009af9;fill-opacity:1;stroke:none"
     cx="364.823"
     cy="104.561"
     r="3"
     id="circle235"
     transform="translate(4,-11.811)" />
  <circle
     clip-path="url(#clip4402)"
     style="fill:#000000;fill-opacity:1;stroke:none"
     cx="364.823"
     cy="100.509"
     r="4"
     id="circle237"
     transform="translate(4,-11.811)" />
  <circle
     clip-path="url(#clip4402)"
     style="fill:#009af9;fill-opacity:1;stroke:none"
     cx="364.823"
     cy="100.509"
     r="3"
     id="circle239"
     transform="translate(4,-11.811)" />
  <circle
     clip-path="url(#clip4402)"
     style="fill:#000000;fill-opacity:1;stroke:none"
     cx="415.56"
     cy="72.004898"
     r="4"
     id="circle241"
     transform="translate(4,-11.811)" />
  <circle
     clip-path="url(#clip4402)"
     style="fill:#009af9;fill-opacity:1;stroke:none"
     cx="415.56"
     cy="72.004898"
     r="3"
     id="circle243"
     transform="translate(4,-11.811)" />
  <circle
     clip-path="url(#clip4402)"
     style="fill:#000000;fill-opacity:1;stroke:none"
     cx="415.56"
     cy="70.462402"
     r="4"
     id="circle245"
     transform="translate(4,-11.811)" />
  <circle
     clip-path="url(#clip4402)"
     style="fill:#009af9;fill-opacity:1;stroke:none"
     cx="415.56"
     cy="70.462402"
     r="3"
     id="circle247"
     transform="translate(4,-11.811)" />
  <circle
     clip-path="url(#clip4402)"
     style="fill:#000000;fill-opacity:1;stroke:none"
     cx="415.56"
     cy="56.367802"
     r="4"
     id="circle249"
     transform="translate(4,-11.811)" />
  <circle
     clip-path="url(#clip4402)"
     style="fill:#009af9;fill-opacity:1;stroke:none"
     cx="415.56"
     cy="56.367802"
     r="3"
     id="circle251"
     transform="translate(4,-11.811)" />
  <circle
     clip-path="url(#clip4402)"
     style="fill:#000000;fill-opacity:1;stroke:none"
     cx="415.56"
     cy="63.562401"
     r="4"
     id="circle253"
     transform="translate(4,-11.811)" />
  <circle
     clip-path="url(#clip4402)"
     style="fill:#009af9;fill-opacity:1;stroke:none"
     cx="415.56"
     cy="63.562401"
     r="3"
     id="circle255"
     transform="translate(4,-11.811)" />
  <circle
     clip-path="url(#clip4402)"
     style="fill:#000000;fill-opacity:1;stroke:none"
     cx="415.56"
     cy="80.086502"
     r="4"
     id="circle257"
     transform="translate(4,-11.811)" />
  <circle
     clip-path="url(#clip4402)"
     style="fill:#009af9;fill-opacity:1;stroke:none"
     cx="415.56"
     cy="80.086502"
     r="3"
     id="circle259"
     transform="translate(4,-11.811)" />
  <circle
     clip-path="url(#clip4402)"
     style="fill:#000000;fill-opacity:1;stroke:none"
     cx="466.297"
     cy="36.716301"
     r="4"
     id="circle261"
     transform="translate(4,-11.811)" />
  <circle
     clip-path="url(#clip4402)"
     style="fill:#009af9;fill-opacity:1;stroke:none"
     cx="466.297"
     cy="36.716301"
     r="3"
     id="circle263"
     transform="translate(4,-11.811)" />
  <circle
     clip-path="url(#clip4402)"
     style="fill:#000000;fill-opacity:1;stroke:none"
     cx="466.297"
     cy="21.776699"
     r="4"
     id="circle265"
     transform="translate(4,-11.811)" />
  <circle
     clip-path="url(#clip4402)"
     style="fill:#009af9;fill-opacity:1;stroke:none"
     cx="466.297"
     cy="21.776699"
     r="3"
     id="circle267"
     transform="translate(4,-11.811)" />
  <circle
     clip-path="url(#clip4402)"
     style="fill:#000000;fill-opacity:1;stroke:none"
     cx="466.297"
     cy="44.815201"
     r="4"
     id="circle269"
     transform="translate(4,-11.811)" />
  <circle
     clip-path="url(#clip4402)"
     style="fill:#009af9;fill-opacity:1;stroke:none"
     cx="466.297"
     cy="44.815201"
     r="3"
     id="circle271"
     transform="translate(4,-11.811)" />
  <circle
     clip-path="url(#clip4402)"
     style="fill:#000000;fill-opacity:1;stroke:none"
     cx="466.297"
     cy="44.304199"
     r="4"
     id="circle273"
     transform="translate(4,-11.811)" />
  <circle
     clip-path="url(#clip4402)"
     style="fill:#009af9;fill-opacity:1;stroke:none"
     cx="466.297"
     cy="44.304199"
     r="3"
     id="circle275"
     transform="translate(4,-11.811)" />
  <circle
     clip-path="url(#clip4402)"
     style="fill:#000000;fill-opacity:1;stroke:none"
     cx="466.297"
     cy="27.8915"
     r="4"
     id="circle277"
     transform="translate(4,-11.811)" />
  <circle
     clip-path="url(#clip4402)"
     style="fill:#009af9;fill-opacity:1;stroke:none"
     cx="466.297"
     cy="27.8915"
     r="3"
     id="circle279"
     transform="translate(4,-11.811)" />
  <defs
     id="defs286">
    <clipPath
       id="clip4403">
      <rect
         x="550"
         y="11"
         width="431"
         height="353"
         id="rect283" />
    </clipPath>
  </defs>
  <text
     xml:space="preserve"
     style="font-style:normal;font-weight:normal;font-size:20px;line-height:1.25;font-family:sans-serif;letter-spacing:0px;word-spacing:0px;fill:#000000;fill-opacity:1;stroke:none"
     x="210.32053"
     y="384.86087"
     id="text1393"><tspan
       sodipodi:role="line"
       id="tspan1391"
       x="210.32053"
       y="384.86087"
       style="font-size:16px">System size, $n$</tspan></text>
  <text
     xml:space="preserve"
     style="font-style:normal;font-weight:normal;font-size:20px;line-height:1.25;font-family:sans-serif;letter-spacing:0px;word-spacing:0px;fill:#000000;fill-opacity:1;stroke:none"
     x="-318.06241"
     y="12.15625"
     id="text1393-3"
     transform="rotate(-90)"><tspan
       sodipodi:role="line"
       id="tspan1391-6"
       x="-318.06241"
       y="12.15625"
       style="font-size:16px">log(Computation time), [s]</tspan></text>
</svg>
